<svg width="20" height="20" viewBox="0 0 20 20" fill="none" xmlns="http://www.w3.org/2000/svg">
<path d="M7.25976 3.0433L7.29757 2.95073C7.38082 2.98473 7.45653 3.03483 7.52037 3.09815C7.58441 3.16166 7.63524 3.23723 7.66992 3.32049C7.70461 3.40375 7.72247 3.49305 7.72247 3.58324C7.72247 3.67344 7.70461 3.76274 7.66992 3.846C7.63527 3.92918 7.58451 4.00468 7.52056 4.06815C7.52049 4.06821 7.52043 4.06828 7.52037 4.06834L2.75568 8.83302L7.25976 3.0433ZM7.25976 3.0433L7.29757 2.95073C7.21451 2.9168 7.12557 2.89957 7.03585 2.90001M7.25976 3.0433L6.55105 3.09844M6.55105 3.09844L6.55133 3.09815C6.61518 3.03483 6.69089 2.98473 6.77413 2.95073L6.81195 3.0433L6.77413 2.95073C6.8572 2.9168 6.94613 2.89957 7.03585 2.90001M6.55105 3.09844L1.78611 7.86337L6.55105 3.09844ZM7.03585 2.90001C7.03604 2.90001 7.03624 2.90001 7.03643 2.90001L7.03585 3.00001L7.03527 2.90001C7.03547 2.90001 7.03566 2.90001 7.03585 2.90001ZM2.27322 9.99881C2.27322 9.56166 2.44673 9.14238 2.75564 8.83307L1.78602 7.86345C1.50518 8.14361 1.28236 8.47642 1.13032 8.84281C0.978267 9.20925 0.899998 9.60208 0.899998 9.99881C0.899998 10.3955 0.978267 10.7884 1.13032 11.1548C1.28237 11.5212 1.50523 11.8541 1.78611 12.1343L6.55104 16.8992C6.67962 17.0278 6.85401 17.1 7.03585 17.1C7.21769 17.1 7.39208 17.0278 7.52066 16.8992C7.64924 16.7706 7.72147 16.5962 7.72147 16.4144C7.72147 16.2325 7.64924 16.0582 7.52066 15.9296L2.75568 11.1646C2.44674 10.8553 2.27322 10.436 2.27322 9.99881Z" fill="#2A2A2A" stroke="#2A2A2A" stroke-width="0.2"/>
</svg>
