<svg width="17" height="16" viewBox="0 0 17 16" fill="none" xmlns="http://www.w3.org/2000/svg">
<g id="Property 1=angle-s_up">
<path id="Vector" d="M6.96491 6.19391L3.90491 9.25391C3.78074 9.37882 3.71104 9.54779 3.71104 9.72391C3.71104 9.90004 3.78074 10.069 3.90491 10.1939C3.96688 10.2564 4.04062 10.306 4.12185 10.3398C4.20309 10.3737 4.29023 10.3911 4.37824 10.3911C4.46625 10.3911 4.55338 10.3737 4.63462 10.3398C4.71586 10.306 4.7896 10.2564 4.85157 10.1939L7.90491 7.12725C7.96688 7.06476 8.04062 7.01517 8.12186 6.98132C8.2031 6.94747 8.29023 6.93005 8.37824 6.93005C8.46625 6.93005 8.55339 6.94747 8.63462 6.98132C8.71586 7.01517 8.7896 7.06476 8.85157 7.12725L11.9049 10.1939C12.0296 10.3194 12.199 10.3903 12.3759 10.391C12.5528 10.3916 12.7227 10.3219 12.8482 10.1972C12.9738 10.0726 13.0447 9.90318 13.0453 9.72627C13.0459 9.54936 12.9762 9.37945 12.8516 9.25391L9.79157 6.19391C9.41657 5.81938 8.90824 5.60901 8.37824 5.60901C7.84824 5.60901 7.33991 5.81938 6.96491 6.19391Z" fill="#2A2A2A"/>
</g>
</svg>
