<svg width="20" height="20" viewBox="0 0 20 20" fill="none" xmlns="http://www.w3.org/2000/svg">
<path d="M16.9567 12.9483L17.0493 12.9861C17.0153 13.0694 16.9652 13.1451 16.9019 13.2089C16.8383 13.273 16.7628 13.3238 16.6795 13.3585C16.5963 13.3932 16.507 13.411 16.4168 13.411C16.3266 13.411 16.2373 13.3932 16.154 13.3585C16.0708 13.3238 15.9953 13.2731 15.9318 13.2091C15.9318 13.2091 15.9317 13.209 15.9317 13.2089L11.167 8.44425L16.9567 12.9483ZM16.9567 12.9483L17.0493 12.9861C17.0832 12.9031 17.1004 12.8141 17.1 12.7244M16.9567 12.9483L16.9016 12.2396M16.9016 12.2396L16.9019 12.2399C16.9652 12.3037 17.0153 12.3795 17.0493 12.4627L16.9567 12.5005L17.0493 12.4627C17.0832 12.5458 17.1004 12.6347 17.1 12.7244M16.9016 12.2396L12.1366 7.47468L16.9016 12.2396ZM17.1 12.7244C17.1 12.7246 17.1 12.7248 17.1 12.725L17 12.7244L17.1 12.7238C17.1 12.724 17.1 12.7242 17.1 12.7244ZM10.0012 7.96179C10.4383 7.96179 10.8576 8.1353 11.1669 8.4442L12.1365 7.47459C11.8564 7.19375 11.5236 6.97093 11.1572 6.81889C10.7908 6.66683 10.3979 6.58857 10.0012 6.58857C9.60446 6.58857 9.21162 6.66683 8.84519 6.81889C8.47876 6.97094 8.14592 7.19379 7.86574 7.47468L3.10081 12.2396C2.97223 12.3682 2.9 12.5426 2.9 12.7244C2.9 12.9063 2.97223 13.0806 3.10081 13.2092C3.22939 13.3378 3.40378 13.41 3.58562 13.41C3.76746 13.41 3.94185 13.3378 4.07043 13.2092L8.8354 8.44425C9.14472 8.13531 9.56402 7.96179 10.0012 7.96179Z" fill="#2A2A2A" stroke="#2A2A2A" stroke-width="0.2"/>
</svg>
