<svg width="17" height="16" viewBox="0 0 17 16" fill="none" xmlns="http://www.w3.org/2000/svg">
<g id="Property 1=angle-s_left">
<path id="Vector" d="M2.96309 9.41313L6.02309 12.4731C6.14799 12.5973 6.31696 12.667 6.49309 12.667C6.66921 12.667 6.83818 12.5973 6.96309 12.4731C7.02557 12.4112 7.07517 12.3374 7.10901 12.2562C7.14286 12.1749 7.16029 12.0878 7.16029 11.9998C7.16029 11.9118 7.14286 11.8247 7.10901 11.7434C7.07517 11.6622 7.02557 11.5884 6.96309 11.5265L3.89642 8.47313C3.83393 8.41115 3.78434 8.33742 3.75049 8.25618C3.71665 8.17494 3.69922 8.0878 3.69922 7.9998C3.69922 7.91179 3.71665 7.82465 3.75049 7.74341C3.78434 7.66217 3.83393 7.58844 3.89642 7.52646L6.96309 4.47313C7.08862 4.34848 7.1595 4.17906 7.16013 4.00215C7.16075 3.82524 7.09107 3.65533 6.96642 3.5298C6.84177 3.40426 6.67235 3.33338 6.49544 3.33276C6.31854 3.33213 6.14862 3.40181 6.02309 3.52646L2.96309 6.58646C2.58855 6.96146 2.37818 7.46979 2.37818 7.9998C2.37818 8.5298 2.58855 9.03813 2.96309 9.41313Z" fill="#2A2A2A"/>
</g>
</svg>
