<svg width="20" height="20" viewBox="0 0 20 20" fill="none" xmlns="http://www.w3.org/2000/svg">
<path d="M12.7403 16.9567L12.7024 17.0493C12.6192 17.0153 12.5435 16.9652 12.4796 16.9019C12.4156 16.8383 12.3648 16.7628 12.3301 16.6795C12.2954 16.5963 12.2775 16.507 12.2775 16.4168C12.2775 16.3266 12.2954 16.2373 12.3301 16.154C12.3647 16.0708 12.4155 15.9953 12.4795 15.9318C12.4795 15.9318 12.4796 15.9317 12.4796 15.9317L17.2443 11.167L12.7403 16.9567ZM12.7403 16.9567L12.7024 17.0493C12.7855 17.0832 12.8744 17.1004 12.9642 17.1M12.7403 16.9567L13.449 16.9016M13.449 16.9016L13.4487 16.9019C13.3848 16.9652 13.3091 17.0153 13.2259 17.0493L13.1881 16.9567L13.2259 17.0493C13.1428 17.0832 13.0539 17.1004 12.9642 17.1M13.449 16.9016L18.2139 12.1366L13.449 16.9016ZM12.9642 17.1C12.964 17.1 12.9638 17.1 12.9636 17.1L12.9642 17L12.9647 17.1C12.9645 17.1 12.9644 17.1 12.9642 17.1ZM17.7268 10.0012C17.7268 10.4383 17.5533 10.8576 17.2444 11.1669L18.214 12.1365C18.4948 11.8564 18.7177 11.5236 18.8697 11.1572C19.0217 10.7908 19.1 10.3979 19.1 10.0012C19.1 9.60446 19.0217 9.21162 18.8697 8.84519C18.7176 8.47875 18.4948 8.14592 18.2139 7.86574L13.449 3.10081C13.3204 2.97223 13.146 2.9 12.9642 2.9C12.7823 2.9 12.6079 2.97223 12.4794 3.10081C12.3508 3.22939 12.2785 3.40378 12.2785 3.58562C12.2785 3.76746 12.3508 3.94185 12.4794 4.07043L17.2443 8.8354C17.5533 9.14472 17.7268 9.56402 17.7268 10.0012Z" fill="#2A2A2A" stroke="#2A2A2A" stroke-width="0.2"/>
</svg>
