<svg width="17" height="16" viewBox="0 0 17 16" fill="none" xmlns="http://www.w3.org/2000/svg">
<g id="Property 1=angle-s_down">
<path id="Vector" d="M9.79143 9.80609L12.8514 6.74609C12.9756 6.62118 13.0453 6.45221 13.0453 6.27609C13.0453 6.09996 12.9756 5.93099 12.8514 5.80609C12.7895 5.7436 12.7157 5.694 12.6345 5.66016C12.5532 5.62631 12.4661 5.60889 12.3781 5.60889C12.2901 5.60889 12.2029 5.62631 12.1217 5.66016C12.0405 5.694 11.9667 5.7436 11.9048 5.80609L8.85143 8.87275C8.78945 8.93524 8.71572 8.98483 8.63448 9.01868C8.55324 9.05253 8.4661 9.06995 8.37809 9.06995C8.29008 9.06995 8.20295 9.05253 8.12171 9.01868C8.04047 8.98483 7.96673 8.93524 7.90476 8.87275L4.85142 5.80609C4.72677 5.68055 4.55736 5.60967 4.38045 5.60905C4.20354 5.60842 4.03363 5.6781 3.90809 5.80275C3.78256 5.9274 3.71168 6.09682 3.71105 6.27373C3.71043 6.45064 3.78011 6.62055 3.90476 6.74609L6.96476 9.80609C7.33976 10.1806 7.84809 10.391 8.37809 10.391C8.90809 10.391 9.41642 10.1806 9.79143 9.80609Z" fill="#2A2A2A"/>
</g>
</svg>
