<svg width="20" height="20" viewBox="0 0 20 20" fill="none" xmlns="http://www.w3.org/2000/svg">
<path d="M3.0433 7.05167L2.95073 7.01386C2.98473 6.93062 3.03483 6.8549 3.09815 6.79106C3.16166 6.72703 3.23723 6.6762 3.32049 6.64151C3.40375 6.60682 3.49305 6.58896 3.58324 6.58896C3.67344 6.58896 3.76274 6.60682 3.846 6.64151C3.92918 6.67616 4.00468 6.72693 4.06815 6.79087C4.06821 6.79094 4.06828 6.791 4.06834 6.79106L8.83302 11.5558L3.0433 7.05167ZM3.0433 7.05167L2.95073 7.01386C2.9168 7.09693 2.89957 7.18586 2.90001 7.27558M3.0433 7.05167L3.09844 7.76039M3.09844 7.76039L3.09815 7.7601C3.03483 7.69626 2.98473 7.62054 2.95073 7.5373L3.0433 7.49949L2.95073 7.5373C2.9168 7.45423 2.89957 7.3653 2.90001 7.27558M3.09844 7.76039L7.86337 12.5253L3.09844 7.76039ZM2.90001 7.27558C2.90001 7.27539 2.90001 7.27519 2.90001 7.275L3.00001 7.27558L2.90001 7.27616C2.90001 7.27597 2.90001 7.27577 2.90001 7.27558ZM9.99881 12.0382C9.56166 12.0382 9.14238 11.8647 8.83307 11.5558L7.86345 12.5254C8.14361 12.8063 8.47642 13.0291 8.84281 13.1811C9.20925 13.3332 9.60208 13.4114 9.99881 13.4114C10.3955 13.4114 10.7884 13.3332 11.1548 13.1811C11.5212 13.0291 11.8541 12.8062 12.1343 12.5253L16.8992 7.76039C17.0278 7.63181 17.1 7.45742 17.1 7.27558C17.1 7.09374 17.0278 6.91935 16.8992 6.79077C16.7706 6.6622 16.5962 6.58996 16.4144 6.58996C16.2325 6.58996 16.0582 6.6622 15.9296 6.79077L11.1646 11.5558C10.8553 11.8647 10.436 12.0382 9.99881 12.0382Z" fill="#2A2A2A" stroke="#2A2A2A" stroke-width="0.2"/>
</svg>
