<svg viewBox="0 0 21 20" fill="none" xmlns="http://www.w3.org/2000/svg">
<path d="M13.5024 16.9567L13.4645 17.0493C13.3813 17.0153 13.3056 16.9652 13.2417 16.9019C13.1777 16.8383 13.1269 16.7628 13.0922 16.6795C13.0575 16.5963 13.0396 16.507 13.0396 16.4168C13.0396 16.3266 13.0575 16.2373 13.0922 16.154C13.1268 16.0708 13.1776 15.9953 13.2416 15.9318C13.2416 15.9318 13.2417 15.9317 13.2417 15.9317L18.0064 11.167L13.5024 16.9567ZM13.5024 16.9567L13.4645 17.0493C13.5476 17.0832 13.6365 17.1004 13.7263 17.1M13.5024 16.9567L14.2111 16.9016M14.2111 16.9016L14.2108 16.9019C14.1469 16.9652 14.0712 17.0153 13.988 17.0493L13.9502 16.9567L13.988 17.0493C13.9049 17.0832 13.816 17.1004 13.7263 17.1M14.2111 16.9016L18.976 12.1366L14.2111 16.9016ZM13.7263 17.1C13.7261 17.1 13.7259 17.1 13.7257 17.1L13.7263 17L13.7268 17.1C13.7266 17.1 13.7265 17.1 13.7263 17.1ZM18.4889 10.0012C18.4889 10.4383 18.3154 10.8576 18.0065 11.1669L18.9761 12.1365C19.2569 11.8564 19.4798 11.5236 19.6318 11.1572C19.7838 10.7908 19.8621 10.3979 19.8621 10.0012C19.8621 9.60446 19.7838 9.21162 19.6318 8.84519C19.4797 8.47875 19.2569 8.14592 18.976 7.86574L14.2111 3.10081C14.0825 2.97223 13.9081 2.9 13.7263 2.9C13.5444 2.9 13.37 2.97223 13.2415 3.10081C13.1129 3.22939 13.0406 3.40378 13.0406 3.58562C13.0406 3.76746 13.1129 3.94185 13.2415 4.07043L18.0064 8.8354C18.3154 9.14472 18.4889 9.56402 18.4889 10.0012Z" fill="none"/>
</svg>
