<svg viewBox="0 0 21 20" fill="none" xmlns="http://www.w3.org/2000/svg">
<g id="Icon/angle">
<path id="Vector" d="M8.02108 3.0433L8.05889 2.95073C8.14214 2.98473 8.21785 3.03483 8.28169 3.09815C8.34573 3.16166 8.39656 3.23723 8.43124 3.32049C8.46593 3.40375 8.48379 3.49305 8.48379 3.58324C8.48379 3.67344 8.46593 3.76274 8.43124 3.846C8.39659 3.92918 8.34583 4.00468 8.28188 4.06815C8.28182 4.06821 8.28175 4.06828 8.28169 4.06834L3.517 8.83302L8.02108 3.0433ZM8.02108 3.0433L8.05889 2.95073C7.97583 2.9168 7.8869 2.89957 7.79717 2.90001M8.02108 3.0433L7.31237 3.09844M7.31237 3.09844L7.31266 3.09815C7.3765 3.03483 7.45221 2.98473 7.53545 2.95073L7.57327 3.0433L7.53545 2.95073C7.61852 2.9168 7.70745 2.89957 7.79717 2.90001M7.31237 3.09844L2.54743 7.86337L7.31237 3.09844ZM7.79717 2.90001C7.79737 2.90001 7.79756 2.90001 7.79775 2.90001L7.79717 3.00001L7.7966 2.90001C7.79679 2.90001 7.79698 2.90001 7.79717 2.90001ZM3.03454 9.99881C3.03454 9.56166 3.20805 9.14238 3.51696 8.83307L2.54734 7.86345C2.2665 8.14361 2.04368 8.47642 1.89164 8.84281C1.73959 9.20925 1.66132 9.60208 1.66132 9.99881C1.66132 10.3955 1.73959 10.7884 1.89164 11.1548C2.0437 11.5212 2.26655 11.8541 2.54743 12.1343L7.31237 16.8992C7.44095 17.0278 7.61534 17.1 7.79717 17.1C7.97901 17.1 8.1534 17.0278 8.28198 16.8992C8.41056 16.7706 8.48279 16.5962 8.48279 16.4144C8.48279 16.2325 8.41056 16.0582 8.28198 15.9296L3.517 11.1646C3.20807 10.8553 3.03454 10.436 3.03454 9.99881Z" fill="none"/>
</g>
</svg>
