<svg viewBox="0 0 20 20" fill="none" xmlns="http://www.w3.org/2000/svg">
<path d="M16.7809 20C16.4726 19.9992 16.1676 19.9372 15.8834 19.8178C15.5992 19.6984 15.3414 19.5238 15.1251 19.3042L10.0001 14.2092L4.87508 19.3075C4.54594 19.6414 4.12382 19.8685 3.66376 19.959C3.2037 20.0495 2.72704 19.9993 2.29592 19.815C1.86051 19.6399 1.48804 19.3375 1.22713 18.9474C0.966225 18.5573 0.829014 18.0976 0.833416 17.6283V4.16667C0.833416 3.0616 1.2724 2.00179 2.0538 1.22039C2.83521 0.438987 3.89501 0 5.00008 0L15.0001 0C15.5473 0 16.0891 0.107774 16.5946 0.317169C17.1001 0.526563 17.5595 0.833478 17.9464 1.22039C18.3333 1.6073 18.6402 2.06663 18.8496 2.57215C19.059 3.07768 19.1668 3.61949 19.1668 4.16667V17.6283C19.1714 18.0972 19.0347 18.5567 18.7744 18.9467C18.5141 19.3368 18.1424 19.6393 17.7076 19.815C17.4141 19.9377 17.099 20.0006 16.7809 20ZM5.00008 1.66667C4.33704 1.66667 3.70116 1.93006 3.23232 2.3989C2.76347 2.86774 2.50008 3.50363 2.50008 4.16667V17.6283C2.49978 17.7672 2.54064 17.903 2.6175 18.0187C2.69436 18.1343 2.80377 18.2246 2.93191 18.2781C3.06005 18.3316 3.20117 18.3459 3.33745 18.3193C3.47373 18.2926 3.59905 18.2262 3.69758 18.1283L9.41675 12.4442C9.57289 12.289 9.78409 12.2018 10.0042 12.2018C10.2244 12.2018 10.4356 12.289 10.5918 12.4442L16.3043 18.1267C16.4028 18.2245 16.5281 18.291 16.6644 18.3176C16.8007 18.3443 16.9418 18.33 17.0699 18.2765C17.1981 18.2229 17.3075 18.1327 17.3843 18.017C17.4612 17.9014 17.5021 17.7655 17.5018 17.6267V4.16667C17.5018 3.50363 17.2384 2.86774 16.7695 2.3989C16.3007 1.93006 15.6648 1.66667 15.0018 1.66667H5.00008Z" fill="none"/>
</svg>
