<svg viewBox="0 0 16 17" fill="none" xmlns="http://www.w3.org/2000/svg">
<g id="Frame 1707482380">
<path id="Vector" d="M12 16.6875H4C3.11627 16.6864 2.26904 16.3349 1.64415 15.71C1.01926 15.0851 0.66773 14.2379 0.666672 13.3542V4.02083C0.66773 3.1371 1.01926 2.28987 1.64415 1.66498C2.26904 1.04009 3.11627 0.688559 4 0.6875L12 0.6875C12.8837 0.688559 13.731 1.04009 14.3559 1.66498C14.9808 2.28987 15.3323 3.1371 15.3333 4.02083V13.3542C15.3323 14.2379 14.9808 15.0851 14.3559 15.71C13.731 16.3349 12.8837 16.6864 12 16.6875ZM4 2.02083C3.46957 2.02083 2.96086 2.23155 2.58579 2.60662C2.21072 2.98169 2.00001 3.4904 2.00001 4.02083V13.3542C2.00001 13.8846 2.21072 14.3933 2.58579 14.7684C2.96086 15.1435 3.46957 15.3542 4 15.3542H12C12.5304 15.3542 13.0391 15.1435 13.4142 14.7684C13.7893 14.3933 14 13.8846 14 13.3542V4.02083C14 3.4904 13.7893 2.98169 13.4142 2.60662C13.0391 2.23155 12.5304 2.02083 12 2.02083H4ZM10.6667 7.35417H5.33334C4.80291 7.35417 4.2942 7.14345 3.91912 6.76838C3.54405 6.39331 3.33334 5.8846 3.33334 5.35417C3.33334 4.82373 3.54405 4.31503 3.91912 3.93995C4.2942 3.56488 4.80291 3.35417 5.33334 3.35417H10.6667C11.1971 3.35417 11.7058 3.56488 12.0809 3.93995C12.456 4.31503 12.6667 4.82373 12.6667 5.35417C12.6667 5.8846 12.456 6.39331 12.0809 6.76838C11.7058 7.14345 11.1971 7.35417 10.6667 7.35417ZM5.33334 4.6875C5.15653 4.6875 4.98696 4.75774 4.86193 4.88276C4.73691 5.00779 4.66667 5.17736 4.66667 5.35417C4.66667 5.53098 4.73691 5.70055 4.86193 5.82557C4.98696 5.9506 5.15653 6.02083 5.33334 6.02083H10.6667C10.8435 6.02083 11.0131 5.9506 11.1381 5.82557C11.2631 5.70055 11.3333 5.53098 11.3333 5.35417C11.3333 5.17736 11.2631 5.00779 11.1381 4.88276C11.0131 4.75774 10.8435 4.6875 10.6667 4.6875H5.33334ZM4 9.35417C3.86815 9.35417 3.73926 9.39327 3.62962 9.46652C3.51999 9.53977 3.43454 9.64389 3.38409 9.76571C3.33363 9.88753 3.32042 10.0216 3.34615 10.1509C3.37187 10.2802 3.43537 10.399 3.5286 10.4922C3.62184 10.5855 3.74062 10.649 3.86994 10.6747C3.99927 10.7004 4.13331 10.6872 4.25513 10.6368C4.37694 10.5863 4.48106 10.5008 4.55432 10.3912C4.62757 10.2816 4.66667 10.1527 4.66667 10.0208C4.66667 9.84402 4.59643 9.67445 4.47141 9.54943C4.34639 9.42441 4.17682 9.35417 4 9.35417ZM6.66667 9.35417C6.53482 9.35417 6.40592 9.39327 6.29629 9.46652C6.18666 9.53977 6.10121 9.64389 6.05075 9.76571C6.00029 9.88753 5.98709 10.0216 6.01281 10.1509C6.03854 10.2802 6.10203 10.399 6.19527 10.4922C6.2885 10.5855 6.40729 10.649 6.53661 10.6747C6.66593 10.7004 6.79998 10.6872 6.92179 10.6368C7.04361 10.5863 7.14773 10.5008 7.22098 10.3912C7.29424 10.2816 7.33334 10.1527 7.33334 10.0208C7.33334 9.84402 7.2631 9.67445 7.13808 9.54943C7.01305 9.42441 6.84348 9.35417 6.66667 9.35417ZM9.33334 9.35417C9.20148 9.35417 9.07259 9.39327 8.96296 9.46652C8.85332 9.53977 8.76788 9.64389 8.71742 9.76571C8.66696 9.88753 8.65376 10.0216 8.67948 10.1509C8.7052 10.2802 8.7687 10.399 8.86193 10.4922C8.95517 10.5855 9.07396 10.649 9.20328 10.6747C9.3326 10.7004 9.46664 10.6872 9.58846 10.6368C9.71028 10.5863 9.8144 10.5008 9.88765 10.3912C9.96091 10.2816 10 10.1527 10 10.0208C10 9.84402 9.92977 9.67445 9.80474 9.54943C9.67972 9.42441 9.51015 9.35417 9.33334 9.35417ZM4 12.0208C3.86815 12.0208 3.73926 12.0599 3.62962 12.1332C3.51999 12.2064 3.43454 12.3106 3.38409 12.4324C3.33363 12.5542 3.32042 12.6882 3.34615 12.8176C3.37187 12.9469 3.43537 13.0657 3.5286 13.1589C3.62184 13.2521 3.74062 13.3156 3.86994 13.3414C3.99927 13.3671 4.13331 13.3539 4.25513 13.3034C4.37694 13.253 4.48106 13.1675 4.55432 13.0579C4.62757 12.9482 4.66667 12.8194 4.66667 12.6875C4.66667 12.5107 4.59643 12.3411 4.47141 12.2161C4.34639 12.0911 4.17682 12.0208 4 12.0208ZM6.66667 12.0208C6.53482 12.0208 6.40592 12.0599 6.29629 12.1332C6.18666 12.2064 6.10121 12.3106 6.05075 12.4324C6.00029 12.5542 5.98709 12.6882 6.01281 12.8176C6.03854 12.9469 6.10203 13.0657 6.19527 13.1589C6.2885 13.2521 6.40729 13.3156 6.53661 13.3414C6.66593 13.3671 6.79998 13.3539 6.92179 13.3034C7.04361 13.253 7.14773 13.1675 7.22098 13.0579C7.29424 12.9482 7.33334 12.8194 7.33334 12.6875C7.33334 12.5107 7.2631 12.3411 7.13808 12.2161C7.01305 12.0911 6.84348 12.0208 6.66667 12.0208ZM12 9.35417C11.8681 9.35417 11.7393 9.39327 11.6296 9.46652C11.52 9.53977 11.4345 9.64389 11.3841 9.76571C11.3336 9.88753 11.3204 10.0216 11.3461 10.1509C11.3719 10.2802 11.4354 10.399 11.5286 10.4922C11.6218 10.5855 11.7406 10.649 11.8699 10.6747C11.9993 10.7004 12.1333 10.6872 12.2551 10.6368C12.3769 10.5863 12.4811 10.5008 12.5543 10.3912C12.6276 10.2816 12.6667 10.1527 12.6667 10.0208C12.6667 9.84402 12.5964 9.67445 12.4714 9.54943C12.3464 9.42441 12.1768 9.35417 12 9.35417ZM12.6667 12.6875C12.6667 12.5107 12.5964 12.3411 12.4714 12.2161C12.3464 12.0911 12.1768 12.0208 12 12.0208H9.33334C9.15653 12.0208 8.98696 12.0911 8.86193 12.2161C8.73691 12.3411 8.66667 12.5107 8.66667 12.6875C8.66667 12.8643 8.73691 13.0339 8.86193 13.1589C8.98696 13.2839 9.15653 13.3542 9.33334 13.3542H12C12.1768 13.3542 12.3464 13.2839 12.4714 13.1589C12.5964 13.0339 12.6667 12.8643 12.6667 12.6875Z" fill="none"/>
</g>
</svg>
