<svg viewBox="0 0 21 20" fill="none" xmlns="http://www.w3.org/2000/svg">
<g id="Property 1=x">
<path id="Union" fill-rule="evenodd" clip-rule="evenodd" d="M19.3031 2.77673C19.635 2.44479 19.635 1.9066 19.3031 1.57465C18.9711 1.24271 18.4329 1.24271 18.101 1.57465L10.8779 8.79779L3.65519 1.57513C3.32325 1.24318 2.78506 1.24318 2.45311 1.57513C2.12117 1.90707 2.12117 2.44526 2.45311 2.77721L9.67578 9.99987L2.45311 17.2225C2.12116 17.5545 2.12116 18.0927 2.45311 18.4246C2.78505 18.7566 3.32325 18.7566 3.65519 18.4246L10.8779 11.202L18.101 18.4251C18.4329 18.757 18.9711 18.757 19.3031 18.4251C19.635 18.0932 19.635 17.555 19.3031 17.223L12.0799 9.99987L19.3031 2.77673Z" fill="black"/>
</g>
</svg>
