<svg viewBox="0 0 21 20" fill="none" xmlns="http://www.w3.org/2000/svg">
<g clip-path="url(#clip0_1166_36578)">
<path d="M20.0448 9.1665H1.71151C1.25127 9.1665 0.878174 9.5396 0.878174 9.99984C0.878174 10.4601 1.25127 10.8332 1.71151 10.8332H20.0448C20.5051 10.8332 20.8782 10.4601 20.8782 9.99984C20.8782 9.5396 20.5051 9.1665 20.0448 9.1665Z" fill="none"/>
<path d="M20.0448 3.3335H1.71151C1.25127 3.3335 0.878174 3.70659 0.878174 4.16683C0.878174 4.62706 1.25127 5.00016 1.71151 5.00016H20.0448C20.5051 5.00016 20.8782 4.62706 20.8782 4.16683C20.8782 3.70659 20.5051 3.3335 20.0448 3.3335Z" fill="none"/>
<path d="M20.0448 15H1.71151C1.25127 15 0.878174 15.3731 0.878174 15.8333C0.878174 16.2936 1.25127 16.6667 1.71151 16.6667H20.0448C20.5051 16.6667 20.8782 16.2936 20.8782 15.8333C20.8782 15.3731 20.5051 15 20.0448 15Z" fill="none"/>
</g>
<defs>
<clipPath id="clip0_1166_36578">
<rect width="20" height="20" fill="white" transform="translate(0.878174)"/>
</clipPath>
</defs>
</svg>
