<svg
width="21"
height="21"
viewBox="0 0 21 21"
fill="none"
xmlns="http://www.w3.org/2000/svg"
>
<g clipPath="url(#clip0_1166_37653)">
    <path
    d="M17.4951 1.05766L17.4776 1.05182L15.2151 0.301825C14.4336 0.0423719 13.5928 0.0194698 12.7984 0.235992L8.15172 1.58516C7.58276 1.73594 6.97898 1.68287 6.44505 1.43516L6.02839 1.24182C5.39555 0.978636 4.70755 0.875622 4.02538 0.941913C3.34321 1.0082 2.68792 1.24175 2.1176 1.62186C1.54727 2.00197 1.07952 2.51689 0.755788 3.12101C0.432061 3.72512 0.262358 4.39977 0.261719 5.08515L0.261719 15.1476C0.26347 16.0487 0.556545 16.9251 1.09721 17.646C1.63788 18.3669 2.39715 18.8936 3.26172 19.1476L5.65255 19.8976C6.0559 20.023 6.476 20.0863 6.89839 20.0851C7.2749 20.0899 7.65005 20.0391 8.01172 19.9343L12.8451 18.601C13.2867 18.4812 13.7528 18.4849 14.1926 18.6118L16.1451 19.1751C16.6352 19.2936 17.1459 19.2994 17.6386 19.1919C18.1314 19.0845 18.5933 18.8666 18.9896 18.5548C19.3859 18.2429 19.7063 17.8452 19.9267 17.3916C20.147 16.938 20.2616 16.4403 20.2617 15.936V4.98182C20.2605 4.12252 19.9941 3.28454 19.4989 2.58224C19.0038 1.87993 18.304 1.34752 17.4951 1.05766ZM3.74172 17.551C3.22031 17.4002 2.76179 17.0845 2.43488 16.6512C2.10797 16.218 1.93026 15.6904 1.92839 15.1476V5.08515C1.92434 4.67239 2.02418 4.26523 2.21874 3.90117C2.41329 3.53711 2.6963 3.22784 3.04172 3.00182C3.45272 2.72919 3.93518 2.58422 4.42839 2.58516C4.74644 2.58524 5.06135 2.64811 5.35505 2.77016C5.35505 2.77016 5.97589 3.03599 6.09422 3.07849V18.2868L3.74172 17.551ZM7.76172 18.2743V3.31765C8.04477 3.30264 8.32561 3.25936 8.60005 3.18849L12.7617 1.97932V16.9185L7.76172 18.2743ZM18.5951 15.936C18.5952 16.1856 18.5393 16.4321 18.4315 16.6572C18.3237 16.8823 18.1666 17.0803 17.972 17.2366C17.7774 17.3929 17.5502 17.5035 17.3071 17.5602C17.064 17.617 16.8112 17.6183 16.5676 17.5643L14.4284 16.9618V1.81432L16.9434 2.63016C17.4267 2.80528 17.8445 3.12489 18.14 3.54559C18.4355 3.96629 18.5943 4.46772 18.5951 4.98182V15.936Z"
    fill="white"
    />
</g>
<defs>
    <clipPath id="clip0_1166_37653">
    <rect
        width="20"
        height="20"
        fill="white"
        transform="translate(0.261719 0.0849609)"
    />
    </clipPath>
</defs>
</svg>