<svg viewBox="0 0 21 20" fill="none" xmlns="http://www.w3.org/2000/svg">
<path d="M18.1115 0.972697L18.094 0.966863L15.8315 0.216864C15.05 -0.042589 14.2093 -0.0654911 13.4148 0.151031L8.76817 1.5002C8.19921 1.65098 7.59543 1.59791 7.0615 1.3502L6.64483 1.15686C6.01199 0.893675 5.324 0.790661 4.64183 0.856952C3.95966 0.923243 3.30437 1.15679 2.73404 1.5369C2.16372 1.91701 1.69596 2.43193 1.37224 3.03605C1.04851 3.64016 0.878806 4.31481 0.878166 5.00019L0.878166 15.0627C0.879918 15.9638 1.17299 16.8402 1.71366 17.5611C2.25432 18.2819 3.01359 18.8087 3.87817 19.0627L6.269 19.8127C6.67235 19.9381 7.09244 20.0013 7.51483 20.0002C7.89134 20.0049 8.2665 19.9541 8.62817 19.8493L13.4615 18.516C13.9032 18.3962 14.3693 18.4 14.809 18.5268L16.7615 19.0902C17.2517 19.2087 17.7624 19.2144 18.2551 19.107C18.7478 18.9995 19.2097 18.7817 19.6061 18.4698C20.0024 18.158 20.3228 17.7603 20.5431 17.3066C20.7635 16.853 20.878 16.3553 20.8782 15.851V4.89686C20.8769 4.03756 20.6105 3.19958 20.1154 2.49727C19.6202 1.79497 18.9204 1.26256 18.1115 0.972697ZM4.35817 17.466C3.83676 17.3152 3.37824 16.9996 3.05133 16.5663C2.72442 16.133 2.54671 15.6054 2.54483 15.0627V5.00019C2.54078 4.58742 2.64063 4.18027 2.83519 3.81621C3.02974 3.45215 3.31275 3.14287 3.65817 2.91686C4.06917 2.64423 4.55163 2.49926 5.04483 2.50019C5.36289 2.50028 5.67779 2.56315 5.9715 2.68519C5.9715 2.68519 6.59233 2.95103 6.71067 2.99353V18.2018L4.35817 17.466ZM8.37817 18.1893V3.23269C8.66122 3.21767 8.94206 3.1744 9.2165 3.10353L13.3782 1.89436V16.8335L8.37817 18.1893ZM19.2115 15.851C19.2117 16.1006 19.1558 16.3471 19.0479 16.5722C18.9401 16.7973 18.7831 16.9954 18.5885 17.1517C18.3938 17.308 18.1666 17.4186 17.9235 17.4753C17.6804 17.532 17.4277 17.5334 17.184 17.4793L15.0448 16.8768V1.72936L17.5598 2.54519C18.0432 2.72032 18.4609 3.03993 18.7564 3.46063C19.0519 3.88133 19.2108 4.38276 19.2115 4.89686V15.851Z" fill="none"/>
</svg>
