<svg viewBox="0 0 20 20" fill="currentColor" xmlns="http://www.w3.org/2000/svg">
<path d="M12.25 7.0002H17.155C16.8931 6.30636 16.4864 5.67636 15.9618 5.15221L13.3488 2.53771C12.824 2.01371 12.1938 1.6072 11.5 1.34521V6.25022C11.5 6.66439 11.8358 7.0002 12.25 7.0002Z" />
<path d="M17.482 8.49999H12.25C11.0074 8.49999 9.99999 7.49262 9.99999 6.24999V1.018C9.87923 1.00974 9.7585 1 9.63623 1H6.24998C4.17994 1.0025 2.50246 2.67998 2.5 4.75001V15.25C2.50246 17.32 4.17994 18.9975 6.24998 19H13.75C15.82 18.9975 17.4975 17.32 17.5 15.25V8.86375C17.5 8.74151 17.4902 8.62075 17.482 8.49999Z"/>
</svg>
