<svg viewBox="0 0 20 20" fill="none" xmlns="http://www.w3.org/2000/svg">
<path d="M15.25 1H4.75C3.7558 1.00119 2.80267 1.39666 2.09966 2.09966C1.39666 2.80267 1.00119 3.7558 1 4.75L1 15.25C1.00119 16.2442 1.39666 17.1973 2.09966 17.9003C2.80267 18.6033 3.7558 18.9988 4.75 19H15.25C16.2442 18.9988 17.1973 18.6033 17.9003 17.9003C18.6033 17.1973 18.9988 16.2442 19 15.25V4.75C18.9988 3.7558 18.6033 2.80267 17.9003 2.09966C17.1973 1.39666 16.2442 1.00119 15.25 1V1ZM4.75 2.5H15.25C15.8467 2.5 16.419 2.73705 16.841 3.15901C17.2629 3.58097 17.5 4.15326 17.5 4.75V15.25C17.4987 15.5841 17.4218 15.9136 17.275 16.2137L10.4028 9.3415C10.0545 8.99318 9.64108 8.71686 9.18604 8.52835C8.73101 8.33983 8.24329 8.2428 7.75075 8.2428C7.25821 8.2428 6.77049 8.33983 6.31546 8.52835C5.86042 8.71686 5.44698 8.99318 5.09875 9.3415L2.5 11.9395V4.75C2.5 4.15326 2.73705 3.58097 3.15901 3.15901C3.58097 2.73705 4.15326 2.5 4.75 2.5ZM4.75 17.5C4.15326 17.5 3.58097 17.2629 3.15901 16.841C2.73705 16.419 2.5 15.8467 2.5 15.25V14.0605L6.1585 10.402C6.36745 10.1929 6.61555 10.0271 6.88863 9.91389C7.16171 9.80073 7.4544 9.74248 7.75 9.74248C8.0456 9.74248 8.33829 9.80073 8.61137 9.91389C8.88445 10.0271 9.13255 10.1929 9.3415 10.402L16.2137 17.275C15.9136 17.4218 15.5841 17.4987 15.25 17.5H4.75Z" />
<path d="M13.0001 8.875C13.5193 8.875 14.0268 8.72105 14.4585 8.43261C14.8902 8.14417 15.2266 7.7342 15.4253 7.25454C15.624 6.77489 15.676 6.24709 15.5747 5.73789C15.4734 5.22869 15.2234 4.76096 14.8563 4.39385C14.4892 4.02673 14.0214 3.77673 13.5122 3.67544C13.003 3.57415 12.4752 3.62614 11.9956 3.82482C11.5159 4.0235 11.106 4.35995 10.8175 4.79163C10.5291 5.22331 10.3751 5.73083 10.3751 6.25C10.3751 6.94619 10.6517 7.61387 11.144 8.10616C11.6362 8.59844 12.3039 8.875 13.0001 8.875ZM13.0001 5.125C13.2226 5.125 13.4401 5.19098 13.6251 5.3146C13.8101 5.43821 13.9543 5.61392 14.0395 5.81948C14.1246 6.02505 14.1469 6.25125 14.1035 6.46948C14.0601 6.68771 13.953 6.88816 13.7956 7.0455C13.6383 7.20283 13.4378 7.30998 13.2196 7.35338C13.0014 7.39679 12.7752 7.37451 12.5696 7.28937C12.364 7.20422 12.1883 7.06002 12.0647 6.87502C11.9411 6.69001 11.8751 6.47251 11.8751 6.25C11.8751 5.95163 11.9936 5.66548 12.2046 5.45451C12.4156 5.24353 12.7018 5.125 13.0001 5.125Z" fill="#2A2A2A"/>
</svg>
