<svg viewBox="0 0 21 20" fill="none" xmlns="http://www.w3.org/2000/svg">
<g clip-path="url(#clip0_1166_36593)">
<path d="M20.6338 18.5783L15.6597 13.6041C17.0152 11.9463 17.6816 9.83087 17.5212 7.69543C17.3608 5.55999 16.3857 3.5679 14.7976 2.13123C13.2096 0.694554 11.1302 -0.0767949 8.98936 -0.0232684C6.84857 0.0302581 4.81025 0.904564 3.296 2.41881C1.78176 3.93305 0.907455 5.97137 0.853929 8.11216C0.800402 10.253 1.57175 12.3324 3.00843 13.9205C4.4451 15.5085 6.43719 16.4836 8.57263 16.644C10.7081 16.8044 12.8235 16.138 14.4813 14.7825L19.4555 19.7566C19.6127 19.9084 19.8232 19.9924 20.0417 19.9905C20.2602 19.9886 20.4692 19.901 20.6237 19.7465C20.7782 19.592 20.8658 19.383 20.8677 19.1645C20.8696 18.946 20.7856 18.7355 20.6338 18.5783ZM9.21133 15.0008C7.89278 15.0008 6.60385 14.6098 5.50752 13.8773C4.4112 13.1447 3.55671 12.1035 3.05213 10.8854C2.54754 9.66718 2.41552 8.32673 2.67276 7.03353C2.92999 5.74032 3.56493 4.55243 4.49728 3.62008C5.42963 2.68773 6.61752 2.05279 7.91072 1.79556C9.20393 1.53832 10.5444 1.67035 11.7625 2.17493C12.9807 2.67952 14.0219 3.534 14.7545 4.63033C15.487 5.72665 15.878 7.01559 15.878 8.33413C15.876 10.1016 15.173 11.7962 13.9232 13.046C12.6734 14.2958 10.9788 14.9988 9.21133 15.0008Z" fill="none"/>
</g>
<defs>
<clipPath id="clip0_1166_36593">
<rect width="20" height="20" fill="white" transform="translate(0.878174)"/>
</clipPath>
</defs>
</svg>
