<svg viewBox="0 0 21 20" fill="none" xmlns="http://www.w3.org/2000/svg">
<g clip-path="url(#clip0_1166_36599)">
<path d="M1.7115 3.95855H3.9915C4.17036 4.61666 4.56081 5.19763 5.1026 5.61182C5.6444 6.02602 6.30743 6.25043 6.98942 6.25043C7.6714 6.25043 8.33443 6.02602 8.87623 5.61182C9.41802 5.19763 9.80847 4.61666 9.98733 3.95855H20.0448C20.2658 3.95855 20.4778 3.87075 20.6341 3.71447C20.7904 3.55819 20.8782 3.34623 20.8782 3.12522C20.8782 2.9042 20.7904 2.69224 20.6341 2.53596C20.4778 2.37968 20.2658 2.29188 20.0448 2.29188H9.98733C9.80847 1.63377 9.41802 1.0528 8.87623 0.638607C8.33443 0.224409 7.6714 0 6.98942 0C6.30743 0 5.6444 0.224409 5.1026 0.638607C4.56081 1.0528 4.17036 1.63377 3.9915 2.29188H1.7115C1.49049 2.29188 1.27852 2.37968 1.12224 2.53596C0.965964 2.69224 0.878166 2.9042 0.878166 3.12522C0.878166 3.34623 0.965964 3.55819 1.12224 3.71447C1.27852 3.87075 1.49049 3.95855 1.7115 3.95855ZM6.989 1.66688C7.27743 1.66688 7.55938 1.75241 7.79921 1.91266C8.03903 2.0729 8.22595 2.30066 8.33632 2.56714C8.4467 2.83361 8.47558 3.12683 8.41931 3.40972C8.36304 3.69261 8.22415 3.95246 8.0202 4.15641C7.81625 4.36036 7.5564 4.49926 7.27351 4.55553C6.99062 4.6118 6.69739 4.58292 6.43092 4.47254C6.16444 4.36216 5.93668 4.17524 5.77644 3.93542C5.6162 3.6956 5.53067 3.41365 5.53067 3.12522C5.53111 2.73858 5.68489 2.3679 5.95829 2.09451C6.23168 1.82111 6.60236 1.66732 6.989 1.66688Z" fill="none"/>
<path d="M20.0448 9.16574H17.7648C17.5863 8.50748 17.196 7.9263 16.6542 7.51193C16.1125 7.09756 15.4494 6.87305 14.7673 6.87305C14.0853 6.87305 13.4222 7.09756 12.8804 7.51193C12.3387 7.9263 11.9484 8.50748 11.7698 9.16574H1.7115C1.49049 9.16574 1.27853 9.25354 1.12225 9.40982C0.965965 9.5661 0.878168 9.77806 0.878168 9.99907C0.878168 10.2201 0.965965 10.432 1.12225 10.5883C1.27853 10.7446 1.49049 10.8324 1.7115 10.8324H11.7698C11.9484 11.4907 12.3387 12.0718 12.8804 12.4862C13.4222 12.9006 14.0853 13.1251 14.7673 13.1251C15.4494 13.1251 16.1125 12.9006 16.6542 12.4862C17.196 12.0718 17.5863 11.4907 17.7648 10.8324H20.0448C20.2658 10.8324 20.4778 10.7446 20.6341 10.5883C20.7904 10.432 20.8782 10.2201 20.8782 9.99907C20.8782 9.77806 20.7904 9.5661 20.6341 9.40982C20.4778 9.25354 20.2658 9.16574 20.0448 9.16574ZM14.7673 11.4574C14.4789 11.4574 14.1969 11.3719 13.9571 11.2116C13.7173 11.0514 13.5304 10.8236 13.42 10.5571C13.3096 10.2907 13.2808 9.99745 13.337 9.71456C13.3933 9.43167 13.5322 9.17182 13.7361 8.96787C13.9401 8.76392 14.1999 8.62503 14.4828 8.56876C14.7657 8.51249 15.0589 8.54137 15.3254 8.65175C15.5919 8.76213 15.8197 8.94904 15.9799 9.18886C16.1401 9.42869 16.2257 9.71064 16.2257 9.99907C16.2252 10.3857 16.0714 10.7564 15.798 11.0298C15.5246 11.3032 15.154 11.457 14.7673 11.4574Z" fill="none"/>
<path d="M20.0448 16.0419H9.98733C9.80847 15.3838 9.41802 14.8028 8.87623 14.3886C8.33443 13.9744 7.6714 13.75 6.98942 13.75C6.30744 13.75 5.6444 13.9744 5.10261 14.3886C4.56081 14.8028 4.17036 15.3838 3.9915 16.0419H1.7115C1.49049 16.0419 1.27853 16.1297 1.12225 16.286C0.965965 16.4422 0.878168 16.6542 0.878168 16.8752C0.878168 17.0962 0.965965 17.3082 1.12225 17.4645C1.27853 17.6207 1.49049 17.7085 1.7115 17.7085H3.9915C4.17036 18.3666 4.56081 18.9476 5.10261 19.3618C5.6444 19.776 6.30744 20.0004 6.98942 20.0004C7.6714 20.0004 8.33443 19.776 8.87623 19.3618C9.41802 18.9476 9.80847 18.3666 9.98733 17.7085H20.0448C20.2658 17.7085 20.4778 17.6207 20.6341 17.4645C20.7904 17.3082 20.8782 17.0962 20.8782 16.8752C20.8782 16.6542 20.7904 16.4422 20.6341 16.286C20.4778 16.1297 20.2658 16.0419 20.0448 16.0419ZM6.989 18.3335C6.70057 18.3335 6.41862 18.248 6.17879 18.0878C5.93897 17.9275 5.75205 17.6998 5.64168 17.4333C5.5313 17.1668 5.50242 16.8736 5.55869 16.5907C5.61496 16.3078 5.75385 16.048 5.9578 15.844C6.16176 15.6401 6.42161 15.5012 6.70449 15.4449C6.98738 15.3886 7.28061 15.4175 7.54708 15.5279C7.81356 15.6383 8.04132 15.8252 8.20156 16.065C8.3618 16.3048 8.44733 16.5868 8.44733 16.8752C8.44667 17.2618 8.29282 17.6323 8.01947 17.9057C7.74612 18.179 7.37557 18.3329 6.989 18.3335Z" fill="none"/>
</g>
<defs>
<clipPath id="clip0_1166_36599">
<rect width="20" height="20" fill="white" transform="translate(0.878174)"/>
</clipPath>
</defs>
</svg>
