<svg width="17" height="16" viewBox="0 0 17 16" fill="none" xmlns="http://www.w3.org/2000/svg">
<g clip-path="url(#clip0_1166_36616)">
<path d="M6.87817 6.3335C6.87817 6.66313 6.78043 6.98536 6.59729 7.25945C6.41415 7.53353 6.15386 7.74715 5.84931 7.8733C5.54477 7.99944 5.20966 8.03245 4.88636 7.96814C4.56306 7.90383 4.26608 7.7451 4.033 7.51201C3.79991 7.27892 3.64117 6.98195 3.57686 6.65865C3.51256 6.33535 3.54556 6.00023 3.67171 5.69569C3.79785 5.39115 4.01147 5.13085 4.28556 4.94771C4.55964 4.76458 4.88187 4.66683 5.21151 4.66683C5.65353 4.66683 6.07746 4.84242 6.39002 5.15498C6.70258 5.46755 6.87817 5.89147 6.87817 6.3335ZM16.8782 8.00016V6.66683C16.8782 5.95959 16.5972 5.28131 16.0971 4.78121C15.597 4.28111 14.9188 4.00016 14.2115 4.00016H10.8782C10.1709 4.00016 9.49265 4.28111 8.99256 4.78121C8.49246 5.28131 8.21151 5.95959 8.21151 6.66683V8.00016H16.8782ZM2.21151 9.3335V2.00016C2.21151 1.82335 2.14127 1.65378 2.01625 1.52876C1.89122 1.40373 1.72165 1.3335 1.54484 1.3335C1.36803 1.3335 1.19846 1.40373 1.07344 1.52876C0.948412 1.65378 0.878174 1.82335 0.878174 2.00016L0.878174 14.0002C0.878174 14.177 0.948412 14.3465 1.07344 14.4716C1.19846 14.5966 1.36803 14.6668 1.54484 14.6668C1.72165 14.6668 1.89122 14.5966 2.01625 14.4716C2.14127 14.3465 2.21151 14.177 2.21151 14.0002V12.6668H15.5448V14.0002C15.5448 14.177 15.6151 14.3465 15.7401 14.4716C15.8651 14.5966 16.0347 14.6668 16.2115 14.6668C16.3883 14.6668 16.5579 14.5966 16.6829 14.4716C16.8079 14.3465 16.8782 14.177 16.8782 14.0002V9.3335H2.21151Z" fill="#58A1EE"/>
</g>
<defs>
<clipPath id="clip0_1166_36616">
<rect width="16" height="16" fill="white" transform="translate(0.878174)"/>
</clipPath>
</defs>
</svg>
