<svg width="17" height="16" viewBox="0 0 17 16" fill="none" xmlns="http://www.w3.org/2000/svg">
<g clip-path="url(#clip0_1485_13514)">
<path d="M13.5448 4.00016H9.54484C8.93605 4.00239 8.33956 4.17174 7.82042 4.48974C7.30128 4.80774 6.87941 5.26218 6.60084 5.8035C6.20111 5.50002 5.71339 5.33503 5.21151 5.3335C4.59267 5.3335 3.99918 5.57933 3.56159 6.01691C3.12401 6.4545 2.87817 7.04799 2.87817 7.66683C2.88013 8.0135 2.9601 8.35529 3.11217 8.66683H2.21151V2.00016C2.21151 1.82335 2.14127 1.65378 2.01625 1.52876C1.89122 1.40373 1.72165 1.3335 1.54484 1.3335C1.36803 1.3335 1.19846 1.40373 1.07344 1.52876C0.948412 1.65378 0.878174 1.82335 0.878174 2.00016L0.878174 14.0002C0.878174 14.177 0.948412 14.3465 1.07344 14.4716C1.19846 14.5966 1.36803 14.6668 1.54484 14.6668C1.72165 14.6668 1.89122 14.5966 2.01625 14.4716C2.14127 14.3465 2.21151 14.177 2.21151 14.0002V12.6668H15.5448V14.0002C15.5448 14.177 15.6151 14.3465 15.7401 14.4716C15.8651 14.5966 16.0347 14.6668 16.2115 14.6668C16.3883 14.6668 16.5579 14.5966 16.6829 14.4716C16.8079 14.3465 16.8782 14.177 16.8782 14.0002V7.3335C16.8771 6.44977 16.5256 5.60254 15.9007 4.97764C15.2758 4.35275 14.4286 4.00122 13.5448 4.00016ZM7.54484 7.3335C7.54484 6.80306 7.75555 6.29436 8.13063 5.91928C8.5057 5.54421 9.01441 5.3335 9.54484 5.3335H13.5448C14.0753 5.3335 14.584 5.54421 14.9591 5.91928C15.3341 6.29436 15.5448 6.80306 15.5448 7.3335V8.66683H7.54484V7.3335ZM4.21151 7.66683C4.21151 7.46905 4.27016 7.27571 4.38004 7.11126C4.48992 6.94681 4.6461 6.81864 4.82882 6.74295C5.01155 6.66726 5.21262 6.64746 5.4066 6.68604C5.60058 6.72463 5.77876 6.81987 5.91861 6.95972C6.05847 7.09958 6.15371 7.27776 6.19229 7.47174C6.23088 7.66572 6.21107 7.86679 6.13539 8.04951C6.0597 8.23224 5.93153 8.38842 5.76708 8.4983C5.60263 8.60818 5.40929 8.66683 5.21151 8.66683C4.94629 8.66683 4.69194 8.56147 4.5044 8.37394C4.31686 8.1864 4.21151 7.93205 4.21151 7.66683ZM2.21151 11.3335V10.0002H15.5448V11.3335H2.21151Z" fill="white"/>
</g>
<defs>
<clipPath id="clip0_1485_13514">
<rect width="16" height="16" fill="white" transform="translate(0.878174)"/>
</clipPath>
</defs>
</svg>
