<svg width="28" height="29" viewBox="0 0 28 29" fill="none" xmlns="http://www.w3.org/2000/svg">
<path fill-rule="evenodd" clip-rule="evenodd" d="M14 5.75C14.4832 5.75 14.875 6.14175 14.875 6.625V13.625H21.875C22.3582 13.625 22.75 14.0168 22.75 14.5C22.75 14.9832 22.3582 15.375 21.875 15.375H14.875V22.375C14.875 22.8582 14.4832 23.25 14 23.25C13.5168 23.25 13.125 22.8582 13.125 22.375V15.375H6.125C5.64175 15.375 5.25 14.9832 5.25 14.5C5.25 14.0168 5.64175 13.625 6.125 13.625H13.125V6.625C13.125 6.14175 13.5168 5.75 14 5.75Z" fill="white"/>
</svg>
