<svg width="21" height="20" viewBox="0 0 21 20" fill="none" xmlns="http://www.w3.org/2000/svg">
<g clip-path="url(#clip0_1394_12099)">
<path d="M10.8781 11.55H10.8782C11.6297 11.55 12.3644 11.3271 12.9893 10.9096C13.6142 10.492 14.1013 9.89856 14.3889 9.2042C14.6765 8.50984 14.7518 7.74579 14.6052 7.00866C14.4585 6.27153 14.0966 5.59444 13.5652 5.063C13.0337 4.53156 12.3566 4.16964 11.6195 4.02302C10.8824 3.87639 10.1183 3.95165 9.42398 4.23926C8.72962 4.52687 8.13614 5.01393 7.71859 5.63883C7.30104 6.26374 7.07817 6.99843 7.07817 7.75L7.07817 7.75005C7.07918 8.75755 7.47985 9.7235 8.19226 10.4359C8.90468 11.1483 9.87062 11.549 10.8781 11.55ZM10.8782 5.3C11.3627 5.3 11.8364 5.44369 12.2393 5.7129C12.6422 5.98211 12.9562 6.36475 13.1417 6.81243C13.3271 7.26011 13.3756 7.75272 13.2811 8.22797C13.1866 8.70323 12.9532 9.13977 12.6106 9.48241C12.2679 9.82505 11.8314 10.0584 11.3561 10.1529C10.8809 10.2475 10.3883 10.1989 9.9406 10.0135C9.49292 9.82807 9.11028 9.51405 8.84107 9.11115C8.57186 8.70825 8.42817 8.23457 8.42817 7.75C8.42817 7.10022 8.6863 6.47705 9.14576 6.01759C9.60523 5.55813 10.2284 5.3 10.8782 5.3Z" fill="#2A2A2A" stroke="#2A2A2A" stroke-width="0.1"/>
<path d="M10.8782 12.5005C9.08857 12.5025 7.37284 13.2143 6.1074 14.4797C4.84196 15.7452 4.13016 17.4609 4.12817 19.2505C4.12817 19.4494 4.20719 19.6402 4.34784 19.7808C4.4885 19.9215 4.67926 20.0005 4.87817 20.0005C5.07709 20.0005 5.26785 19.9215 5.4085 19.7808C5.54916 19.6402 5.62817 19.4494 5.62817 19.2505C5.62817 17.8581 6.1813 16.5227 7.16586 15.5382C8.15043 14.5536 9.48579 14.0005 10.8782 14.0005C12.2706 14.0005 13.6059 14.5536 14.5905 15.5382C15.5751 16.5227 16.1282 17.8581 16.1282 19.2505C16.1282 19.4494 16.2072 19.6402 16.3478 19.7808C16.4885 19.9215 16.6793 20.0005 16.8782 20.0005C17.0771 20.0005 17.2679 19.9215 17.4085 19.7808C17.5492 19.6402 17.6282 19.4494 17.6282 19.2505C17.6262 17.4609 16.9144 15.7452 15.649 14.4797C14.3835 13.2143 12.6678 12.5025 10.8782 12.5005Z" fill="#2A2A2A"/>
</g>
<rect x="1.62817" y="0.75" width="18.5" height="18.5" rx="9.25" stroke="#2A2A2A" stroke-width="1.5"/>
<defs>
<clipPath id="clip0_1394_12099">
<rect x="0.878174" width="20" height="20" rx="10" fill="white"/>
</clipPath>
</defs>
</svg>
