<svg width="21" height="20" viewBox="0 0 21 20" fill="none" xmlns="http://www.w3.org/2000/svg">
<path d="M10.8782 4.83301C11.7066 4.83301 12.3782 4.16143 12.3782 3.33301C12.3782 2.50458 11.7066 1.83301 10.8782 1.83301C10.0497 1.83301 9.37817 2.50458 9.37817 3.33301C9.37817 4.16143 10.0497 4.83301 10.8782 4.83301Z" fill="#2A2A2A"/>
<path d="M10.8782 11.5C11.7066 11.5 12.3782 10.8284 12.3782 10C12.3782 9.17157 11.7066 8.5 10.8782 8.5C10.0497 8.5 9.37817 9.17157 9.37817 10C9.37817 10.8284 10.0497 11.5 10.8782 11.5Z" fill="#2A2A2A"/>
<path d="M10.8782 18.1665C11.7066 18.1665 12.3782 17.4949 12.3782 16.6665C12.3782 15.8381 11.7066 15.1665 10.8782 15.1665C10.0497 15.1665 9.37817 15.8381 9.37817 16.6665C9.37817 17.4949 10.0497 18.1665 10.8782 18.1665Z" fill="#2A2A2A"/>
</svg>
