<svg width="20" height="20" viewBox="0 0 20 20" fill="none" xmlns="http://www.w3.org/2000/svg">
<path d="M13 1H7.00002C6.00584 1.00119 5.05271 1.39666 4.34971 2.09965C3.64672 2.80265 3.25125 3.75577 3.25006 4.74996V18.2498C3.25017 18.3862 3.28748 18.52 3.35797 18.6368C3.42847 18.7536 3.52948 18.849 3.65014 18.9126C3.77079 18.9762 3.90652 19.0058 4.04271 18.998C4.17891 18.9903 4.3104 18.9455 4.42305 18.8686L6.00253 17.7893L7.58202 18.8686C7.70681 18.954 7.85452 18.9997 8.00576 18.9997C8.15701 18.9997 8.30472 18.954 8.42951 18.8686L10.0045 17.7893L11.5795 18.8686C11.7043 18.9542 11.8522 19 12.0036 19C12.155 19 12.3028 18.9542 12.4277 18.8686L14.0027 17.7901L15.5777 18.8678C15.6903 18.9445 15.8216 18.9891 15.9576 18.9968C16.0936 19.0045 16.2292 18.975 16.3497 18.9114C16.4702 18.8479 16.5711 18.7527 16.6416 18.6362C16.7122 18.5196 16.7496 18.386 16.7499 18.2498V4.74996C16.7487 3.75577 16.3533 2.80265 15.6503 2.09965C14.9473 1.39666 13.9941 1.00119 13 1V1ZM15.2499 16.8248L14.4249 16.2608C14.3 16.1751 14.152 16.1291 14.0004 16.1291C13.8489 16.1291 13.7009 16.1751 13.576 16.2608L12.001 17.3401L10.426 16.2608C10.3011 16.1752 10.1533 16.1294 10.0019 16.1294C9.85047 16.1294 9.70261 16.1752 9.57774 16.2608L8.00276 17.3401L6.42778 16.2608C6.30306 16.1755 6.1555 16.1299 6.00441 16.1299C5.85332 16.1299 5.70575 16.1755 5.58104 16.2608L4.75005 16.8248V4.74996C4.75005 4.15323 4.9871 3.58094 5.40905 3.15899C5.831 2.73703 6.40329 2.49998 7.00002 2.49998H13C13.5967 2.49998 14.169 2.73703 14.5909 3.15899C15.0129 3.58094 15.2499 4.15323 15.2499 4.74996V16.8248Z" fill="#2A2A2A"/>
<path d="M12.9998 7.00049H6.9999C6.58569 7.00049 6.24991 7.33627 6.24991 7.75048C6.24991 8.16469 6.58569 8.50047 6.9999 8.50047H12.9998C13.414 8.50047 13.7498 8.16469 13.7498 7.75048C13.7498 7.33627 13.414 7.00049 12.9998 7.00049Z" fill="#2A2A2A"/>
<path d="M11.4998 10H6.9999C6.58569 10 6.24991 10.3358 6.24991 10.75C6.24991 11.1642 6.58569 11.5 6.9999 11.5H11.4998C11.9141 11.5 12.2498 11.1642 12.2498 10.75C12.2498 10.3358 11.9141 10 11.4998 10Z" fill="#2A2A2A"/>
</svg>
