<svg width="23" height="22" viewBox="0 0 23 22" fill="none" xmlns="http://www.w3.org/2000/svg">
<path d="M17.4375 20.1248L17.436 20.1248C17.3904 20.1249 17.3463 20.1084 17.312 20.0784C17.3118 20.0782 17.3117 20.078 17.3115 20.0779L11.5822 14.9836L11.25 14.6881L10.9178 14.9836L5.18707 20.0792C5.18705 20.0792 5.18703 20.0792 5.18702 20.0792C5.15998 20.1032 5.12657 20.1189 5.09082 20.1244C5.05505 20.1299 5.01846 20.1249 4.98547 20.11C4.95248 20.0951 4.92449 20.071 4.90489 20.0406C4.88529 20.0102 4.87491 19.9747 4.875 19.9386V19.9373V4.12504C4.87572 3.52845 5.11303 2.9565 5.53489 2.53464C5.95675 2.11279 6.5287 1.87548 7.12529 1.87476H15.3747C15.9713 1.87548 16.5433 2.11279 16.9651 2.53464C17.387 2.95656 17.6244 3.52862 17.625 4.1253V19.9373C17.625 19.987 17.6052 20.0347 17.5701 20.0698C17.5349 20.105 17.4872 20.1248 17.4375 20.1248Z" fill="white" stroke="#007AFF"/>
</svg>
