<svg width="23" height="22" viewBox="0 0 23 22" fill="none" xmlns="http://www.w3.org/2000/svg">
<path d="M17.4375 20.6248C17.2694 20.6252 17.1069 20.5641 16.9807 20.4529L11.25 15.3572L5.51926 20.4529C5.42009 20.541 5.29752 20.5986 5.16636 20.6187C5.03519 20.6387 4.90103 20.6204 4.78005 20.5658C4.65908 20.5113 4.55646 20.423 4.48459 20.3114C4.41272 20.1999 4.37466 20.0699 4.375 19.9373V4.12476C4.3758 3.39565 4.66579 2.69664 5.18134 2.18109C5.69689 1.66554 6.3959 1.37555 7.125 1.37476H15.375C16.1041 1.37555 16.8031 1.66554 17.3187 2.18109C17.8342 2.69664 18.1242 3.39565 18.125 4.12476V19.9373C18.125 20.1196 18.0526 20.2945 17.9236 20.4234C17.7947 20.5523 17.6198 20.6248 17.4375 20.6248Z" fill="#007AFF"/>
</svg>
