<svg width="20" height="21" viewBox="0 0 20 21" fill="none" xmlns="http://www.w3.org/2000/svg">
<rect width="20" height="21" fill="#F5F5F5"/>
<g id="Icons">
<g id="Contatiner">
<path d="M-70.1218 -471H1469.88V557C1469.88 579.091 1451.97 597 1429.88 597H-30.1218C-52.2132 597 -70.1218 579.091 -70.1218 557V-471Z" fill="#FCFCFC"/>
<g id="Icon/menu-edit">
<rect x="-19.5" y="-58.8125" width="339" height="179" rx="4.5" stroke="#9747FF" stroke-dasharray="10 5"/>
<g id="Property 1=calculator, Property 2=stroke, size=m" clip-path="url(#clip0_173_7436)">
<path id="Vector" d="M15.0001 20.6875H5.00006C3.89539 20.6862 2.83635 20.2468 2.05524 19.4657C1.27412 18.6845 0.834712 17.6255 0.833389 16.5208V4.85417C0.834712 3.7495 1.27412 2.69046 2.05524 1.90935C2.83635 1.12823 3.89539 0.688823 5.00006 0.6875L15.0001 0.6875C16.1047 0.688823 17.1638 1.12823 17.9449 1.90935C18.726 2.69046 19.1654 3.7495 19.1667 4.85417V16.5208C19.1654 17.6255 18.726 18.6845 17.9449 19.4657C17.1638 20.2468 16.1047 20.6862 15.0001 20.6875ZM5.00006 2.35417C4.33701 2.35417 3.70113 2.61756 3.23229 3.0864C2.76345 3.55524 2.50006 4.19113 2.50006 4.85417V16.5208C2.50006 17.1839 2.76345 17.8198 3.23229 18.2886C3.70113 18.7574 4.33701 19.0208 5.00006 19.0208H15.0001C15.6631 19.0208 16.299 18.7574 16.7678 18.2886C17.2367 17.8198 17.5001 17.1839 17.5001 16.5208V4.85417C17.5001 4.19113 17.2367 3.55524 16.7678 3.0864C16.299 2.61756 15.6631 2.35417 15.0001 2.35417H5.00006ZM13.3334 9.02083H6.66672C6.00368 9.02083 5.3678 8.75744 4.89896 8.2886C4.43011 7.81976 4.16672 7.18387 4.16672 6.52083C4.16672 5.85779 4.43011 5.22191 4.89896 4.75307C5.3678 4.28423 6.00368 4.02083 6.66672 4.02083H13.3334C13.9964 4.02083 14.6323 4.28423 15.1012 4.75307C15.57 5.22191 15.8334 5.85779 15.8334 6.52083C15.8334 7.18387 15.57 7.81976 15.1012 8.2886C14.6323 8.75744 13.9964 9.02083 13.3334 9.02083ZM6.66672 5.6875C6.44571 5.6875 6.23375 5.7753 6.07747 5.93158C5.92119 6.08786 5.83339 6.29982 5.83339 6.52083C5.83339 6.74185 5.92119 6.95381 6.07747 7.11009C6.23375 7.26637 6.44571 7.35417 6.66672 7.35417H13.3334C13.5544 7.35417 13.7664 7.26637 13.9226 7.11009C14.0789 6.95381 14.1667 6.74185 14.1667 6.52083C14.1667 6.29982 14.0789 6.08786 13.9226 5.93158C13.7664 5.7753 13.5544 5.6875 13.3334 5.6875H6.66672ZM5.00006 11.5208C4.83524 11.5208 4.67412 11.5697 4.53708 11.6613C4.40004 11.7528 4.29323 11.883 4.23016 12.0353C4.16708 12.1875 4.15058 12.3551 4.18273 12.5167C4.21489 12.6784 4.29426 12.8269 4.4108 12.9434C4.52734 13.06 4.67583 13.1393 4.83748 13.1715C4.99913 13.2036 5.16669 13.1871 5.31896 13.1241C5.47123 13.061 5.60138 12.9542 5.69295 12.8171C5.78451 12.6801 5.83339 12.519 5.83339 12.3542C5.83339 12.1332 5.74559 11.9212 5.58931 11.7649C5.43303 11.6086 5.22107 11.5208 5.00006 11.5208ZM8.33339 11.5208C8.16857 11.5208 8.00745 11.5697 7.87041 11.6613C7.73337 11.7528 7.62656 11.883 7.56349 12.0353C7.50042 12.1875 7.48391 12.3551 7.51607 12.5167C7.54822 12.6784 7.62759 12.8269 7.74413 12.9434C7.86068 13.06 8.00916 13.1393 8.17081 13.1715C8.33246 13.2036 8.50002 13.1871 8.65229 13.1241C8.80456 13.061 8.93471 12.9542 9.02628 12.8171C9.11785 12.6801 9.16672 12.519 9.16672 12.3542C9.16672 12.1332 9.07892 11.9212 8.92264 11.7649C8.76636 11.6086 8.5544 11.5208 8.33339 11.5208ZM11.6667 11.5208C11.5019 11.5208 11.3408 11.5697 11.2037 11.6613C11.0667 11.7528 10.9599 11.883 10.8968 12.0353C10.8337 12.1875 10.8172 12.3551 10.8494 12.5167C10.8816 12.6784 10.9609 12.8269 11.0775 12.9434C11.194 13.06 11.3425 13.1393 11.5041 13.1715C11.6658 13.2036 11.8334 13.1871 11.9856 13.1241C12.1379 13.061 12.268 12.9542 12.3596 12.8171C12.4512 12.6801 12.5001 12.519 12.5001 12.3542C12.5001 12.1332 12.4123 11.9212 12.256 11.7649C12.0997 11.6086 11.8877 11.5208 11.6667 11.5208ZM5.00006 14.8542C4.83524 14.8542 4.67412 14.903 4.53708 14.9946C4.40004 15.0862 4.29323 15.2163 4.23016 15.3686C4.16708 15.5209 4.15058 15.6884 4.18273 15.8501C4.21489 16.0117 4.29426 16.1602 4.4108 16.2768C4.52734 16.3933 4.67583 16.4727 4.83748 16.5048C4.99913 16.537 5.16669 16.5205 5.31896 16.4574C5.47123 16.3943 5.60138 16.2875 5.69295 16.1505C5.78451 16.0134 5.83339 15.8523 5.83339 15.6875C5.83339 15.4665 5.74559 15.2545 5.58931 15.0982C5.43303 14.942 5.22107 14.8542 5.00006 14.8542ZM8.33339 14.8542C8.16857 14.8542 8.00745 14.903 7.87041 14.9946C7.73337 15.0862 7.62656 15.2163 7.56349 15.3686C7.50042 15.5209 7.48391 15.6884 7.51607 15.8501C7.54822 16.0117 7.62759 16.1602 7.74413 16.2768C7.86068 16.3933 8.00916 16.4727 8.17081 16.5048C8.33246 16.537 8.50002 16.5205 8.65229 16.4574C8.80456 16.3943 8.93471 16.2875 9.02628 16.1505C9.11785 16.0134 9.16672 15.8523 9.16672 15.6875C9.16672 15.4665 9.07892 15.2545 8.92264 15.0982C8.76636 14.942 8.5544 14.8542 8.33339 14.8542ZM15.0001 11.5208C14.8352 11.5208 14.6741 11.5697 14.5371 11.6613C14.4 11.7528 14.2932 11.883 14.2302 12.0353C14.1671 12.1875 14.1506 12.3551 14.1827 12.5167C14.2149 12.6784 14.2943 12.8269 14.4108 12.9434C14.5273 13.06 14.6758 13.1393 14.8375 13.1715C14.9991 13.2036 15.1667 13.1871 15.319 13.1241C15.4712 13.061 15.6014 12.9542 15.6929 12.8171C15.7845 12.6801 15.8334 12.519 15.8334 12.3542C15.8334 12.1332 15.7456 11.9212 15.5893 11.7649C15.433 11.6086 15.2211 11.5208 15.0001 11.5208ZM15.8334 15.6875C15.8334 15.4665 15.7456 15.2545 15.5893 15.0982C15.433 14.942 15.2211 14.8542 15.0001 14.8542H11.6667C11.4457 14.8542 11.2337 14.942 11.0775 15.0982C10.9212 15.2545 10.8334 15.4665 10.8334 15.6875C10.8334 15.9085 10.9212 16.1205 11.0775 16.2768C11.2337 16.433 11.4457 16.5208 11.6667 16.5208H15.0001C15.2211 16.5208 15.433 16.433 15.5893 16.2768C15.7456 16.1205 15.8334 15.9085 15.8334 15.6875Z" fill="#2A2A2A"/>
</g>
</g>
</g>
</g>
<defs>
<clipPath id="clip0_173_7436">
<rect width="20" height="20" fill="white" transform="translate(0 0.6875)"/>
</clipPath>
</defs>
</svg>
