<svg width="21" height="20" viewBox="0 0 21 20" fill="none" xmlns="http://www.w3.org/2000/svg">
<path d="M11.8125 10.0002C12.3303 10.0002 12.75 9.58051 12.75 9.06274C12.75 8.54498 12.3303 8.12524 11.8125 8.12524C11.2947 8.12524 10.875 8.54498 10.875 9.06274C10.875 9.58051 11.2947 10.0002 11.8125 10.0002Z" fill="white"/>
<path d="M14.9375 10.0002C15.4553 10.0002 15.875 9.58051 15.875 9.06274C15.875 8.54498 15.4553 8.12524 14.9375 8.12524C14.4197 8.12524 14 8.54498 14 9.06274C14 9.58051 14.4197 10.0002 14.9375 10.0002Z" fill="white"/>
<path d="M11.8125 13.1252C12.3303 13.1252 12.75 12.7055 12.75 12.1877C12.75 11.67 12.3303 11.2502 11.8125 11.2502C11.2947 11.2502 10.875 11.67 10.875 12.1877C10.875 12.7055 11.2947 13.1252 11.8125 13.1252Z" fill="white"/>
<path d="M14.9375 13.1252C15.4553 13.1252 15.875 12.7055 15.875 12.1877C15.875 11.67 15.4553 11.2502 14.9375 11.2502C14.4197 11.2502 14 11.67 14 12.1877C14 12.7055 14.4197 13.1252 14.9375 13.1252Z" fill="white"/>
<path d="M5.5625 13.1252C6.08027 13.1252 6.5 12.7055 6.5 12.1877C6.5 11.67 6.08027 11.2502 5.5625 11.2502C5.04473 11.2502 4.625 11.67 4.625 12.1877C4.625 12.7055 5.04473 13.1252 5.5625 13.1252Z" fill="white"/>
<path d="M8.6875 13.1252C9.20527 13.1252 9.625 12.7055 9.625 12.1877C9.625 11.67 9.20527 11.2502 8.6875 11.2502C8.16973 11.2502 7.75 11.67 7.75 12.1877C7.75 12.7055 8.16973 13.1252 8.6875 13.1252Z" fill="white"/>
<path d="M5.5625 16.2502C6.08027 16.2502 6.5 15.8305 6.5 15.3127C6.5 14.795 6.08027 14.3752 5.5625 14.3752C5.04473 14.3752 4.625 14.795 4.625 15.3127C4.625 15.8305 5.04473 16.2502 5.5625 16.2502Z" fill="white"/>
<path d="M8.6875 16.2502C9.20527 16.2502 9.625 15.8305 9.625 15.3127C9.625 14.795 9.20527 14.3752 8.6875 14.3752C8.16973 14.3752 7.75 14.795 7.75 15.3127C7.75 15.8305 8.16973 16.2502 8.6875 16.2502Z" fill="white"/>
<path d="M11.8125 16.2502C12.3303 16.2502 12.75 15.8305 12.75 15.3127C12.75 14.795 12.3303 14.3752 11.8125 14.3752C11.2947 14.3752 10.875 14.795 10.875 15.3127C10.875 15.8305 11.2947 16.2502 11.8125 16.2502Z" fill="white"/>
<path fill-rule="evenodd" clip-rule="evenodd" d="M5.875 1.87524C5.875 1.53007 5.59518 1.25024 5.25 1.25024C4.90482 1.25024 4.625 1.53007 4.625 1.87524V2.50024H4C2.61929 2.50024 1.5 3.61953 1.5 5.00024V16.2502C1.5 17.631 2.61929 18.7502 4 18.7502H16.5C17.8807 18.7502 19 17.631 19 16.2502V5.00024C19 3.61953 17.8807 2.50024 16.5 2.50024H15.875V1.87524C15.875 1.53007 15.5952 1.25024 15.25 1.25024C14.9048 1.25024 14.625 1.53007 14.625 1.87524V2.50024H5.875V1.87524ZM16.5 3.75024C17.1904 3.75024 17.75 4.30989 17.75 5.00024V5.62524H2.75V5.00024C2.75 4.30989 3.30964 3.75024 4 3.75024H16.5ZM2.75 6.87524V16.2502C2.75 16.9406 3.30964 17.5002 4 17.5002H16.5C17.1904 17.5002 17.75 16.9406 17.75 16.2502V6.87524H2.75Z" fill="white"/>
</svg>
