<svg width="20" height="20" viewBox="0 0 20 20" fill="none" xmlns="http://www.w3.org/2000/svg">
<path d="M14.6667 3.33333H14V2.66667C14 2.48986 13.9298 2.32029 13.8047 2.19526C13.6797 2.07024 13.5101 2 13.3333 2C13.1565 2 12.987 2.07024 12.8619 2.19526C12.7369 2.32029 12.6667 2.48986 12.6667 2.66667V3.33333H7.33333V2.66667C7.33333 2.48986 7.2631 2.32029 7.13807 2.19526C7.01305 2.07024 6.84348 2 6.66667 2C6.48986 2 6.32029 2.07024 6.19526 2.19526C6.07024 2.32029 6 2.48986 6 2.66667V3.33333H5.33333C4.4496 3.33439 3.60237 3.68592 2.97748 4.31081C2.35259 4.93571 2.00106 5.78294 2 6.66667L2 14.6667C2.00106 15.5504 2.35259 16.3976 2.97748 17.0225C3.60237 17.6474 4.4496 17.9989 5.33333 18H14.6667C15.5504 17.9989 16.3976 17.6474 17.0225 17.0225C17.6474 16.3976 17.9989 15.5504 18 14.6667V6.66667C17.9989 5.78294 17.6474 4.93571 17.0225 4.31081C16.3976 3.68592 15.5504 3.33439 14.6667 3.33333ZM3.33333 6.66667C3.33333 6.13623 3.54405 5.62753 3.91912 5.25245C4.29419 4.87738 4.8029 4.66667 5.33333 4.66667H14.6667C15.1971 4.66667 15.7058 4.87738 16.0809 5.25245C16.456 5.62753 16.6667 6.13623 16.6667 6.66667V7.33333H3.33333V6.66667ZM14.6667 16.6667H5.33333C4.8029 16.6667 4.29419 16.456 3.91912 16.0809C3.54405 15.7058 3.33333 15.1971 3.33333 14.6667V8.66667H16.6667V14.6667C16.6667 15.1971 16.456 15.7058 16.0809 16.0809C15.7058 16.456 15.1971 16.6667 14.6667 16.6667Z" fill="white"/>
<path d="M10 13C10.5523 13 11 12.5523 11 12C11 11.4477 10.5523 11 10 11C9.44772 11 9 11.4477 9 12C9 12.5523 9.44772 13 10 13Z" fill="white"/>
<path d="M6.66602 13C7.2183 13 7.66602 12.5523 7.66602 12C7.66602 11.4477 7.2183 11 6.66602 11C6.11373 11 5.66602 11.4477 5.66602 12C5.66602 12.5523 6.11373 13 6.66602 13Z" fill="white"/>
<path d="M13.334 13C13.8863 13 14.334 12.5523 14.334 12C14.334 11.4477 13.8863 11 13.334 11C12.7817 11 12.334 11.4477 12.334 12C12.334 12.5523 12.7817 13 13.334 13Z" fill="white"/>
</svg>
