<svg width="20" height="20" viewBox="0 0 20 20" fill="none" xmlns="http://www.w3.org/2000/svg">
<path d="M15.7571 11.9194C15.3722 11.5531 14.861 11.3492 14.3297 11.35C13.7983 11.3507 13.2877 11.5561 12.9038 11.9234L11.6331 12.9941C10.596 12.5649 9.65384 11.935 8.86077 11.1407C8.06771 10.3464 7.43936 9.40323 7.01181 8.3654L8.07848 7.09873C8.44484 6.71406 8.64952 6.20341 8.65026 5.6722C8.65101 5.14098 8.44776 4.62976 8.08248 4.24407C8.08248 4.24407 6.84781 2.64207 6.82715 2.6214C6.44678 2.23856 5.93107 2.02075 5.39143 2.01501C4.8518 2.00927 4.33157 2.21607 3.94315 2.59073L3.17648 3.2574C-1.96952 8.73073 11.3098 22.0161 16.7765 16.7907L17.3845 16.0907C17.7706 15.7033 17.9874 15.1787 17.9874 14.6317C17.9874 14.0848 17.7706 13.5601 17.3845 13.1727C17.3625 13.1547 15.7571 11.9194 15.7571 11.9194Z" stroke="#2A2A2A" stroke-width="1.6"/>
</svg>
