<svg width="20" height="20" viewBox="0 0 20 20" fill="none" xmlns="http://www.w3.org/2000/svg">
<path d="M15.7566 11.9192C15.3717 11.5529 14.8605 11.349 14.3291 11.3497C13.7978 11.3505 13.2872 11.5558 12.9033 11.9232L11.6326 12.9938C10.5954 12.5646 9.65329 11.9348 8.86022 11.1405C8.06716 10.3461 7.43882 9.40299 7.01127 8.36515L8.07793 7.09849C8.44429 6.71382 8.64897 6.20317 8.64971 5.67195C8.65046 5.14074 8.44721 4.62952 8.08193 4.24382C8.08193 4.24382 6.84727 2.64182 6.8266 2.62115C6.44623 2.23832 5.93052 2.0205 5.39088 2.01476C4.85125 2.00903 4.33102 2.21583 3.9426 2.59049L3.17593 3.25715C-1.97007 8.73049 11.3093 22.0158 16.7759 16.7905L17.3839 16.0905C17.7701 15.7031 17.9869 15.1784 17.9869 14.6315C17.9869 14.0845 17.7701 13.5599 17.3839 13.1725C17.3619 13.1545 15.7566 11.9192 15.7566 11.9192Z" stroke="#2A2A2A" stroke-width="1.6"/>
</svg>
