<svg width="21" height="20" viewBox="0 0 21 20" fill="none" xmlns="http://www.w3.org/2000/svg">
<g id="Icon/Bars">
<path id="Union" fill-rule="evenodd" clip-rule="evenodd" d="M19.1865 2.77661C19.5184 2.44467 19.5184 1.90648 19.1865 1.57453C18.8545 1.24258 18.3163 1.24258 17.9844 1.57453L10.7612 8.79767L3.53858 1.575C3.20663 1.24306 2.66844 1.24306 2.3365 1.575C2.00455 1.90695 2.00455 2.44514 2.3365 2.77709L9.55916 9.99975L2.33649 17.2224C2.00455 17.5544 2.00455 18.0926 2.33649 18.4245C2.66844 18.7564 3.20663 18.7564 3.53858 18.4245L10.7612 11.2018L17.9844 18.425C18.3163 18.7569 18.8545 18.7569 19.1865 18.425C19.5184 18.093 19.5184 17.5548 19.1865 17.2229L11.9633 9.99975L19.1865 2.77661Z" fill="black"/>
</g>
</svg>
