<svg width="21" height="21" viewBox="0 0 21 21" fill="none" xmlns="http://www.w3.org/2000/svg">
<g clip-path="url(#clip0_785_20351)">
<path d="M1.14164 10.9864C1.16581 10.9089 1.17664 10.828 1.20414 10.7514L3.45247 4.5622C3.74608 3.75912 4.27911 3.0655 4.97954 2.57505C5.67998 2.0846 6.51407 1.82094 7.36914 1.8197H14.3691C15.2243 1.82088 16.0586 2.08461 16.759 2.57524C17.4595 3.06587 17.9924 3.75973 18.2858 4.56304L20.5358 10.7514C20.5633 10.828 20.5741 10.9089 20.5983 10.9864H1.14164ZM17.5358 12.653V14.3197C17.5358 14.5407 17.448 14.7527 17.2917 14.909C17.1355 15.0652 16.9235 15.153 16.7025 15.153C16.4815 15.153 16.2695 15.0652 16.1132 14.909C15.9569 14.7527 15.8691 14.5407 15.8691 14.3197V12.653H5.86914V14.3197C5.86914 14.5407 5.78134 14.7527 5.62506 14.909C5.46878 15.0652 5.25682 15.153 5.03581 15.153C4.81479 15.153 4.60283 15.0652 4.44655 14.909C4.29027 14.7527 4.20247 14.5407 4.20247 14.3197V12.653H0.869141V14.3197C0.870206 15.1295 1.10723 15.9215 1.55122 16.5987C1.99522 17.2759 2.62694 17.8091 3.36914 18.133V19.3197C3.36914 19.7617 3.54474 20.1857 3.8573 20.4982C4.16986 20.8108 4.59378 20.9864 5.03581 20.9864C5.47783 20.9864 5.90176 20.8108 6.21432 20.4982C6.52688 20.1857 6.70247 19.7617 6.70247 19.3197V18.4864H15.0358V19.3197C15.0358 19.7617 15.2114 20.1857 15.524 20.4982C15.8365 20.8108 16.2604 20.9864 16.7025 20.9864C17.1445 20.9864 17.5684 20.8108 17.881 20.4982C18.1935 20.1857 18.3691 19.7617 18.3691 19.3197V18.133C19.1113 17.8091 19.7431 17.2759 20.1871 16.5987C20.6311 15.9215 20.8681 15.1295 20.8691 14.3197V12.653H17.5358Z" fill="white"/>
</g>
<defs>
<clipPath id="clip0_785_20351">
<rect width="20" height="20" fill="white" transform="translate(0.869141 0.986328)"/>
</clipPath>
</defs>
</svg>
