<svg width="25" height="25" viewBox="0 0 25 25" fill="none" xmlns="http://www.w3.org/2000/svg">
<g clip-path="url(#clip0_173_7397)">
<path d="M6.43738 17.4721C7.26581 17.4721 7.93738 16.8006 7.93738 15.9721C7.93738 15.1437 7.26581 14.4721 6.43738 14.4721C5.60895 14.4721 4.93738 15.1437 4.93738 15.9721C4.93738 16.8006 5.60895 17.4721 6.43738 17.4721Z" fill="#A2A2A2"/>
<path d="M21.9375 3.47198H3.9375C3.14185 3.47198 2.37879 3.78806 1.81618 4.35066C1.25357 4.91327 0.9375 5.67634 0.9375 6.47198L0.9375 21.472H24.9375V6.47198C24.9375 5.67634 24.6214 4.91327 24.0588 4.35066C23.4962 3.78806 22.7331 3.47198 21.9375 3.47198ZM3.9375 5.47198H21.9375C22.2027 5.47198 22.4571 5.57734 22.6446 5.76488C22.8321 5.95241 22.9375 6.20677 22.9375 6.47198V8.47198H2.9375V6.47198C2.9375 6.20677 3.04286 5.95241 3.23039 5.76488C3.41793 5.57734 3.67228 5.47198 3.9375 5.47198ZM2.9375 19.472V10.472H22.9375V19.472H2.9375Z" fill="#A2A2A2"/>
</g>
<defs>
<clipPath id="clip0_173_7397">
<rect width="24" height="24" fill="white" transform="translate(0.9375 0.471985)"/>
</clipPath>
</defs>
</svg>
