<svg width="25" height="25" viewBox="0 0 25 25" fill="none" xmlns="http://www.w3.org/2000/svg">
<path fill-rule="evenodd" clip-rule="evenodd" d="M23.113 6.42166C23.4247 6.69442 23.4563 7.16825 23.1836 7.47997L12.6836 19.48C12.5469 19.6362 12.3516 19.7288 12.1441 19.7357C11.9366 19.7426 11.7356 19.6632 11.5888 19.5164L7.08881 15.0164C6.79592 14.7235 6.79592 14.2487 7.08881 13.9558C7.3817 13.6629 7.85658 13.6629 8.14947 13.9558L12.0826 17.8889L22.0547 6.49222C22.3275 6.18049 22.8013 6.1489 23.113 6.42166Z" fill="white"/>
<path fill-rule="evenodd" clip-rule="evenodd" d="M2.58881 13.9558C2.8817 13.6629 3.35658 13.6629 3.64947 13.9558L8.14947 18.4558C8.44236 18.7487 8.44236 19.2235 8.14947 19.5164C7.85658 19.8093 7.3817 19.8093 7.08881 19.5164L2.58881 15.0164C2.29592 14.7235 2.29592 14.2487 2.58881 13.9558Z" fill="white"/>
<path fill-rule="evenodd" clip-rule="evenodd" d="M18.612 6.42077C18.9242 6.69296 18.9567 7.16672 18.6845 7.47895L12.3095 14.7914C12.0373 15.1037 11.5635 15.1361 11.2513 14.8639C10.9391 14.5917 10.9066 14.118 11.1788 13.8057L17.5538 6.49324C17.826 6.18102 18.2998 6.14857 18.612 6.42077Z" fill="white"/>
</svg>
