<svg width="16" height="16" viewBox="0 0 16 16" fill="none" xmlns="http://www.w3.org/2000/svg">
<path d="M12.438 0.620374L4.31 8.74837C3.99956 9.05714 3.75345 9.42441 3.58592 9.82894C3.41839 10.2335 3.33276 10.6672 3.334 11.105V12.0004C3.334 12.1772 3.40424 12.3468 3.52926 12.4718C3.65428 12.5968 3.82385 12.667 4.00066 12.667H4.896C5.33384 12.6683 5.76758 12.5827 6.1721 12.4151C6.57663 12.2476 6.9439 12.0015 7.25266 11.691L15.3807 3.56304C15.7703 3.17249 15.9891 2.64336 15.9891 2.09171C15.9891 1.54006 15.7703 1.01093 15.3807 0.620374C14.9844 0.241636 14.4574 0.0302734 13.9093 0.0302734C13.3612 0.0302734 12.8342 0.241636 12.438 0.620374ZM14.438 2.62037L6.31 10.7484C5.93408 11.122 5.426 11.3323 4.896 11.3337H4.66733V11.105C4.66872 10.575 4.87904 10.067 5.25266 9.69104L13.3807 1.56304C13.5231 1.42701 13.7124 1.3511 13.9093 1.3511C14.1063 1.3511 14.2956 1.42701 14.438 1.56304C14.578 1.70338 14.6566 1.8935 14.6566 2.09171C14.6566 2.28991 14.578 2.48003 14.438 2.62037Z" fill="#C4E00B"/>
<path d="M15.3333 5.986C15.1565 5.986 14.987 6.05624 14.8619 6.18126C14.7369 6.30629 14.6667 6.47586 14.6667 6.65267V10H12C11.4696 10 10.9609 10.2107 10.5858 10.5858C10.2107 10.9609 10 11.4696 10 12V14.6667H3.33333C2.8029 14.6667 2.29419 14.456 1.91912 14.0809C1.54405 13.7058 1.33333 13.1971 1.33333 12.6667V3.33333C1.33333 2.8029 1.54405 2.29419 1.91912 1.91912C2.29419 1.54405 2.8029 1.33333 3.33333 1.33333H9.36133C9.53815 1.33333 9.70771 1.2631 9.83274 1.13807C9.95776 1.01305 10.028 0.843478 10.028 0.666667C10.028 0.489856 9.95776 0.320286 9.83274 0.195262C9.70771 0.0702379 9.53815 0 9.36133 0L3.33333 0C2.4496 0.00105857 1.60237 0.352588 0.97748 0.97748C0.352588 1.60237 0.00105857 2.4496 0 3.33333L0 12.6667C0.00105857 13.5504 0.352588 14.3976 0.97748 15.0225C1.60237 15.6474 2.4496 15.9989 3.33333 16H10.8953C11.3333 16.0013 11.7671 15.9156 12.1718 15.7481C12.5764 15.5806 12.9438 15.3345 13.2527 15.024L15.0233 13.252C15.3338 12.9432 15.58 12.576 15.7477 12.1715C15.9153 11.767 16.0011 11.3332 16 10.8953V6.65267C16 6.47586 15.9298 6.30629 15.8047 6.18126C15.6797 6.05624 15.5101 5.986 15.3333 5.986ZM12.31 14.0813C12.042 14.3487 11.7031 14.5337 11.3333 14.6147V12C11.3333 11.8232 11.4036 11.6536 11.5286 11.5286C11.6536 11.4036 11.8232 11.3333 12 11.3333H14.6167C14.5342 11.7023 14.3493 12.0406 14.0833 12.3093L12.31 14.0813Z" fill="#C4E00B"/>
</svg>
