<svg width="18" height="18" viewBox="0 0 18 18" fill="none" xmlns="http://www.w3.org/2000/svg">
<g id="Frame 1707482417">
<path id="Vector" d="M17.2025 0.79797C16.6908 0.286996 15.9972 0 15.274 0C14.5508 0 13.8572 0.286996 13.3454 0.79797L1.10256 13.0408C0.751961 13.3894 0.473976 13.8041 0.284685 14.2609C0.095393 14.7176 -0.00144703 15.2074 -0.000232863 15.7018V17.2472C-0.000232863 17.4469 0.0790753 17.6383 0.220245 17.7795C0.361414 17.9207 0.552881 18 0.752525 18H2.29794C2.79232 18.0014 3.28207 17.9047 3.73883 17.7155C4.19559 17.5264 4.6103 17.2485 4.95893 16.8979L17.2025 4.65435C17.7133 4.14262 18.0001 3.44916 18.0001 2.72616C18.0001 2.00316 17.7133 1.3097 17.2025 0.79797ZM3.89453 15.8335C3.46998 16.2553 2.89635 16.4927 2.29794 16.4945H1.50528V15.7018C1.50452 15.4052 1.56261 15.1113 1.67619 14.8372C1.78976 14.5632 1.95657 14.3144 2.16696 14.1052L11.4582 4.81393L13.1896 6.54527L3.89453 15.8335ZM16.1374 3.58995L14.251 5.47711L12.5196 3.74953L14.4068 1.86237C14.5205 1.74894 14.6554 1.659 14.8038 1.59771C14.9523 1.53641 15.1113 1.50495 15.2719 1.50513C15.4325 1.5053 15.5915 1.53711 15.7398 1.59873C15.8881 1.66034 16.0228 1.75057 16.1363 1.86425C16.2497 1.97793 16.3396 2.11284 16.4009 2.26128C16.4622 2.40972 16.4937 2.56878 16.4935 2.72937C16.4933 2.88997 16.4615 3.04895 16.3999 3.19726C16.3383 3.34556 16.2481 3.48028 16.1344 3.59371L16.1374 3.58995Z" fill="#2A2A2A"/>
</g>
</svg>
