<svg width="20" height="21" viewBox="0 0 20 21" fill="none" xmlns="http://www.w3.org/2000/svg">
<path d="M10 12.8613C11.0355 12.8613 11.875 12.0219 11.875 10.9863C11.875 9.95079 11.0355 9.11133 10 9.11133C8.96447 9.11133 8.125 9.95079 8.125 10.9863C8.125 12.0219 8.96447 12.8613 10 12.8613Z" fill="#fff"/>
<path d="M10 19.1113C11.0355 19.1113 11.875 18.2719 11.875 17.2363C11.875 16.2008 11.0355 15.3613 10 15.3613C8.96447 15.3613 8.125 16.2008 8.125 17.2363C8.125 18.2719 8.96447 19.1113 10 19.1113Z" fill="#fff"/>
<path d="M10 6.61133C11.0355 6.61133 11.875 5.77186 11.875 4.73633C11.875 3.70079 11.0355 2.86133 10 2.86133C8.96447 2.86133 8.125 3.70079 8.125 4.73633C8.125 5.77186 8.96447 6.61133 10 6.61133Z" fill="#fff"/>
</svg>
