<svg width="21" height="21" viewBox="0 0 21 21" fill="none" xmlns="http://www.w3.org/2000/svg">
<g clip-path="url(#clip0_785_20346)">
<path d="M3.24337 20.6113C3.69841 20.8058 4.2015 20.8586 4.687 20.7629C5.1725 20.6671 5.61788 20.4273 5.96504 20.0747L10.8692 15.1972L15.7734 20.0747C16.002 20.3067 16.2744 20.491 16.5748 20.617C16.8752 20.7431 17.1976 20.8082 17.5234 20.8088C17.8582 20.8079 18.1896 20.7407 18.4984 20.6113C18.9571 20.4257 19.3492 20.106 19.6235 19.6941C19.8978 19.2821 20.0415 18.797 20.0359 18.3022V5.15299C20.0345 4.04833 19.5951 2.98929 18.814 2.20818C18.0329 1.42706 16.9739 0.987651 15.8692 0.986328L5.8692 0.986328C4.76454 0.987651 3.7055 1.42706 2.92439 2.20818C2.14327 2.98929 1.70386 4.04833 1.70254 5.15299V18.3022C1.69716 18.7974 1.84135 19.2828 2.11626 19.6948C2.39116 20.1067 2.78399 20.4262 3.24337 20.6113Z" fill="white"/>
</g>
<defs>
<clipPath id="clip0_785_20346">
<rect width="20" height="20" fill="white" transform="translate(0.869141 0.986328)"/>
</clipPath>
</defs>
</svg>
