<svg width="21" height="21" viewBox="0 0 21 21" fill="none" xmlns="http://www.w3.org/2000/svg">
<path fill-rule="evenodd" clip-rule="evenodd" d="M11.7282 2.66738C11.7282 2.19794 11.3476 1.81738 10.8782 1.81738C10.4088 1.81738 10.0282 2.19794 10.0282 2.66738V9.81738H2.8782C2.40876 9.81738 2.0282 10.1979 2.0282 10.6674C2.0282 11.1368 2.40876 11.5174 2.8782 11.5174H10.0282V18.6674C10.0282 19.1368 10.4088 19.5174 10.8782 19.5174C11.3476 19.5174 11.7282 19.1368 11.7282 18.6674V11.5174H18.8782C19.3476 11.5174 19.7282 11.1368 19.7282 10.6674C19.7282 10.1979 19.3476 9.81738 18.8782 9.81738H11.7282V2.66738Z" fill="black"/>
</svg>
