<svg width="20" height="20" viewBox="0 0 20 20" fill="none" xmlns="http://www.w3.org/2000/svg">
<g clip-path="url(#clip0_1415_26583)">
<path d="M2.37417 19.6255C2.82921 19.82 3.33229 19.8728 3.8178 19.777C4.3033 19.6813 4.74868 19.4415 5.09584 19.0888L10 14.2113L14.9042 19.0888C15.1328 19.3208 15.4052 19.5052 15.7056 19.6312C16.006 19.7572 16.3284 19.8224 16.6542 19.823C16.989 19.822 17.3204 19.7549 17.6292 19.6255C18.0879 19.4398 18.48 19.1202 18.7543 18.7082C19.0286 18.2963 19.1723 17.8112 19.1667 17.3163V4.16715C19.1653 3.06249 18.7259 2.00345 17.9448 1.22234C17.1637 0.441223 16.1047 0.0018115 15 0.000488281L5 0.000488281C3.89534 0.0018115 2.8363 0.441223 2.05519 1.22234C1.27407 2.00345 0.834659 3.06249 0.833336 4.16715V17.3163C0.827958 17.8116 0.97215 18.2969 1.24706 18.7089C1.52196 19.1209 1.91479 19.4404 2.37417 19.6255Z" fill="#2A2A2A"/>
</g>
<defs>
<clipPath id="clip0_1415_26583">
<rect width="20" height="20" fill="white" transform="translate(0 0.000488281)"/>
</clipPath>
</defs>
</svg>
