<svg width="20" height="20" viewBox="0 0 20 20" fill="none" xmlns="http://www.w3.org/2000/svg">
<g clip-path="url(#clip0_1394_1448)">
<path d="M0 15.834C0.00132321 16.9386 0.440735 17.9977 1.22185 18.7788C2.00296 19.5599 3.062 19.9993 4.16667 20.0007H15.8333C16.938 19.9993 17.997 19.5599 18.7782 18.7788C19.5593 17.9977 19.9987 16.9386 20 15.834V8.33398H0V15.834ZM14.1667 12.084C14.4139 12.084 14.6556 12.1573 14.8611 12.2946C15.0667 12.432 15.2269 12.6272 15.3215 12.8556C15.4161 13.084 15.4409 13.3354 15.3926 13.5778C15.3444 13.8203 15.2254 14.0431 15.0505 14.2179C14.8757 14.3927 14.653 14.5117 14.4105 14.56C14.1681 14.6082 13.9167 14.5834 13.6883 14.4888C13.4599 14.3942 13.2647 14.234 13.1273 14.0284C12.99 13.8229 12.9167 13.5812 12.9167 13.334C12.9167 13.0025 13.0484 12.6845 13.2828 12.4501C13.5172 12.2157 13.8351 12.084 14.1667 12.084ZM10 12.084C10.2472 12.084 10.4889 12.1573 10.6945 12.2946C10.9 12.432 11.0602 12.6272 11.1548 12.8556C11.2495 13.084 11.2742 13.3354 11.226 13.5778C11.1777 13.8203 11.0587 14.0431 10.8839 14.2179C10.7091 14.3927 10.4863 14.5117 10.2439 14.56C10.0014 14.6082 9.75005 14.5834 9.52165 14.4888C9.29324 14.3942 9.09801 14.234 8.96066 14.0284C8.82331 13.8229 8.75 13.5812 8.75 13.334C8.75 13.0025 8.8817 12.6845 9.11612 12.4501C9.35054 12.2157 9.66848 12.084 10 12.084ZM5.83333 12.084C6.08056 12.084 6.32223 12.1573 6.5278 12.2946C6.73336 12.432 6.89357 12.6272 6.98818 12.8556C7.08279 13.084 7.10755 13.3354 7.05931 13.5778C7.01108 13.8203 6.89203 14.0431 6.71722 14.2179C6.5424 14.3927 6.31967 14.5117 6.0772 14.56C5.83472 14.6082 5.58339 14.5834 5.35498 14.4888C5.12657 14.3942 4.93135 14.234 4.794 14.0284C4.65664 13.8229 4.58333 13.5812 4.58333 13.334C4.58333 13.0025 4.71503 12.6845 4.94945 12.4501C5.18387 12.2157 5.50181 12.084 5.83333 12.084Z" fill="#2A2A2A"/>
<path d="M15.8333 1.66715H15V0.833822C15 0.612808 14.9122 0.400846 14.7559 0.244566C14.5996 0.0882857 14.3877 0.000488281 14.1667 0.000488281C13.9457 0.000488281 13.7337 0.0882857 13.5774 0.244566C13.4211 0.400846 13.3333 0.612808 13.3333 0.833822V1.66715H6.66667V0.833822C6.66667 0.612808 6.57887 0.400846 6.42259 0.244566C6.26631 0.0882857 6.05435 0.000488281 5.83333 0.000488281C5.61232 0.000488281 5.40036 0.0882857 5.24408 0.244566C5.0878 0.400846 5 0.612808 5 0.833822V1.66715H4.16667C3.062 1.66848 2.00296 2.10789 1.22185 2.889C0.440735 3.67012 0.00132321 4.72916 0 5.83382L0 6.66715H20V5.83382C19.9987 4.72916 19.5593 3.67012 18.7782 2.889C17.997 2.10789 16.938 1.66848 15.8333 1.66715Z" fill="#2A2A2A"/>
</g>
<defs>
<clipPath id="clip0_1394_1448">
<rect width="20" height="20" fill="white" transform="translate(0 0.000488281)"/>
</clipPath>
</defs>
</svg>
