<svg width="20" height="20" viewBox="0 0 20 20" fill="none" xmlns="http://www.w3.org/2000/svg">
<path d="M10 5.50073C9.40666 5.50073 8.82664 5.67668 8.33329 6.00632C7.83994 6.33597 7.45543 6.8045 7.22836 7.35268C7.0013 7.90086 6.94189 8.50406 7.05765 9.086C7.1734 9.66795 7.45912 10.2025 7.87868 10.6221C8.29824 11.0416 8.83279 11.3273 9.41473 11.4431C9.99667 11.5588 10.5999 11.4994 11.1481 11.2724C11.6962 11.0453 12.1648 10.6608 12.4944 10.1674C12.8241 9.6741 13 9.09408 13 8.50073C13 7.70508 12.6839 6.94202 12.1213 6.37941C11.5587 5.8168 10.7957 5.50073 10 5.50073ZM10 10.0007C9.70333 10.0007 9.41332 9.91276 9.16665 9.74794C8.91997 9.58312 8.72771 9.34885 8.61418 9.07476C8.50065 8.80067 8.47095 8.49907 8.52882 8.2081C8.5867 7.91713 8.72956 7.64985 8.93934 7.44007C9.14912 7.23029 9.41639 7.08743 9.70737 7.02955C9.99834 6.97168 10.2999 7.00138 10.574 7.11491C10.8481 7.22844 11.0824 7.4207 11.2472 7.66738C11.412 7.91405 11.5 8.20406 11.5 8.50073C11.5 8.89856 11.342 9.28009 11.0607 9.56139C10.7794 9.8427 10.3978 10.0007 10 10.0007Z" fill="#2A2A2A"/>
<path d="M10.0002 19.0008C9.36869 19.004 8.74557 18.8559 8.18303 18.5688C7.6205 18.2817 7.13493 17.8641 6.76698 17.3508C3.90873 13.408 2.45898 10.444 2.45898 8.54052C2.45898 6.54045 3.25351 4.62231 4.66777 3.20805C6.08202 1.79379 8.00017 0.999268 10.0002 0.999268C12.0003 0.999268 13.9184 1.79379 15.3327 3.20805C16.747 4.62231 17.5415 6.54045 17.5415 8.54052C17.5415 10.444 16.0917 13.408 13.2335 17.3508C12.8655 17.8641 12.38 18.2817 11.8174 18.5688C11.2549 18.8559 10.6318 19.004 10.0002 19.0008ZM10.0002 2.63652C8.43455 2.6383 6.9335 3.26106 5.82639 4.36817C4.71928 5.47528 4.09652 6.97633 4.09473 8.54202C4.09473 10.0495 5.51448 12.8373 8.09148 16.3915C8.31026 16.6929 8.59726 16.9381 8.92902 17.1072C9.26078 17.2763 9.62786 17.3645 10.0002 17.3645C10.3726 17.3645 10.7397 17.2763 11.0714 17.1072C11.4032 16.9381 11.6902 16.6929 11.909 16.3915C14.486 12.8373 15.9057 10.0495 15.9057 8.54202C15.9039 6.97633 15.2812 5.47528 14.1741 4.36817C13.067 3.26106 11.5659 2.6383 10.0002 2.63652Z" fill="#2A2A2A"/>
</svg>
