<svg width="25" height="25" viewBox="0 0 25 25" fill="none" xmlns="http://www.w3.org/2000/svg">
<path d="M12.8691 11.4863C13.6976 11.4863 14.3691 10.8148 14.3691 9.98633C14.3691 9.1579 13.6976 8.48633 12.8691 8.48633C12.0407 8.48633 11.3691 9.1579 11.3691 9.98633C11.3691 10.8148 12.0407 11.4863 12.8691 11.4863Z" fill="white"/>
<path d="M12.8691 2.48633C8.73383 2.48633 5.36914 5.7043 5.36914 9.6582C5.36914 11.5412 6.22742 14.0452 7.92008 17.101C9.27945 19.5545 10.8521 21.773 11.6701 22.877C11.8083 23.0656 11.989 23.219 12.1976 23.3247C12.4062 23.4304 12.6367 23.4855 12.8705 23.4855C13.1044 23.4855 13.3349 23.4304 13.5435 23.3247C13.7521 23.219 13.9328 23.0656 14.071 22.877C14.8876 21.773 16.4616 19.5545 17.821 17.101C19.5109 14.0462 20.3691 11.5421 20.3691 9.6582C20.3691 5.7043 17.0045 2.48633 12.8691 2.48633ZM12.8691 12.9863C12.2758 12.9863 11.6958 12.8104 11.2024 12.4807C10.7091 12.1511 10.3246 11.6826 10.0975 11.1344C9.87044 10.5862 9.81103 9.983 9.92678 9.40106C10.0425 8.81911 10.3283 8.28457 10.7478 7.86501C11.1674 7.44545 11.7019 7.15973 12.2839 7.04397C12.8658 6.92822 13.469 6.98763 14.0172 7.21469C14.5654 7.44175 15.0339 7.82627 15.3635 8.31962C15.6932 8.81297 15.8691 9.39298 15.8691 9.98633C15.8683 10.7817 15.5519 11.5443 14.9895 12.1067C14.4271 12.6691 13.6645 12.9855 12.8691 12.9863Z" fill="white"/>
</svg>
