<svg width="17" height="17" viewBox="0 0 17 17" fill="none" xmlns="http://www.w3.org/2000/svg">
<path d="M8.13086 7.98633C8.68314 7.98633 9.13086 7.53861 9.13086 6.98633C9.13086 6.43404 8.68314 5.98633 8.13086 5.98633C7.57857 5.98633 7.13086 6.43404 7.13086 6.98633C7.13086 7.53861 7.57857 7.98633 8.13086 7.98633Z" fill="#828282"/>
<path d="M8.13086 1.98633C5.37398 1.98633 3.13086 4.13164 3.13086 6.76758C3.13086 8.02289 3.70305 9.69227 4.83148 11.7295C5.73773 13.3651 6.78617 14.8441 7.33148 15.5801C7.42363 15.7058 7.54411 15.8081 7.68316 15.8786C7.8222 15.9491 7.9759 15.9858 8.1318 15.9858C8.28769 15.9858 8.44139 15.9491 8.58044 15.8786C8.71948 15.8081 8.83996 15.7058 8.93211 15.5801C9.47648 14.8441 10.5259 13.3651 11.4321 11.7295C12.5587 9.69289 13.1309 8.02352 13.1309 6.76758C13.1309 4.13164 10.8877 1.98633 8.13086 1.98633ZM8.13086 8.98633C7.7353 8.98633 7.34862 8.86903 7.01972 8.64927C6.69082 8.42951 6.43448 8.11715 6.2831 7.7517C6.13172 7.38624 6.09212 6.98411 6.16929 6.59615C6.24646 6.20819 6.43694 5.85182 6.71665 5.57211C6.99635 5.29241 7.35272 5.10193 7.74068 5.02476C8.12864 4.94759 8.53077 4.98719 8.89623 5.13857C9.26168 5.28994 9.57404 5.54629 9.7938 5.87519C10.0136 6.20409 10.1309 6.59077 10.1309 6.98633C10.1303 7.51658 9.91938 8.02496 9.54443 8.3999C9.16949 8.77485 8.66111 8.98575 8.13086 8.98633Z" fill="#828282"/>
</svg>
