<svg width="25" height="25" viewBox="0 0 25 25" fill="none" xmlns="http://www.w3.org/2000/svg">
<path fill-rule="evenodd" clip-rule="evenodd" d="M7.6875 3.97198C7.28968 3.97198 6.90814 4.13002 6.62684 4.41132C6.34554 4.69263 6.1875 5.07416 6.1875 5.47198V20.472C6.1875 20.8698 6.34554 21.2513 6.62684 21.5326C6.90814 21.8139 7.28968 21.972 7.6875 21.972H18.1875C18.5853 21.972 18.9669 21.8139 19.2482 21.5326C19.5295 21.2513 19.6875 20.8698 19.6875 20.472V11.472H14.4375C13.8408 11.472 13.2685 11.2349 12.8465 10.813C12.4246 10.391 12.1875 9.81872 12.1875 9.22198V3.97198H7.6875ZM13.6875 5.03265L18.6268 9.97198H14.4375C14.2386 9.97198 14.0478 9.89297 13.9072 9.75231C13.7665 9.61166 13.6875 9.4209 13.6875 9.22198V5.03265ZM5.56618 3.35066C6.12879 2.78806 6.89185 2.47198 7.6875 2.47198H12.3165C12.913 2.47207 13.4851 2.70905 13.907 3.13081L13.907 3.13087L20.5287 9.7525C20.9504 10.1744 21.1874 10.7464 21.1875 11.343V20.472C21.1875 21.2676 20.8714 22.0307 20.3088 22.5933C19.7462 23.1559 18.9831 23.472 18.1875 23.472H7.6875C6.89185 23.472 6.12879 23.1559 5.56618 22.5933C5.00357 22.0307 4.6875 21.2676 4.6875 20.472V5.47198C4.6875 4.67634 5.00357 3.91327 5.56618 3.35066Z" fill="#828282"/>
</svg>
