<svg width="20" height="20" viewBox="0 0 20 20" fill="none" xmlns="http://www.w3.org/2000/svg">
<path d="M11.1252 5.87546C11.1252 6.17383 11.0067 6.45998 10.7957 6.67096C10.5847 6.88193 10.2986 7.00046 10.0002 7.00046C9.70186 7.00046 9.41571 6.88193 9.20473 6.67096C8.99375 6.45998 8.87522 6.17383 8.87522 5.87546C8.87522 5.57709 8.99375 5.29094 9.20473 5.07996C9.41571 4.86899 9.70186 4.75046 10.0002 4.75046C10.2986 4.75046 10.5847 4.86899 10.7957 5.07996C11.0067 5.29094 11.1252 5.57709 11.1252 5.87546ZM19.0002 15.2505V10.2555C19.0282 7.94355 18.1806 5.70663 16.6275 3.99384C15.0744 2.28105 12.9308 1.21919 10.6272 1.02146C9.34146 0.931502 8.05137 1.11876 6.84425 1.57057C5.63713 2.02238 4.54113 2.7282 3.63041 3.64027C2.71969 4.55234 2.0155 5.64938 1.56548 6.85718C1.11546 8.06497 0.93011 9.35533 1.02197 10.641C1.35347 15.4065 5.56172 19.0005 10.8125 19.0005H15.2502C16.2444 18.9993 17.1976 18.6038 17.9006 17.9008C18.6036 17.1978 18.999 16.2447 19.0002 15.2505ZM10.5252 2.51846C12.4501 2.68874 14.2392 3.58114 15.533 5.01638C16.8269 6.45161 17.5297 8.32333 17.5002 10.2555V15.2505C17.5002 15.8472 17.2632 16.4195 16.8412 16.8415C16.4193 17.2634 15.847 17.5005 15.2502 17.5005H10.8125C6.28697 17.5005 2.80022 14.5755 2.51897 10.5375C2.44514 9.5089 2.5842 8.47616 2.92749 7.50376C3.27077 6.53136 3.81089 5.64021 4.5141 4.88596C5.21732 4.13172 6.06852 3.53059 7.01452 3.12015C7.96053 2.7097 8.98102 2.49874 10.0122 2.50046C10.1825 2.50046 10.3542 2.50721 10.5252 2.51846ZM11.5002 14.5005V10.0005C11.5002 9.60264 11.3422 9.22111 11.0609 8.9398C10.7796 8.6585 10.398 8.50046 10.0002 8.50046H9.25022C9.05131 8.50046 8.86055 8.57948 8.71989 8.72013C8.57924 8.86078 8.50022 9.05155 8.50022 9.25046C8.50022 9.44937 8.57924 9.64014 8.71989 9.78079C8.86055 9.92144 9.05131 10.0005 9.25022 10.0005H10.0002V14.5005C10.0002 14.6994 10.0792 14.8901 10.2199 15.0308C10.3605 15.1714 10.5513 15.2505 10.7502 15.2505C10.9491 15.2505 11.1399 15.1714 11.2806 15.0308C11.4212 14.8901 11.5002 14.6994 11.5002 14.5005Z" fill="#2A2A2A"/>
</svg>
