<svg width="21" height="21" viewBox="0 0 21 21" fill="none" xmlns="http://www.w3.org/2000/svg">
<path d="M11.75 10.9863C13.8121 10.9863 15.634 9.04453 15.8125 6.65742C15.9012 5.4582 15.525 4.33984 14.7531 3.50898C13.9895 2.68828 12.9219 2.23633 11.75 2.23633C10.5688 2.23633 9.50039 2.68555 8.74219 3.50117C7.97539 4.32578 7.60156 5.44648 7.6875 6.65664C7.86289 9.04414 9.68437 10.9863 11.75 10.9863Z" fill="#1F1F1F"/>
<path d="M19.8508 18.1645C19.5211 16.3355 18.4918 14.7992 16.8746 13.7211C15.4383 12.7637 13.6184 12.2363 11.75 12.2363C9.88164 12.2363 8.06172 12.7637 6.62539 13.7207C5.0082 14.7988 3.97891 16.3352 3.64922 18.1641C3.57383 18.5832 3.67617 18.9977 3.93008 19.3012C4.04524 19.4395 4.18984 19.5503 4.35332 19.6256C4.5168 19.7009 4.69503 19.7387 4.875 19.7363H18.625C18.8051 19.7389 18.9834 19.7012 19.1471 19.626C19.3107 19.5507 19.4554 19.4399 19.5707 19.3016C19.8238 18.998 19.9262 18.5836 19.8508 18.1645Z" fill="#1F1F1F"/>
<path d="M4.5625 12.2363V10.6738H6.125C6.29076 10.6738 6.44973 10.608 6.56694 10.4908C6.68415 10.3736 6.75 10.2146 6.75 10.0488C6.75 9.88307 6.68415 9.7241 6.56694 9.60689C6.44973 9.48968 6.29076 9.42383 6.125 9.42383H4.5625V7.86133C4.5625 7.69557 4.49665 7.5366 4.37944 7.41939C4.26223 7.30218 4.10326 7.23633 3.9375 7.23633C3.77174 7.23633 3.61277 7.30218 3.49556 7.41939C3.37835 7.5366 3.3125 7.69557 3.3125 7.86133V9.42383H1.75C1.58424 9.42383 1.42527 9.48968 1.30806 9.60689C1.19085 9.7241 1.125 9.88307 1.125 10.0488C1.125 10.2146 1.19085 10.3736 1.30806 10.4908C1.42527 10.608 1.58424 10.6738 1.75 10.6738H3.3125V12.2363C3.3125 12.4021 3.37835 12.5611 3.49556 12.6783C3.61277 12.7955 3.77174 12.8613 3.9375 12.8613C4.10326 12.8613 4.26223 12.7955 4.37944 12.6783C4.49665 12.5611 4.5625 12.4021 4.5625 12.2363Z" fill="#1F1F1F"/>
</svg>
