<svg width="17" height="16" viewBox="0 0 17 16" fill="none" xmlns="http://www.w3.org/2000/svg">
<g clip-path="url(#clip0_1166_36606)">
<path d="M16.8782 15.3334C16.8782 15.5102 16.808 15.6798 16.6829 15.8048C16.5579 15.9298 16.3883 16 16.2115 16H1.54486C1.36805 16 1.19848 15.9298 1.07346 15.8048C0.948433 15.6798 0.878195 15.5102 0.878195 15.3334C0.878195 15.1566 0.948433 14.987 1.07346 14.862C1.19848 14.7369 1.36805 14.6667 1.54486 14.6667H16.2115C16.3883 14.6667 16.5579 14.7369 16.6829 14.862C16.808 14.987 16.8782 15.1566 16.8782 15.3334ZM1.0722 5.70137C0.928544 5.43492 0.861992 5.13371 0.880009 4.83154C0.898026 4.52937 0.999899 4.2382 1.1742 3.9907C1.45903 3.57278 1.84049 3.22974 2.2862 2.9907L7.28686 0.388037C7.77837 0.132457 8.32421 -0.000976563 8.8782 -0.000976562C9.43218 -0.000976563 9.97802 0.132457 10.4695 0.388037L15.4695 2.9927C15.9152 3.23174 16.2967 3.57478 16.5815 3.9927C16.7558 4.2402 16.8577 4.53137 16.8757 4.83354C16.8937 5.13571 16.8272 5.43692 16.6835 5.70337C16.5289 5.99592 16.2969 6.24044 16.0129 6.4103C15.7289 6.58015 15.4038 6.66884 15.0729 6.6667H14.8782V12H15.5449C15.7217 12 15.8912 12.0703 16.0163 12.1953C16.1413 12.3203 16.2115 12.4899 16.2115 12.6667C16.2115 12.8435 16.1413 13.0131 16.0163 13.1381C15.8912 13.2631 15.7217 13.3334 15.5449 13.3334H2.21153C2.03472 13.3334 1.86515 13.2631 1.74012 13.1381C1.6151 13.0131 1.54486 12.8435 1.54486 12.6667C1.54486 12.4899 1.6151 12.3203 1.74012 12.1953C1.86515 12.0703 2.03472 12 2.21153 12H2.8782V6.6667H2.68353C2.3523 6.66877 2.02687 6.57984 1.74272 6.40961C1.45858 6.23939 1.22663 5.9944 1.0722 5.70137ZM4.21153 12H6.21153V6.6667H4.21153V12ZM7.54486 6.6667V12H10.2115V6.6667H7.54486ZM13.5449 6.6667H11.5449V12H13.5449V6.6667ZM2.25353 5.08337C2.29536 5.16049 2.3576 5.22461 2.43345 5.26871C2.5093 5.3128 2.59581 5.33517 2.68353 5.33337H15.0729C15.1606 5.33517 15.2471 5.3128 15.3229 5.26871C15.3988 5.22461 15.461 5.16049 15.5029 5.08337C15.5333 5.03241 15.5481 4.97359 15.5452 4.91429C15.5424 4.85498 15.5221 4.79784 15.4869 4.75004C15.3253 4.50998 15.1083 4.3124 14.8542 4.17404L9.8542 1.56937C9.55287 1.41299 9.21835 1.33135 8.87886 1.33135C8.53937 1.33135 8.20486 1.41299 7.90353 1.56937L2.90353 4.17404C2.64952 4.31284 2.43255 4.51061 2.27086 4.7507C2.23559 4.79831 2.21513 4.85526 2.21205 4.91442C2.20896 4.97359 2.22339 5.03236 2.25353 5.08337Z" fill="#2A2A2A"/>
</g>
<defs>
<clipPath id="clip0_1166_36606">
<rect width="16" height="16" fill="white" transform="translate(0.878174)"/>
</clipPath>
</defs>
</svg>
