<svg width="17" height="17" viewBox="0 0 17 17" fill="none" xmlns="http://www.w3.org/2000/svg">
<g id="fi-rr-bank" clip-path="url(#clip0_1055_20636)">
<path id="Vector" d="M16.1534 15.8334C16.1534 16.0102 16.0832 16.1798 15.9582 16.3048C15.8331 16.4298 15.6636 16.5 15.4868 16.5H0.820085C0.643274 16.5 0.473705 16.4298 0.34868 16.3048C0.223656 16.1798 0.153418 16.0102 0.153418 15.8334C0.153418 15.6566 0.223656 15.487 0.34868 15.362C0.473705 15.2369 0.643274 15.1667 0.820085 15.1667H15.4868C15.6636 15.1667 15.8331 15.2369 15.9582 15.362C16.0832 15.487 16.1534 15.6566 16.1534 15.8334ZM0.347418 6.20137C0.203766 5.93492 0.137215 5.63371 0.155232 5.33154C0.173249 5.02937 0.275122 4.7382 0.449418 4.4907C0.734257 4.07278 1.11571 3.72974 1.56142 3.4907L6.56209 0.888037C7.05359 0.632457 7.59943 0.499023 8.15342 0.499023C8.70741 0.499023 9.25324 0.632457 9.74475 0.888037L14.7448 3.4927C15.1905 3.73174 15.5719 4.07478 15.8568 4.4927C16.031 4.7402 16.1329 5.03137 16.1509 5.33354C16.169 5.63571 16.1024 5.93692 15.9588 6.20337C15.8041 6.49592 15.5721 6.74044 15.2881 6.9103C15.0041 7.08015 14.679 7.16884 14.3481 7.1667H14.1534V12.5H14.8201C14.9969 12.5 15.1665 12.5703 15.2915 12.6953C15.4165 12.8203 15.4868 12.9899 15.4868 13.1667C15.4868 13.3435 15.4165 13.5131 15.2915 13.6381C15.1665 13.7631 14.9969 13.8334 14.8201 13.8334H1.48675C1.30994 13.8334 1.14037 13.7631 1.01535 13.6381C0.890323 13.5131 0.820085 13.3435 0.820085 13.1667C0.820085 12.9899 0.890323 12.8203 1.01535 12.6953C1.14037 12.5703 1.30994 12.5 1.48675 12.5H2.15342V7.1667H1.95875C1.62752 7.16877 1.30209 7.07984 1.01794 6.90961C0.733799 6.73939 0.501857 6.4944 0.347418 6.20137ZM3.48675 12.5H5.48675V7.1667H3.48675V12.5ZM6.82009 7.1667V12.5H9.48675V7.1667H6.82009ZM12.8201 7.1667H10.8201V12.5H12.8201V7.1667ZM1.52875 5.58337C1.57058 5.66049 1.63283 5.72461 1.70867 5.76871C1.78452 5.8128 1.87104 5.83517 1.95875 5.83337H14.3481C14.4358 5.83517 14.5223 5.8128 14.5982 5.76871C14.674 5.72461 14.7363 5.66049 14.7781 5.58337C14.8086 5.53241 14.8233 5.47359 14.8204 5.41429C14.8176 5.35498 14.7973 5.29784 14.7621 5.25004C14.6006 5.00998 14.3835 4.8124 14.1294 4.67404L9.12942 2.06937C8.82809 1.91299 8.49358 1.83135 8.15409 1.83135C7.81459 1.83135 7.48008 1.91299 7.17875 2.06937L2.17875 4.67404C1.92474 4.81284 1.70777 5.01061 1.54608 5.2507C1.51081 5.29831 1.49035 5.35526 1.48727 5.41442C1.48419 5.47359 1.49862 5.53236 1.52875 5.58337Z" fill="white"/>
</g>
<defs>
<clipPath id="clip0_1055_20636">
<rect width="16" height="16" fill="white" transform="translate(0.154297 0.5)"/>
</clipPath>
</defs>
</svg>
