<svg width="17" height="16" viewBox="0 0 17 16" fill="none" xmlns="http://www.w3.org/2000/svg">
<g clip-path="url(#clip0_1166_36614)">
<path d="M1.0722 5.70137C0.928544 5.43492 0.861992 5.13371 0.880009 4.83154C0.898026 4.52937 0.999899 4.2382 1.1742 3.9907C1.45903 3.57278 1.84049 3.22974 2.2862 2.9907L7.28686 0.388037C7.77837 0.132458 8.32421 -0.000976563 8.8782 -0.000976562C9.43218 -0.000976563 9.97802 0.132458 10.4695 0.388037L15.4695 2.9927C15.9152 3.23174 16.2967 3.57478 16.5815 3.9927C16.7558 4.2402 16.8577 4.53137 16.8757 4.83354C16.8937 5.13571 16.8272 5.43692 16.6835 5.70337C16.5289 5.99592 16.2969 6.24044 16.0129 6.4103C15.7289 6.58015 15.4038 6.66884 15.0729 6.66671H2.68353C2.3523 6.66877 2.02687 6.57984 1.74272 6.40962C1.45858 6.23939 1.22663 5.9944 1.0722 5.70137ZM16.2115 14.6667C16.2115 14.3131 16.0711 13.9739 15.821 13.7239C15.571 13.4738 15.2318 13.3334 14.8782 13.3334V8.00004H13.5449V13.3334H11.5449V8.00004H10.2115V13.3334H7.54486V8.00004H6.21153V13.3334H4.21153V8.00004H2.8782V13.3334C2.52457 13.3334 2.18543 13.4738 1.93539 13.7239C1.68534 13.9739 1.54486 14.3131 1.54486 14.6667C1.36805 14.6667 1.19848 14.7369 1.07346 14.862C0.948433 14.987 0.878195 15.1566 0.878195 15.3334C0.878195 15.5102 0.948433 15.6798 1.07346 15.8048C1.19848 15.9298 1.36805 16 1.54486 16H16.2115C16.3883 16 16.5579 15.9298 16.6829 15.8048C16.808 15.6798 16.8782 15.5102 16.8782 15.3334C16.8782 15.1566 16.808 14.987 16.6829 14.862C16.5579 14.7369 16.3883 14.6667 16.2115 14.6667Z" fill="#29C273"/>
</g>
<defs>
<clipPath id="clip0_1166_36614">
<rect width="16" height="16" fill="white" transform="translate(0.878174)"/>
</clipPath>
</defs>
</svg>
