<svg width="17" height="16" viewBox="0 0 17 16" fill="none" xmlns="http://www.w3.org/2000/svg">
<g clip-path="url(#clip0_1166_36610)">
<path d="M8.87812 0.666667V4.66667C8.87715 5.4348 8.61139 6.17912 8.12564 6.77417C7.63988 7.36921 6.96384 7.7786 6.21145 7.93333V15.3333C6.21145 15.5101 6.14121 15.6797 6.01619 15.8047C5.89116 15.9298 5.72159 16 5.54478 16C5.36797 16 5.1984 15.9298 5.07338 15.8047C4.94835 15.6797 4.87812 15.5101 4.87812 15.3333V7.93333C4.12572 7.7786 3.44968 7.36921 2.96393 6.77417C2.47818 6.17912 2.21242 5.4348 2.21145 4.66667V0.666667C2.21145 0.489856 2.28169 0.320286 2.40671 0.195262C2.53174 0.0702379 2.7013 0 2.87812 0C3.05493 0 3.2245 0.0702379 3.34952 0.195262C3.47454 0.320286 3.54478 0.489856 3.54478 0.666667V4.66667C3.54649 5.07884 3.6755 5.48042 3.91417 5.81647C4.15284 6.15251 4.48951 6.40661 4.87812 6.544V0.666667C4.87812 0.489856 4.94835 0.320286 5.07338 0.195262C5.1984 0.0702379 5.36797 0 5.54478 0C5.72159 0 5.89116 0.0702379 6.01619 0.195262C6.14121 0.320286 6.21145 0.489856 6.21145 0.666667V6.544C6.60005 6.40661 6.93672 6.15251 7.17539 5.81647C7.41406 5.48042 7.54307 5.07884 7.54478 4.66667V0.666667C7.54478 0.489856 7.61502 0.320286 7.74004 0.195262C7.86507 0.0702379 8.03464 0 8.21145 0C8.38826 0 8.55783 0.0702379 8.68285 0.195262C8.80788 0.320286 8.87812 0.489856 8.87812 0.666667ZM15.5448 6.66667C15.515 7.93363 15.1998 9.17755 14.6226 10.3058C14.0455 11.4341 13.2213 12.4177 12.2114 13.1833V15.3333C12.2114 15.5101 12.1412 15.6797 12.0162 15.8047C11.8912 15.9298 11.7216 16 11.5448 16C11.368 16 11.1984 15.9298 11.0734 15.8047C10.9484 15.6797 10.8781 15.5101 10.8781 15.3333V1.33333C10.8721 1.08284 10.9406 0.836205 11.0748 0.624619C11.209 0.413034 11.403 0.246007 11.6321 0.144667C11.8953 0.0375768 12.1841 0.00948677 12.463 0.0638294C12.7419 0.118172 12.999 0.252594 13.2028 0.450667C14.749 2.1473 15.587 4.37153 15.5448 6.66667ZM14.2114 6.66667C14.2304 4.71477 13.5167 2.82672 12.2114 1.37533V11.38C13.4608 10.1255 14.1774 8.43687 14.2114 6.66667Z" fill="#2A2A2A"/>
</g>
<defs>
<clipPath id="clip0_1166_36610">
<rect width="16" height="16" fill="white" transform="translate(0.878174)"/>
</clipPath>
</defs>
</svg>
