<svg width="17" height="16" viewBox="0 0 17 16" fill="none" xmlns="http://www.w3.org/2000/svg">
<g clip-path="url(#clip0_1166_36618)">
<path d="M15.5448 6.66667C15.515 7.93363 15.1998 9.17755 14.6226 10.3058C14.0455 11.4341 13.2213 12.4177 12.2114 13.1833V15.3333C12.2114 15.5101 12.1412 15.6797 12.0162 15.8047C11.8912 15.9298 11.7216 16 11.5448 16C11.368 16 11.1984 15.9298 11.0734 15.8047C10.9484 15.6797 10.8781 15.5101 10.8781 15.3333V1.33333C10.8721 1.08284 10.9406 0.836205 11.0748 0.624619C11.209 0.413034 11.403 0.246007 11.6321 0.144667C11.8953 0.0375768 12.1841 0.00948677 12.463 0.0638294C12.7419 0.118172 12.999 0.252594 13.2028 0.450667C14.749 2.1473 15.587 4.37153 15.5448 6.66667ZM8.21145 0C8.03464 0 7.86507 0.0702379 7.74004 0.195262C7.61502 0.320286 7.54478 0.489856 7.54478 0.666667V4.66667C7.54307 5.07884 7.41406 5.48042 7.17539 5.81647C6.93672 6.15251 6.60005 6.40661 6.21145 6.544V0.666667C6.21145 0.489856 6.14121 0.320286 6.01619 0.195262C5.89116 0.0702379 5.72159 0 5.54478 0C5.36797 0 5.1984 0.0702379 5.07338 0.195262C4.94835 0.320286 4.87812 0.489856 4.87812 0.666667V6.544C4.48951 6.40661 4.15284 6.15251 3.91417 5.81647C3.6755 5.48042 3.54649 5.07884 3.54478 4.66667V0.666667C3.54478 0.489856 3.47454 0.320286 3.34952 0.195262C3.2245 0.0702379 3.05493 0 2.87812 0C2.7013 0 2.53174 0.0702379 2.40671 0.195262C2.28169 0.320286 2.21145 0.489856 2.21145 0.666667V4.66667C2.21242 5.4348 2.47818 6.17912 2.96393 6.77417C3.44968 7.36921 4.12572 7.7786 4.87812 7.93333V15.3333C4.87812 15.5101 4.94835 15.6797 5.07338 15.8047C5.1984 15.9298 5.36797 16 5.54478 16C5.72159 16 5.89116 15.9298 6.01619 15.8047C6.14121 15.6797 6.21145 15.5101 6.21145 15.3333V7.93333C6.96384 7.7786 7.63988 7.36921 8.12564 6.77417C8.61139 6.17912 8.87715 5.4348 8.87812 4.66667V0.666667C8.87812 0.489856 8.80788 0.320286 8.68285 0.195262C8.55783 0.0702379 8.38826 0 8.21145 0V0Z" fill="#ED795A"/>
</g>
<defs>
<clipPath id="clip0_1166_36618">
<rect width="16" height="16" fill="white" transform="translate(0.878174)"/>
</clipPath>
</defs>
</svg>
