<svg width="73" height="40" viewBox="0 0 73 40" fill="none" xmlns="http://www.w3.org/2000/svg">
<path d="M14.438 12.6204L6.31 20.7484C5.99956 21.0571 5.75345 21.4244 5.58592 21.8289C5.41839 22.2335 5.33276 22.6672 5.334 23.105V24.0004C5.334 24.1772 5.40424 24.3468 5.52926 24.4718C5.65428 24.5968 5.82385 24.667 6.00066 24.667H6.896C7.33384 24.6683 7.76758 24.5827 8.1721 24.4151C8.57663 24.2476 8.9439 24.0015 9.25266 23.691L17.3807 15.563C17.7703 15.1725 17.9891 14.6434 17.9891 14.0917C17.9891 13.5401 17.7703 13.0109 17.3807 12.6204C16.9844 12.2416 16.4574 12.0303 15.9093 12.0303C15.3612 12.0303 14.8342 12.2416 14.438 12.6204ZM16.438 14.6204L8.31 22.7484C7.93408 23.122 7.426 23.3323 6.896 23.3337H6.66733V23.105C6.66872 22.575 6.87904 22.067 7.25266 21.691L15.3807 13.563C15.5231 13.427 15.7124 13.3511 15.9093 13.3511C16.1063 13.3511 16.2956 13.427 16.438 13.563C16.578 13.7034 16.6566 13.8935 16.6566 14.0917C16.6566 14.2899 16.578 14.48 16.438 14.6204Z" fill="#C4E00B"/>
<path d="M17.3333 17.986C17.1565 17.986 16.987 18.0562 16.8619 18.1813C16.7369 18.3063 16.6667 18.4759 16.6667 18.6527V22H14C13.4696 22 12.9609 22.2107 12.5858 22.5858C12.2107 22.9609 12 23.4696 12 24V26.6667H5.33333C4.8029 26.6667 4.29419 26.456 3.91912 26.0809C3.54405 25.7058 3.33333 25.1971 3.33333 24.6667V15.3333C3.33333 14.8029 3.54405 14.2942 3.91912 13.9191C4.29419 13.544 4.8029 13.3333 5.33333 13.3333H11.3613C11.5381 13.3333 11.7077 13.2631 11.8327 13.1381C11.9578 13.013 12.028 12.8435 12.028 12.6667C12.028 12.4899 11.9578 12.3203 11.8327 12.1953C11.7077 12.0702 11.5381 12 11.3613 12H5.33333C4.4496 12.0011 3.60237 12.3526 2.97748 12.9775C2.35259 13.6024 2.00106 14.4496 2 15.3333L2 24.6667C2.00106 25.5504 2.35259 26.3976 2.97748 27.0225C3.60237 27.6474 4.4496 27.9989 5.33333 28H12.8953C13.3333 28.0013 13.7671 27.9156 14.1718 27.7481C14.5764 27.5806 14.9438 27.3345 15.2527 27.024L17.0233 25.252C17.3338 24.9432 17.58 24.576 17.7477 24.1715C17.9153 23.767 18.0011 23.3332 18 22.8953V18.6527C18 18.4759 17.9298 18.3063 17.8047 18.1813C17.6797 18.0562 17.5101 17.986 17.3333 17.986ZM14.31 26.0813C14.042 26.3487 13.7031 26.5337 13.3333 26.6147V24C13.3333 23.8232 13.4036 23.6536 13.5286 23.5286C13.6536 23.4036 13.8232 23.3333 14 23.3333H16.6167C16.5342 23.7023 16.3493 24.0406 16.0833 24.3093L14.31 26.0813Z" fill="#C4E00B"/>
<path d="M34.6162 26.1895H33.3242V13.9053H34.6162V26.1895ZM26.1943 22.1631C27.3291 22.1676 28.3682 22.138 29.3115 22.0742C30.2594 22.0104 31.237 21.8988 32.2441 21.7393L32.374 22.8057C31.3532 22.9743 30.3643 23.0905 29.4072 23.1543C28.4502 23.2135 27.3792 23.2432 26.1943 23.2432H25.1484V22.1631H26.1943ZM30.8701 19.4902H26.4746V22.5732H25.1484V18.4512H29.5576V16.0723H25.1279V15.0127H30.8701V19.4902ZM40.5908 26.1553H39.2715V21.1719H40.5908V26.1553ZM45 26.1553H43.708V21.1719H45V26.1553ZM47.748 22.0537H36.5371V20.9873H47.748V22.0537ZM39.2168 15.9561H45.041V14.3906H46.3467V19.6338H37.9316V14.3906H39.2168V15.9561ZM45.041 18.5879V16.9883H39.2168V18.5879H45.041ZM52.1504 16.3799C52.1504 17.0179 52.0433 17.6445 51.8291 18.2598C51.6195 18.8704 51.3073 19.4242 50.8926 19.9209C50.4824 20.4176 49.9834 20.8005 49.3955 21.0693L48.7119 20.0918C49.2269 19.8639 49.6667 19.5472 50.0312 19.1416C50.4004 18.736 50.6784 18.2917 50.8652 17.8086C51.0566 17.3255 51.1523 16.8493 51.1523 16.3799V14.8623H52.1504V16.3799ZM52.4443 16.3799C52.4443 16.8447 52.5309 17.321 52.7041 17.8086C52.8818 18.2962 53.1484 18.7497 53.5039 19.1689C53.8594 19.5882 54.2969 19.9186 54.8164 20.1602L54.2354 21.2197C53.611 20.9463 53.0892 20.5475 52.6699 20.0234C52.2552 19.4993 51.9476 18.9206 51.7471 18.2871C51.5465 17.6491 51.4463 17.0133 51.4463 16.3799V14.8623H52.4443V16.3799ZM57.0176 16.3799C57.0176 17.027 56.9173 17.6673 56.7168 18.3008C56.5163 18.9342 56.2087 19.5107 55.7939 20.0303C55.3792 20.5498 54.8597 20.9463 54.2354 21.2197L53.6543 20.1602C54.1693 19.9232 54.6068 19.5996 54.9668 19.1895C55.3268 18.7747 55.5911 18.3236 55.7598 17.8359C55.9329 17.3438 56.0195 16.8584 56.0195 16.3799V14.8623H57.0176V16.3799ZM57.332 16.3799C57.332 16.8903 57.4209 17.387 57.5986 17.8701C57.7809 18.3486 58.0544 18.7839 58.4189 19.1758C58.7881 19.5632 59.237 19.8685 59.7656 20.0918L59.0547 21.0693C58.4577 20.8005 57.9541 20.4268 57.5439 19.9482C57.1338 19.4697 56.8262 18.9251 56.6211 18.3145C56.416 17.6992 56.3135 17.0544 56.3135 16.3799V14.8623H57.332V16.3799ZM59.8477 24.5488H48.6504V23.4824H59.8477V24.5488ZM70.9355 26.1553H69.623V13.9053H70.9355V26.1553ZM67.2988 15.2246C67.2988 16.4733 67.1051 17.6286 66.7178 18.6904C66.335 19.7477 65.7197 20.723 64.8721 21.6162C64.0244 22.5049 62.9215 23.2751 61.5635 23.9268L60.8662 22.874C62.0465 22.318 63.015 21.6709 63.7715 20.9326C64.5326 20.1943 65.0954 19.3695 65.46 18.458C65.8245 17.5465 66.0068 16.5394 66.0068 15.4365V15.2246H67.2988ZM66.5674 16.2637H61.4609V15.2246H66.5674V16.2637Z" fill="#C4E00B"/>
</svg>
