<svg width="21" height="21" viewBox="0 0 21 21" fill="none" xmlns="http://www.w3.org/2000/svg">
<path d="M13.8411 4.02879C13.6546 3.84239 13.4171 3.71545 13.1585 3.66403C12.8999 3.61261 12.6318 3.63901 12.3883 3.7399C12.1447 3.84079 11.9365 4.01163 11.79 4.23083C11.6435 4.45003 11.5652 4.70775 11.5652 4.9714V6.02867H8.34536C6.7547 6.03044 5.22968 6.66311 4.10491 7.78788C2.98014 8.91265 2.34747 10.4377 2.3457 12.0283L2.3457 16.6947C2.3457 16.8715 2.41594 17.0411 2.54095 17.1661C2.66597 17.2911 2.83553 17.3613 3.01233 17.3613C3.18913 17.3613 3.35869 17.2911 3.48371 17.1661C3.60873 17.0411 3.67896 16.8715 3.67896 16.6947C3.68002 15.6342 4.10176 14.6175 4.85164 13.8676C5.60151 13.1178 6.61825 12.696 7.67873 12.695H11.5652V13.7522C11.5652 14.0159 11.6435 14.2736 11.79 14.4928C11.9365 14.712 12.1447 14.8828 12.3883 14.9837C12.6318 15.0846 12.8999 15.111 13.1585 15.0596C13.4171 15.0082 13.6546 14.8812 13.8411 14.6948L17.7602 10.7757C18.1351 10.4007 18.3457 9.89211 18.3457 9.36181C18.3457 8.83151 18.1351 8.32293 17.7602 7.94789L13.8411 4.02879Z" fill="#2A2A2A"/>
</svg>
