<svg width="21" height="20" viewBox="0 0 21 20" fill="none" xmlns="http://www.w3.org/2000/svg">
<g clip-path="url(#clip0_1856_11069)">
<path d="M16.9572 12.2229C16.3271 12.2235 15.7066 12.3773 15.1493 12.6711C14.5919 12.965 14.1144 13.39 13.758 13.9096L8.33384 11.4605C8.7191 10.5301 8.7206 9.48519 8.338 8.55378L13.7547 6.09212C14.2829 6.85608 15.0674 7.40542 15.966 7.64049C16.8646 7.87556 17.8176 7.78079 18.6523 7.37337C19.4869 6.96595 20.1479 6.27287 20.5154 5.41984C20.8828 4.56681 20.9323 3.61034 20.655 2.72393C20.3776 1.83751 19.7917 1.07986 19.0036 0.588413C18.2155 0.096962 17.2773 -0.0957392 16.3593 0.0452638C15.4413 0.186267 14.6042 0.651634 13.9999 1.35695C13.3956 2.06227 13.0641 2.96082 13.0655 3.88962C13.069 4.10945 13.0913 4.32858 13.1322 4.54462L7.37384 7.16128C6.82079 6.64313 6.12843 6.29781 5.38182 6.16775C4.63521 6.03769 3.86686 6.12855 3.17118 6.42916C2.4755 6.72978 1.88278 7.22706 1.46584 7.85992C1.04889 8.49277 0.825893 9.23364 0.824228 9.99149C0.822563 10.7493 1.04231 11.4912 1.45646 12.1259C1.87062 12.7605 2.46115 13.2604 3.1555 13.5641C3.84986 13.8678 4.61779 13.962 5.36497 13.8352C6.11215 13.7084 6.80602 13.3662 7.36134 12.8505L13.1347 15.4571C13.0946 15.673 13.0725 15.8918 13.0688 16.1113C13.0687 16.8806 13.2966 17.6326 13.7239 18.2723C14.1512 18.912 14.7586 19.4106 15.4693 19.7051C16.18 19.9995 16.962 20.0766 17.7165 19.9266C18.471 19.7766 19.1641 19.4061 19.7081 18.8622C20.252 18.3182 20.6224 17.6252 20.7725 16.8707C20.9225 16.1161 20.8454 15.3341 20.551 14.6234C20.2565 13.9127 19.7579 13.3053 19.1182 12.878C18.4785 12.4508 17.7264 12.2228 16.9572 12.2229ZM16.9572 1.66712C17.3968 1.66695 17.8266 1.79716 18.1922 2.04127C18.5578 2.28538 18.8427 2.63243 19.0111 3.03853C19.1794 3.44462 19.2236 3.89152 19.1379 4.32269C19.0522 4.75387 18.8406 5.14996 18.5298 5.46087C18.2191 5.77177 17.823 5.98353 17.3919 6.06935C16.9608 6.15517 16.5138 6.11121 16.1077 5.94302C15.7015 5.77483 15.3544 5.48996 15.1101 5.12446C14.8659 4.75895 14.7355 4.32922 14.7355 3.88962C14.7359 3.30045 14.9701 2.73553 15.3867 2.31885C15.8032 1.90217 16.368 1.66778 16.9572 1.66712ZM4.73551 12.2229C4.2959 12.2231 3.86612 12.0929 3.50052 11.8488C3.13493 11.6047 2.84993 11.2576 2.68159 10.8515C2.51325 10.4454 2.46911 9.99855 2.55478 9.56737C2.64044 9.1362 2.85204 8.74011 3.16283 8.4292C3.47362 8.11829 3.86963 7.90654 4.30078 7.82072C4.73192 7.73489 5.17884 7.77886 5.58499 7.94705C5.99115 8.11524 6.33831 8.4001 6.58256 8.76561C6.8268 9.13111 6.95717 9.56085 6.95717 10.0005C6.95651 10.5895 6.72226 11.1543 6.30578 11.571C5.8893 11.9876 5.3246 12.2221 4.73551 12.2229ZM16.9572 18.3338C16.5176 18.3338 16.0879 18.2034 15.7224 17.9592C15.3569 17.715 15.0721 17.3679 14.9038 16.9618C14.7356 16.5557 14.6916 16.1088 14.7774 15.6777C14.8631 15.2466 15.0748 14.8506 15.3856 14.5397C15.6964 14.2289 16.0925 14.0172 16.5236 13.9315C16.9547 13.8457 17.4016 13.8897 17.8077 14.058C18.2138 14.2262 18.5609 14.511 18.8051 14.8765C19.0493 15.242 19.1797 15.6717 19.1797 16.1113C19.1792 16.7006 18.9449 17.2656 18.5282 17.6823C18.1115 18.099 17.5465 18.3333 16.9572 18.3338Z" fill="white"/>
</g>
<defs>
<clipPath id="clip0_1856_11069">
<rect width="20" height="20" fill="white" transform="translate(0.845703)"/>
</clipPath>
</defs>
</svg>
