<svg width="25" height="25" viewBox="0 0 25 25" fill="none" xmlns="http://www.w3.org/2000/svg">
<g clip-path="url(#clip0_173_7389)">
<path d="M24.9375 10.972L22.7375 0.971985H3.1375L0.9615 10.755L0.9375 11.972C0.941127 12.9373 1.29667 13.8681 1.9375 14.59V21.972C1.9375 22.7676 2.25357 23.5307 2.81618 24.0933C3.37879 24.6559 4.14185 24.972 4.9375 24.972H20.9375C21.7331 24.972 22.4962 24.6559 23.0588 24.0933C23.6214 23.5307 23.9375 22.7676 23.9375 21.972V14.59C24.5783 13.8681 24.9339 12.9373 24.9375 11.972V10.972ZM2.9375 11.081L4.7375 2.97198H7.9375V6.97198H9.9375V2.97198H15.9375V6.97198H17.9375V2.97198H21.1375L22.9375 11.081V11.972C22.9375 12.5024 22.7268 13.0111 22.3517 13.3862C21.9766 13.7613 21.4679 13.972 20.9375 13.972H19.9375C19.4071 13.972 18.8984 13.7613 18.5233 13.3862C18.1482 13.0111 17.9375 12.5024 17.9375 11.972H15.9375C15.9375 12.5024 15.7268 13.0111 15.3517 13.3862C14.9766 13.7613 14.4679 13.972 13.9375 13.972H11.9375C11.4071 13.972 10.8984 13.7613 10.5233 13.3862C10.1482 13.0111 9.9375 12.5024 9.9375 11.972H7.9375C7.9375 12.5024 7.72679 13.0111 7.35171 13.3862C6.97664 13.7613 6.46793 13.972 5.9375 13.972H4.9375C4.40707 13.972 3.89836 13.7613 3.52329 13.3862C3.14821 13.0111 2.9375 12.5024 2.9375 11.972V11.081ZM20.9375 22.972H4.9375C4.67228 22.972 4.41793 22.8666 4.23039 22.6791C4.04286 22.4916 3.9375 22.2372 3.9375 21.972V15.83C4.26336 15.92 4.59945 15.9678 4.9375 15.972H5.9375C6.50739 15.9701 7.07023 15.8458 7.58784 15.6073C8.10545 15.3689 8.56574 15.0219 8.9375 14.59C9.30926 15.0219 9.76955 15.3689 10.2872 15.6073C10.8048 15.8458 11.3676 15.9701 11.9375 15.972H13.9375C14.5053 15.9723 15.0667 15.8514 15.584 15.6174C16.1014 15.3834 16.5628 15.0416 16.9375 14.615C17.3122 15.0416 17.7736 15.3834 18.291 15.6174C18.8083 15.8514 19.3697 15.9723 19.9375 15.972H20.9375C21.2755 15.9678 21.6116 15.92 21.9375 15.83V21.972C21.9375 22.2372 21.8321 22.4916 21.6446 22.6791C21.4571 22.8666 21.2027 22.972 20.9375 22.972Z" fill="#A2A2A2"/>
</g>
<defs>
<clipPath id="clip0_173_7389">
<rect width="24" height="24" fill="white" transform="translate(0.9375 0.971985)"/>
</clipPath>
</defs>
</svg>
