<svg width="17" height="16" viewBox="0 0 17 16" fill="none" xmlns="http://www.w3.org/2000/svg">
<g clip-path="url(#clip0_1166_36612)">
<path d="M16.358 3.82867L14.3507 1.11667C14.1039 0.771557 13.7783 0.490246 13.4011 0.296051C13.0238 0.101856 12.6057 0.000369147 12.1814 1.17493e-06H5.57471C5.15246 -0.000395157 4.73616 0.0994832 4.36006 0.291417C3.98396 0.48335 3.65881 0.761851 3.41138 1.104L1.36804 3.83533C1.03535 4.30446 0.863539 4.86872 0.878321 5.44365C0.893103 6.01858 1.09368 6.57326 1.45004 7.02467L7.31138 15.2433C7.49817 15.4799 7.73624 15.6709 8.00764 15.802C8.27903 15.933 8.57665 16.0007 8.87804 16C9.1846 15.9994 9.48694 15.9285 9.76178 15.7926C10.0366 15.6568 10.2766 15.4598 10.4634 15.2167L16.278 7.08933C16.6504 6.63132 16.8602 6.06273 16.8747 5.47266C16.8892 4.88259 16.7075 4.30439 16.358 3.82867ZM13.2727 1.90067L15.2847 4.61933C15.2954 4.634 15.298 4.65133 15.3087 4.66667H12.0474L11.0954 1.33333H12.1814C12.3953 1.334 12.6061 1.38584 12.7959 1.48454C12.9858 1.58323 13.1492 1.72591 13.2727 1.90067ZM8.87804 12.7453L7.07804 6H10.678L8.87804 12.7453ZM7.09538 4.66667L8.04738 1.33333H9.70871L10.6607 4.66667H7.09538ZM4.48938 1.89133C4.61308 1.71893 4.77601 1.57841 4.96472 1.48139C5.15343 1.38437 5.36252 1.33362 5.57471 1.33333H6.66071L5.70871 4.66667H2.42338C2.43271 4.652 2.43538 4.634 2.44604 4.62L4.48938 1.89133ZM2.51004 6.21667C2.46191 6.14868 2.4206 6.0761 2.38671 6H5.69938L7.69538 13.4867L2.51004 6.21667ZM10.0587 13.4933L12.0587 6H15.3827C15.3398 6.09951 15.2854 6.1937 15.2207 6.28067L10.0587 13.4933Z" fill="white"/>
</g>
<defs>
<clipPath id="clip0_1166_36612">
<rect width="16" height="16" fill="white" transform="translate(0.878174)"/>
</clipPath>
</defs>
</svg>
