<svg width="17" height="16" viewBox="0 0 17 16" fill="none" xmlns="http://www.w3.org/2000/svg">
<g clip-path="url(#clip0_1166_36620)">
<path d="M16.8782 6C16.7918 6.48407 16.5994 6.94303 16.3148 7.344L10.4595 15.224C10.2739 15.4638 10.0361 15.6583 9.76425 15.7927C9.49237 15.9271 9.19349 15.9979 8.89021 15.9998C8.58694 16.0016 8.28721 15.9345 8.0137 15.8035C7.74019 15.6724 7.50007 15.4809 7.31151 15.2433L1.42751 7.2C1.17756 6.83783 1.00112 6.43012 0.908174 6H5.08684L8.25551 14.2393C8.30373 14.3654 8.38907 14.4738 8.50025 14.5503C8.61143 14.6269 8.74321 14.6678 8.87817 14.6678C9.01314 14.6678 9.14492 14.6269 9.2561 14.5503C9.36728 14.4738 9.45262 14.3654 9.50084 14.2393L12.6695 6H16.8782ZM12.6782 4.66667H16.8495C16.7481 4.21561 16.5535 3.79074 16.2782 3.41933L14.5728 1.11667C14.3259 0.771505 14.0002 0.490168 13.6229 0.295973C13.2455 0.101778 12.8273 0.000317757 12.4028 1.28905e-06H10.9362L12.6782 4.66667ZM8.28351 1.28905e-06L6.51084 4.66667H11.2522L9.51484 1.28905e-06H8.28351ZM5.08484 4.66667L6.85684 1.28905e-06H5.30884C4.88803 -0.000412955 4.47312 0.0990181 4.09821 0.290126C3.72329 0.481233 3.39907 0.758564 3.15217 1.09933L1.50351 3.26067C1.18804 3.67402 0.97387 4.15557 0.878174 4.66667H5.08484ZM11.2408 6H6.51551L8.87817 12.1427L11.2408 6Z" fill="#B38FE5"/>
</g>
<defs>
<clipPath id="clip0_1166_36620">
<rect width="16" height="16" fill="white" transform="translate(0.878174)"/>
</clipPath>
</defs>
</svg>
