<svg width="21" height="21" viewBox="0 0 21 21" fill="none" xmlns="http://www.w3.org/2000/svg">
<path d="M15.0448 9.83415H11.7115V6.50081C11.7115 6.2798 11.6237 6.06784 11.4674 5.91156C11.3111 5.75528 11.0992 5.66748 10.8782 5.66748C10.6572 5.66748 10.4452 5.75528 10.2889 5.91156C10.1326 6.06784 10.0448 6.2798 10.0448 6.50081V9.83415H6.71151C6.49049 9.83415 6.27853 9.92194 6.12225 10.0782C5.96597 10.2345 5.87817 10.4465 5.87817 10.6675C5.87817 10.8885 5.96597 11.1005 6.12225 11.2567C6.27853 11.413 6.49049 11.5008 6.71151 11.5008H10.0448V14.8341C10.0448 15.0552 10.1326 15.2671 10.2889 15.4234C10.4452 15.5797 10.6572 15.6675 10.8782 15.6675C11.0992 15.6675 11.3111 15.5797 11.4674 15.4234C11.6237 15.2671 11.7115 15.0552 11.7115 14.8341V11.5008H15.0448C15.2659 11.5008 15.4778 11.413 15.6341 11.2567C15.7904 11.1005 15.8782 10.8885 15.8782 10.6675C15.8782 10.4465 15.7904 10.2345 15.6341 10.0782C15.4778 9.92194 15.2659 9.83415 15.0448 9.83415Z" fill="#2A2A2A"/>
</svg>
