<svg width="17" height="16" viewBox="0 0 17 16" fill="none" xmlns="http://www.w3.org/2000/svg">
<path d="M13.7933 6.58687L10.7333 3.52687C10.6084 3.4027 10.4394 3.33301 10.2633 3.33301C10.0872 3.33301 9.91819 3.4027 9.79328 3.52687C9.7308 3.58884 9.6812 3.66258 9.64736 3.74382C9.61351 3.82506 9.59608 3.9122 9.59608 4.0002C9.59608 4.08821 9.61351 4.17535 9.64736 4.25659C9.6812 4.33783 9.7308 4.41156 9.79328 4.47354L12.86 7.52687C12.9224 7.58885 12.972 7.66258 13.0059 7.74382C13.0397 7.82506 13.0571 7.9122 13.0571 8.0002C13.0571 8.08821 13.0397 8.17535 13.0059 8.25659C12.972 8.33783 12.9224 8.41156 12.86 8.47354L9.79328 11.5269C9.66775 11.6515 9.59687 11.8209 9.59625 11.9978C9.59562 12.1748 9.6653 12.3447 9.78995 12.4702C9.9146 12.5957 10.084 12.6666 10.2609 12.6672C10.4378 12.6679 10.6077 12.5982 10.7333 12.4735L13.7933 9.41354C14.1678 9.03854 14.3782 8.53021 14.3782 8.0002C14.3782 7.4702 14.1678 6.96187 13.7933 6.58687Z" fill="#2A2A2A"/>
</svg>
