<svg width="20" height="20" viewBox="0 0 20 20" fill="none" xmlns="http://www.w3.org/2000/svg">
<path d="M15.4246 17.999C15.178 17.9983 14.934 17.9488 14.7066 17.8533C14.4792 17.7577 14.2731 17.6181 14.1 17.4424L9.99998 13.3664L5.89998 17.445C5.63667 17.7122 5.29897 17.8938 4.93093 17.9662C4.56288 18.0386 4.18155 17.9985 3.83665 17.851C3.48832 17.7109 3.19034 17.469 2.98162 17.157C2.77289 16.8449 2.66313 16.4771 2.66665 16.1017V5.33236C2.66665 4.4483 3.01784 3.60046 3.64296 2.97533C4.26808 2.35021 5.11593 1.99902 5.99998 1.99902L14 1.99902C14.4377 1.99902 14.8712 2.08524 15.2756 2.25276C15.68 2.42027 16.0475 2.66581 16.357 2.97533C16.6665 3.28486 16.9121 3.65233 17.0796 4.05675C17.2471 4.46116 17.3333 4.89462 17.3333 5.33236V16.1017C17.3371 16.4768 17.2277 16.8444 17.0194 17.1564C16.8112 17.4684 16.5138 17.7105 16.166 17.851C15.9312 17.9492 15.6791 17.9995 15.4246 17.999ZM5.99998 3.33236C5.46955 3.33236 4.96084 3.54307 4.58577 3.91814C4.21069 4.29322 3.99998 4.80192 3.99998 5.33236V16.1017C3.99974 16.2128 4.03243 16.3215 4.09391 16.414C4.1554 16.5065 4.24293 16.5787 4.34544 16.6215C4.44795 16.6643 4.56085 16.6758 4.66987 16.6545C4.7789 16.6331 4.87915 16.58 4.95798 16.5017L9.53331 11.9544C9.65822 11.8302 9.82719 11.7605 10.0033 11.7605C10.1794 11.7605 10.3484 11.8302 10.4733 11.9544L15.0433 16.5004C15.1221 16.5786 15.2224 16.6318 15.3314 16.6531C15.4404 16.6744 15.5533 16.663 15.6559 16.6202C15.7584 16.5774 15.8459 16.5052 15.9074 16.4126C15.9689 16.3201 16.0016 16.2114 16.0013 16.1004V5.33236C16.0013 4.80192 15.7906 4.29322 15.4155 3.91814C15.0405 3.54307 14.5317 3.33236 14.0013 3.33236H5.99998Z" fill="#2A2A2A"/>
</svg>
