<svg width="20" height="20" viewBox="0 0 20 20" fill="none" xmlns="http://www.w3.org/2000/svg">
<path d="M3.89935 17.7713C4.26338 17.9269 4.66585 17.9691 5.05425 17.8925C5.44265 17.8159 5.79896 17.6241 6.07668 17.342L10 13.44L13.9233 17.342C14.1063 17.5276 14.3242 17.675 14.5645 17.7759C14.8048 17.8767 15.0627 17.9288 15.3233 17.9293C15.5912 17.9285 15.8563 17.8748 16.1033 17.7713C16.4704 17.6228 16.784 17.367 17.0035 17.0375C17.2229 16.7079 17.3379 16.3199 17.3333 15.924V5.40462C17.3323 4.52089 16.9808 3.67366 16.3559 3.04877C15.731 2.42388 14.8837 2.07235 14 2.07129L6.00001 2.07129C5.11628 2.07235 4.26905 2.42388 3.64416 3.04877C3.01927 3.67366 2.66774 4.52089 2.66668 5.40462V15.924C2.66238 16.3202 2.77773 16.7084 2.99766 17.038C3.21758 17.3676 3.53184 17.6232 3.89935 17.7713Z" fill="#2A2A2A"/>
</svg>
