<svg width="20" height="20" viewBox="0 0 20 20" fill="none" xmlns="http://www.w3.org/2000/svg">
<path d="M2.00006 14.6669C2.00112 15.5507 2.35265 16.3979 2.97753 17.0228C3.60242 17.6477 4.44964 17.9992 5.33337 18.0002H14.6666C15.5503 17.9992 16.3976 17.6477 17.0225 17.0228C17.6473 16.3979 17.9989 15.5507 17.9999 14.6669V8.66699H2.00006V14.6669ZM13.3333 11.667C13.5311 11.667 13.7244 11.7256 13.8889 11.8355C14.0533 11.9454 14.1815 12.1016 14.2572 12.2843C14.3329 12.467 14.3527 12.6681 14.3141 12.862C14.2755 13.056 14.1803 13.2342 14.0404 13.3741C13.9006 13.5139 13.7224 13.6092 13.5284 13.6477C13.3344 13.6863 13.1333 13.6665 12.9506 13.5908C12.7679 13.5151 12.6117 13.387 12.5018 13.2225C12.392 13.0581 12.3333 12.8647 12.3333 12.667C12.3333 12.4017 12.4387 12.1474 12.6262 11.9599C12.8137 11.7723 13.0681 11.667 13.3333 11.667ZM10 11.667C10.1978 11.667 10.3911 11.7256 10.5556 11.8355C10.72 11.9454 10.8482 12.1016 10.9239 12.2843C10.9996 12.467 11.0194 12.6681 10.9808 12.862C10.9422 13.056 10.8469 13.2342 10.7071 13.3741C10.5672 13.5139 10.3891 13.6092 10.1951 13.6477C10.0011 13.6863 9.80004 13.6665 9.61732 13.5908C9.43459 13.5151 9.27841 13.387 9.16853 13.2225C9.05865 13.0581 9 12.8647 9 12.667C9 12.4017 9.10536 12.1474 9.29289 11.9599C9.48043 11.7723 9.73478 11.667 10 11.667ZM6.66669 11.667C6.86447 11.667 7.05781 11.7256 7.22226 11.8355C7.3867 11.9454 7.51487 12.1016 7.59056 12.2843C7.66625 12.467 7.68605 12.6681 7.64747 12.862C7.60888 13.056 7.51364 13.2342 7.37379 13.3741C7.23394 13.5139 7.05576 13.6092 6.86178 13.6477C6.6678 13.6863 6.46673 13.6665 6.28401 13.5908C6.10128 13.5151 5.94511 13.387 5.83523 13.2225C5.72535 13.0581 5.6667 12.8647 5.6667 12.667C5.6667 12.4017 5.77205 12.1474 5.95959 11.9599C6.14712 11.7723 6.40147 11.667 6.66669 11.667Z" fill="#2A2A2A"/>
<path d="M14.6666 3.33381H14V2.66715C14 2.49034 13.9297 2.32077 13.8047 2.19575C13.6797 2.07073 13.5101 2.00049 13.3333 2.00049C13.1565 2.00049 12.9869 2.07073 12.8619 2.19575C12.7369 2.32077 12.6666 2.49034 12.6666 2.66715V3.33381H7.33335V2.66715C7.33335 2.49034 7.26311 2.32077 7.13809 2.19575C7.01307 2.07073 6.8435 2.00049 6.66669 2.00049C6.48988 2.00049 6.32031 2.07073 6.19529 2.19575C6.07027 2.32077 6.00003 2.49034 6.00003 2.66715V3.33381H5.33337C4.44964 3.33487 3.60242 3.6864 2.97753 4.31128C2.35265 4.93617 2.00112 5.78339 2.00006 6.66712L2.00006 7.33378H17.9999V6.66712C17.9989 5.78339 17.6473 4.93617 17.0225 4.31128C16.3976 3.6864 15.5503 3.33487 14.6666 3.33381Z" fill="#2A2A2A"/>
</svg>
