<svg width="16" height="16" viewBox="0 0 16 16" fill="none" xmlns="http://www.w3.org/2000/svg">
<path d="M1.09796 6.18508C1.21729 5.7927 1.45567 5.45041 1.77787 5.20883C2.10006 4.96724 2.48896 4.83919 2.88705 4.84361H5.43563L6.20971 2.35111C6.33144 1.95877 6.57064 1.61651 6.89281 1.37368C7.21499 1.13085 7.60349 1 8.0023 1C8.4011 1 8.7896 1.13085 9.11178 1.37368C9.43395 1.61651 9.67315 1.95877 9.79488 2.35111L10.569 4.84361H13.1175C13.5144 4.8442 13.9009 4.97431 14.2218 5.21538C14.5428 5.45645 14.7818 5.79613 14.9047 6.18591C15.0276 6.57569 15.0282 6.99564 14.9062 7.38576C14.7843 7.77588 14.5462 8.11622 14.2259 8.35818L12.1515 9.92503L12.9402 12.4483C13.0677 12.8396 13.0693 13.263 12.9448 13.6554C12.8204 14.0478 12.5765 14.3881 12.2495 14.6256C11.9282 14.8707 11.5388 15.002 11.1394 15C10.7399 14.9979 10.3518 14.8626 10.0329 14.6141L8.0023 13.0702L5.97113 14.6123C5.65038 14.8561 5.26308 14.9884 4.86491 14.9904C4.46675 14.9924 4.07822 14.864 3.75518 14.6235C3.43215 14.383 3.19126 14.0429 3.06713 13.652C2.943 13.2612 2.94204 12.8397 3.06438 12.4483L3.85305 9.92503L1.77638 8.35818C1.45239 8.11926 1.21147 7.77892 1.08928 7.38754C0.967098 6.99616 0.970141 6.57453 1.09796 6.18508ZM2.46471 7.38492L4.88205 9.2103C4.98134 9.28513 5.05521 9.39044 5.09313 9.51122C5.13105 9.63199 5.13108 9.76205 5.09321 9.88284L4.17446 12.8177C4.12797 12.9665 4.12837 13.1268 4.1756 13.2754C4.22282 13.424 4.31445 13.5533 4.4373 13.6447C4.56015 13.7361 4.70789 13.785 4.85929 13.7842C5.01069 13.7834 5.15794 13.733 5.27988 13.6403L7.65696 11.8324C7.75708 11.7564 7.87807 11.7154 8.0023 11.7154C8.12653 11.7154 8.24751 11.7564 8.34763 11.8324L10.7247 13.6403C10.8466 13.7342 10.9942 13.7856 11.1463 13.7871C11.2984 13.7885 11.4469 13.7399 11.5704 13.6482C11.6939 13.5565 11.7859 13.4266 11.8332 13.2773C11.8804 13.128 11.8803 12.967 11.833 12.8177L10.9114 9.88284C10.8735 9.76205 10.8735 9.63199 10.9115 9.51122C10.9494 9.39044 11.0233 9.28513 11.1225 9.2103L13.5399 7.38492C13.6616 7.29284 13.7521 7.16336 13.7983 7.01499C13.8446 6.86662 13.8443 6.70694 13.7974 6.55877C13.7506 6.41059 13.6596 6.2815 13.5375 6.18993C13.4154 6.09836 13.2684 6.04899 13.1175 6.04888H10.1425C10.019 6.04888 9.89873 6.00838 9.79893 5.93322C9.69914 5.85806 9.625 5.75212 9.58721 5.63065L8.68305 2.71932C8.63664 2.57034 8.54566 2.44042 8.42323 2.34825C8.30079 2.25608 8.15321 2.20643 8.00171 2.20643C7.85022 2.20643 7.70263 2.25608 7.5802 2.34825C7.45776 2.44042 7.36679 2.57034 7.32038 2.71932L6.41621 5.63065C6.37842 5.75212 6.30429 5.85806 6.20449 5.93322C6.10469 6.00838 5.98438 6.04888 5.86088 6.04888H2.88588C2.735 6.04899 2.58801 6.09836 2.4659 6.18993C2.3438 6.2815 2.25284 6.41059 2.206 6.55877C2.15916 6.70694 2.15884 6.86662 2.2051 7.01499C2.25135 7.16336 2.34181 7.29284 2.46355 7.38492H2.46471Z" fill="#D5EC41"/>
</svg>
