<svg width="20" height="20" viewBox="0 0 20 20" fill="none" xmlns="http://www.w3.org/2000/svg">
<g clip-path="url(#clip0_1533_13640)">
<path d="M19.8632 7.3287C19.6927 6.78612 19.3522 6.3128 18.8919 5.97873C18.4316 5.64466 17.8761 5.46759 17.3074 5.4737H13.6665L12.5607 2.02704C12.3868 1.4845 12.0451 1.01121 11.5848 0.675423C11.1246 0.339633 10.5696 0.158691 9.99986 0.158691C9.43013 0.158691 8.87513 0.339633 8.41488 0.675423C7.95463 1.01121 7.61292 1.4845 7.43902 2.02704L6.33319 5.4737H2.69236C2.12548 5.47451 1.57335 5.65444 1.11484 5.98779C0.656329 6.32114 0.31489 6.79086 0.13929 7.32986C-0.0363094 7.86886 -0.0370866 8.44956 0.137069 8.98903C0.311225 9.52849 0.651406 9.99913 1.10902 10.3337L4.07236 12.5004L2.94569 15.9895C2.76362 16.5307 2.76131 17.1162 2.93911 17.6588C3.11692 18.2014 3.46531 18.6719 3.93236 19.0004C4.3914 19.3394 4.94768 19.521 5.51832 19.5181C6.08895 19.5152 6.64339 19.3281 7.09902 18.9845L9.99986 16.8495L12.9015 18.982C13.3597 19.3191 13.913 19.5021 14.4818 19.5049C15.0506 19.5077 15.6057 19.33 16.0672 18.9975C16.5286 18.6649 16.8728 18.1946 17.0501 17.6541C17.2274 17.1136 17.2288 16.5308 17.054 15.9895L15.9274 12.5004L18.894 10.3337C19.3569 10.0033 19.701 9.5327 19.8756 8.99149C20.0501 8.45028 20.0458 7.86725 19.8632 7.3287ZM17.9107 8.98787L14.4574 11.512C14.3155 11.6155 14.21 11.7611 14.1558 11.9281C14.1016 12.0952 14.1016 12.275 14.1557 12.442L15.4682 16.5004C15.5346 16.7062 15.534 16.9278 15.4666 17.1333C15.3991 17.3388 15.2682 17.5176 15.0927 17.644C14.9172 17.7704 14.7062 17.8379 14.4899 17.8368C14.2736 17.8357 14.0632 17.7661 13.889 17.6379L10.4932 15.1379C10.3502 15.0328 10.1773 14.9762 9.99986 14.9762C9.82239 14.9762 9.64955 15.0328 9.50652 15.1379L6.11069 17.6379C5.93659 17.7678 5.72564 17.8389 5.50841 17.8409C5.29118 17.8428 5.07897 17.7756 4.90255 17.6488C4.72612 17.5221 4.59465 17.3424 4.52719 17.1359C4.45973 16.9294 4.45978 16.7068 4.52736 16.5004L5.84402 12.442C5.89812 12.275 5.89808 12.0952 5.84391 11.9281C5.78973 11.7611 5.6842 11.6155 5.54236 11.512L2.08902 8.98787C1.91511 8.86053 1.78588 8.68149 1.71981 8.47632C1.65373 8.27115 1.65418 8.05035 1.72109 7.84545C1.78801 7.64055 1.91796 7.46204 2.09239 7.33541C2.26682 7.20879 2.47681 7.14052 2.69236 7.14037H6.94236C7.11878 7.14036 7.29066 7.08436 7.43323 6.98043C7.5758 6.8765 7.6817 6.73 7.73569 6.56204L9.02736 2.5362C9.09366 2.33019 9.22362 2.15053 9.39852 2.02308C9.57343 1.89562 9.78427 1.82696 10.0007 1.82696C10.2171 1.82696 10.4279 1.89562 10.6029 2.02308C10.7778 2.15053 10.9077 2.33019 10.974 2.5362L12.2657 6.56204C12.3197 6.73 12.4256 6.8765 12.5681 6.98043C12.7107 7.08436 12.8826 7.14036 13.059 7.14037H17.309C17.5246 7.14052 17.7346 7.20879 17.909 7.33541C18.0834 7.46204 18.2134 7.64055 18.2803 7.84545C18.3472 8.05035 18.3476 8.27115 18.2816 8.47632C18.2155 8.68149 18.0863 8.86053 17.9124 8.98787H17.9107Z" fill="#2A2A2A"/>
</g>
<defs>
<clipPath id="clip0_1533_13640">
<rect width="20" height="20" fill="white"/>
</clipPath>
</defs>
</svg>
