<svg width="16" height="16" viewBox="0 0 16 16" fill="none" xmlns="http://www.w3.org/2000/svg">
<path d="M1.09651 6.24313C1.21583 5.86332 1.45422 5.53199 1.77641 5.29815C2.09861 5.0643 2.48751 4.94035 2.8856 4.94463H5.43418L6.20826 2.53196C6.32999 2.15219 6.56919 1.82089 6.89136 1.58583C7.21354 1.35078 7.60204 1.22412 8.00085 1.22412C8.39965 1.22412 8.78815 1.35078 9.11033 1.58583C9.4325 1.82089 9.6717 2.15219 9.79343 2.53196L10.5675 4.94463H13.1161C13.5129 4.94519 13.8994 5.07114 14.2204 5.30449C14.5413 5.53784 14.7803 5.86664 14.9032 6.24394C15.0262 6.62124 15.0267 7.02773 14.9048 7.40536C14.7829 7.78298 14.5448 8.11243 14.2244 8.34663L12.1501 9.8633L12.9388 12.3057C13.0662 12.6845 13.0678 13.0944 12.9434 13.4742C12.8189 13.854 12.575 14.1834 12.2481 14.4133C11.9268 14.6506 11.5374 14.7777 11.1379 14.7757C10.7385 14.7737 10.3504 14.6427 10.0314 14.4022L8.00085 12.9077L5.96968 14.4005C5.64893 14.6364 5.26163 14.7645 4.86346 14.7665C4.46529 14.7684 4.07676 14.6441 3.75373 14.4113C3.4307 14.1785 3.18981 13.8492 3.06568 13.4709C2.94155 13.0926 2.94059 12.6846 3.06293 12.3057L3.85159 9.8633L1.77493 8.34663C1.45094 8.11537 1.21002 7.78593 1.08783 7.40708C0.965647 7.02823 0.96869 6.62011 1.09651 6.24313ZM2.46326 7.40455L4.8806 9.17146C4.97988 9.24389 5.05376 9.34584 5.09168 9.46274C5.1296 9.57965 5.12963 9.70554 5.09176 9.82246L4.17301 12.6633C4.12652 12.8074 4.12692 12.9625 4.17415 13.1063C4.22137 13.2502 4.313 13.3754 4.43585 13.4638C4.55869 13.5523 4.70644 13.5996 4.85784 13.5988C5.00924 13.598 5.15649 13.5493 5.27843 13.4595L7.65551 11.7095C7.75563 11.636 7.87662 11.5963 8.00085 11.5963C8.12507 11.5963 8.24606 11.636 8.34618 11.7095L10.7233 13.4595C10.8451 13.5505 10.9928 13.6003 11.1449 13.6016C11.2969 13.603 11.4455 13.5559 11.569 13.4672C11.6925 13.3785 11.7845 13.2527 11.8317 13.1082C11.8789 12.9636 11.8789 12.8078 11.8316 12.6633L10.9099 9.82246C10.8721 9.70554 10.8721 9.57965 10.91 9.46274C10.9479 9.34584 11.0218 9.24389 11.1211 9.17146L13.5384 7.40455C13.6602 7.31541 13.7506 7.19008 13.7969 7.04646C13.8431 6.90284 13.8428 6.74828 13.796 6.60485C13.7491 6.46142 13.6582 6.33647 13.5361 6.24783C13.414 6.15919 13.267 6.1114 13.1161 6.1113H10.1411C10.0176 6.11129 9.89728 6.07209 9.79748 5.99934C9.69769 5.92659 9.62355 5.82404 9.58576 5.70646L8.6816 2.88838C8.63518 2.74417 8.54421 2.61841 8.42178 2.52919C8.29934 2.43997 8.15175 2.39191 8.00026 2.39191C7.84877 2.39191 7.70118 2.43997 7.57875 2.52919C7.45631 2.61841 7.36534 2.74417 7.31893 2.88838L6.41476 5.70646C6.37697 5.82404 6.30284 5.92659 6.20304 5.99934C6.10324 6.07209 5.98293 6.11129 5.85943 6.1113H2.88443C2.73355 6.1114 2.58655 6.15919 2.46445 6.24783C2.34235 6.33647 2.25138 6.46142 2.20455 6.60485C2.15771 6.74828 2.15739 6.90284 2.20364 7.04646C2.2499 7.19008 2.34036 7.31541 2.4621 7.40455H2.46326Z" fill="#D5EC41"/>
<path fill-rule="evenodd" clip-rule="evenodd" d="M7.99583 12.9078L5.96478 14.4005C5.64403 14.6364 5.25674 14.7645 4.85857 14.7665C4.4604 14.7684 4.07187 14.6441 3.74884 14.4113C3.4258 14.1785 3.18491 13.8492 3.06078 13.4709C2.93666 13.0926 2.93569 12.6846 3.05803 12.3057L3.8467 9.8633L1.77003 8.34663C1.4497 8.11243 1.21157 7.78298 1.08966 7.40536C0.967756 7.02773 0.968301 6.62124 1.09122 6.24394C1.21414 5.86664 1.45315 5.53784 1.7741 5.30449C2.09506 5.07114 2.48155 4.94519 2.87837 4.94463H5.42928L6.20337 2.53196C6.32509 2.15219 6.56429 1.82089 6.88647 1.58583C7.20861 1.3508 7.59707 1.22415 7.99583 1.22412V12.9078Z" fill="#D5EC41"/>
</svg>
