<svg width="16" height="16" viewBox="0 0 16 16" fill="none" xmlns="http://www.w3.org/2000/svg">
<path d="M1.77001 8.34663L3.84668 9.8633L3.05802 12.3057C2.93056 12.6845 2.92895 13.0944 3.05341 13.4742C3.17788 13.854 3.42175 14.1834 3.74868 14.4133C4.07001 14.6506 4.45941 14.7777 4.85885 14.7757C5.2583 14.7737 5.64641 14.6427 5.96535 14.4022L7.99593 12.9077L10.0271 14.4005C10.3478 14.6364 10.7351 14.7645 11.1333 14.7665C11.5315 14.7684 11.92 14.6441 12.243 14.4113C12.5661 14.1785 12.807 13.8492 12.9311 13.4709C13.0552 13.0926 13.0562 12.6846 12.9338 12.3057L12.1452 9.8633L14.2218 8.34663C14.5422 8.11243 14.7803 7.78298 14.9022 7.40536C15.0241 7.02773 15.0236 6.62124 14.9007 6.24394C14.7777 5.86664 14.5387 5.53784 14.2178 5.30449C13.8968 5.07114 13.5103 4.94519 13.1135 4.94463H10.5626L9.78852 2.53196C9.66679 2.15219 9.42759 1.82089 9.10541 1.58583C8.78324 1.35078 8.39474 1.22412 7.99593 1.22412C7.59713 1.22412 7.20862 1.35078 6.88645 1.58583C6.56428 1.82089 6.32508 2.15219 6.20335 2.53196L5.42927 4.94463H2.88068C2.48387 4.94519 2.09738 5.07114 1.77642 5.30449C1.45546 5.53784 1.21646 5.86664 1.09354 6.24394C0.970616 6.62124 0.970072 7.02773 1.09198 7.40536C1.21389 7.78298 1.45202 8.11243 1.77235 8.34663H1.77001Z" fill="#D5EC41"/>
</svg>
