<svg width="17" height="17" viewBox="0 0 17 17" fill="none" xmlns="http://www.w3.org/2000/svg">
<path d="M8.13086 2.48633C4.54117 2.48633 1.63086 5.39664 1.63086 8.98633C1.63086 12.576 4.54117 15.4863 8.13086 15.4863C11.7205 15.4863 14.6309 12.576 14.6309 8.98633C14.6309 5.39664 11.7205 2.48633 8.13086 2.48633ZM11.1309 9.98633H8.13086C7.99825 9.98633 7.87107 9.93365 7.77731 9.83988C7.68354 9.74611 7.63086 9.61894 7.63086 9.48633V4.98633C7.63086 4.85372 7.68354 4.72654 7.77731 4.63277C7.87107 4.53901 7.99825 4.48633 8.13086 4.48633C8.26347 4.48633 8.39065 4.53901 8.48441 4.63277C8.57818 4.72654 8.63086 4.85372 8.63086 4.98633V8.98633H11.1309C11.2635 8.98633 11.3906 9.03901 11.4844 9.13277C11.5782 9.22654 11.6309 9.35372 11.6309 9.48633C11.6309 9.61894 11.5782 9.74611 11.4844 9.83988C11.3906 9.93365 11.2635 9.98633 11.1309 9.98633Z" fill="#828282"/>
</svg>
