<svg width="17" height="16" viewBox="0 0 17 16" fill="none" xmlns="http://www.w3.org/2000/svg">
<rect x="0.878174" width="16" height="16" rx="8" fill="#C8C8C8"/>
<path d="M7.48427 10.1454L7.48441 10.1453L12.6659 4.96409C12.666 4.96406 12.666 4.96402 12.6661 4.96399C12.7102 4.91974 12.7626 4.88462 12.8203 4.86065C12.878 4.83666 12.9399 4.82432 13.0025 4.82432C13.065 4.82432 13.1269 4.83666 13.1847 4.86065C13.2424 4.88463 13.2948 4.91977 13.3389 4.96406M7.48427 10.1454L4.48864 8.21027C4.45366 8.2451 4.42591 8.28651 4.40697 8.33209C4.38804 8.37768 4.37829 8.42656 4.37829 8.47593C4.37829 8.5253 4.38804 8.57418 4.40697 8.61977C4.42591 8.66535 4.45366 8.70676 4.48864 8.74159L4.41793 8.81231L4.418 8.81238C4.41802 8.8124 4.41804 8.81242 4.41807 8.81244L6.42251 10.8165L6.42257 10.8166C6.65278 11.0464 6.96476 11.1754 7.29002 11.1754C7.61528 11.1754 7.92726 11.0464 8.15747 10.8166L8.15753 10.8165L13.3387 5.63642L13.2681 5.56562L13.3388 5.63634L13.3388 5.6364C13.383 5.59228 13.4181 5.53988 13.442 5.48218L13.3497 5.44386L13.442 5.48218C13.466 5.42448 13.4783 5.36262 13.4783 5.30014C13.4783 5.23767 13.466 5.17581 13.442 5.1181L13.3497 5.15643L13.442 5.1181C13.4181 5.06048 13.3831 5.00814 13.3389 4.96406M7.48427 10.1454C7.45872 10.171 7.42836 10.1914 7.39493 10.2053C7.3615 10.2192 7.32566 10.2263 7.28946 10.2263C7.25326 10.2263 7.21741 10.2192 7.18398 10.2053C7.15055 10.1914 7.12019 10.171 7.09464 10.1454L7.09454 10.1453L5.09082 8.13969M7.48427 10.1454L4.41795 8.13953C4.46205 8.0953 4.51443 8.06021 4.57211 8.03625C4.62985 8.01226 4.69177 7.99992 4.7543 7.99992C4.81683 7.99992 4.87875 8.01226 4.9365 8.03625C4.99424 8.06024 5.04669 8.09539 5.09082 8.13969M13.3389 4.96406C13.339 4.96407 13.339 4.96408 13.339 4.96409L13.2681 5.03467L13.3387 4.96387C13.3388 4.96393 13.3389 4.96399 13.3389 4.96406ZM5.09082 8.13969L5.01997 8.21027L5.09071 8.13959L5.09082 8.13969Z" fill="white" stroke="white" stroke-width="0.2"/>
</svg>
