<svg width="25" height="25" viewBox="0 0 25 25" fill="none" xmlns="http://www.w3.org/2000/svg">
<path d="M20.2914 24.5C19.9215 24.499 19.5554 24.4247 19.2144 24.2813C18.8733 24.138 18.564 23.9285 18.3044 23.665L12.1544 17.551L6.00442 23.669C5.60945 24.0697 5.10291 24.3422 4.55084 24.4508C3.99876 24.5594 3.42677 24.4992 2.90942 24.278C2.38694 24.0678 1.93997 23.705 1.62688 23.2369C1.31379 22.7688 1.14914 22.2171 1.15442 21.654V5.5C1.15442 4.17392 1.6812 2.90215 2.61889 1.96447C3.55657 1.02678 4.82834 0.5 6.15442 0.5L18.1544 0.5C18.811 0.5 19.4612 0.629329 20.0678 0.880602C20.6745 1.13188 21.2257 1.50017 21.69 1.96447C22.1543 2.42876 22.5225 2.97996 22.7738 3.58658C23.0251 4.19321 23.1544 4.84339 23.1544 5.5V21.654C23.16 22.2167 22.996 22.768 22.6836 23.2361C22.3713 23.7041 21.9252 24.0672 21.4034 24.278C21.0512 24.4253 20.6732 24.5008 20.2914 24.5ZM6.15442 2.5C5.35877 2.5 4.59571 2.81607 4.0331 3.37868C3.47049 3.94129 3.15442 4.70435 3.15442 5.5V21.654C3.15406 21.8206 3.20309 21.9836 3.29532 22.1224C3.38755 22.2612 3.51884 22.3695 3.67261 22.4337C3.82638 22.4979 3.99573 22.5151 4.15926 22.4831C4.3228 22.4512 4.47318 22.3714 4.59142 22.254L11.4544 15.433C11.6418 15.2468 11.8952 15.1422 12.1594 15.1422C12.4236 15.1422 12.6771 15.2468 12.8644 15.433L19.7194 22.252C19.8377 22.3694 19.988 22.4492 20.1516 22.4811C20.3151 22.5131 20.4845 22.4959 20.6382 22.4317C20.792 22.3675 20.9233 22.2592 21.0155 22.1204C21.1078 21.9816 21.1568 21.8186 21.1564 21.652V5.5C21.1564 4.70435 20.8404 3.94129 20.2777 3.37868C19.7151 2.81607 18.9521 2.5 18.1564 2.5H6.15442Z" fill="white"/>
</svg>
