<svg width="24" height="25" viewBox="0 0 24 25" fill="none" xmlns="http://www.w3.org/2000/svg">
<g id="fi-sr-bookmark">
<path id="Vector" d="M2.84899 23.6105C3.39504 23.8439 3.99874 23.9073 4.58134 23.7924C5.16395 23.6775 5.6984 23.3897 6.11499 22.9665L12 17.1135L17.885 22.9665C18.1594 23.245 18.4863 23.4662 18.8467 23.6174C19.2072 23.7686 19.5941 23.8468 19.985 23.8475C20.3868 23.8464 20.7844 23.7658 21.155 23.6105C21.7055 23.3878 22.176 23.0041 22.5052 22.5098C22.8343 22.0155 23.0068 21.4334 23 20.8395V5.06055C22.9984 3.73495 22.4711 2.4641 21.5338 1.52677C20.5964 0.589429 19.3256 0.0621347 18 0.0605469L5.99999 0.0605469C4.6744 0.0621347 3.40355 0.589429 2.46621 1.52677C1.52887 2.4641 1.00158 3.73495 0.999991 5.06055V20.8395C0.993538 21.4339 1.16657 22.0163 1.49645 22.5107C1.82634 23.005 2.29773 23.3884 2.84899 23.6105Z" fill="#E8F97B"/>
</g>
</svg>
