<svg width="16" height="16" viewBox="0 0 16 16" fill="none" xmlns="http://www.w3.org/2000/svg">
<g clip-path="url(#clip0_2524_45648)">
<path d="M6 6.3335C6 6.66313 5.90225 6.98536 5.71912 7.25945C5.53598 7.53353 5.27568 7.74715 4.97114 7.8733C4.6666 7.99944 4.33148 8.03245 4.00818 7.96814C3.68488 7.90383 3.38791 7.7451 3.15482 7.51201C2.92173 7.27892 2.763 6.98195 2.69869 6.65865C2.63438 6.33535 2.66739 6.00023 2.79353 5.69569C2.91968 5.39115 3.1333 5.13085 3.40738 4.94771C3.68146 4.76458 4.0037 4.66683 4.33333 4.66683C4.77536 4.66683 5.19928 4.84242 5.51184 5.15498C5.82441 5.46755 6 5.89147 6 6.3335ZM16 8.00016V6.66683C16 5.95959 15.719 5.28131 15.219 4.78121C14.7189 4.28111 14.0406 4.00016 13.3333 4.00016H10C9.29276 4.00016 8.61448 4.28111 8.11438 4.78121C7.61428 5.28131 7.33333 5.95959 7.33333 6.66683V8.00016H16ZM1.33333 9.3335V2.00016C1.33333 1.82335 1.2631 1.65378 1.13807 1.52876C1.01305 1.40373 0.843478 1.3335 0.666667 1.3335C0.489856 1.3335 0.320286 1.40373 0.195262 1.52876C0.0702379 1.65378 0 1.82335 0 2.00016L0 14.0002C0 14.177 0.0702379 14.3465 0.195262 14.4716C0.320286 14.5966 0.489856 14.6668 0.666667 14.6668C0.843478 14.6668 1.01305 14.5966 1.13807 14.4716C1.2631 14.3465 1.33333 14.177 1.33333 14.0002V12.6668H14.6667V14.0002C14.6667 14.177 14.7369 14.3465 14.8619 14.4716C14.987 14.5966 15.1565 14.6668 15.3333 14.6668C15.5101 14.6668 15.6797 14.5966 15.8047 14.4716C15.9298 14.3465 16 14.177 16 14.0002V9.3335H1.33333Z" fill="#58A1EE"/>
</g>
<defs>
<clipPath id="clip0_2524_45648">
<rect width="16" height="16" fill="white"/>
</clipPath>
</defs>
</svg>
