<svg width="16" height="16" viewBox="0 0 16 16" fill="none" xmlns="http://www.w3.org/2000/svg">
<g clip-path="url(#clip0_2524_45642)">
<path d="M0.193121 5.70137C0.0494694 5.43492 -0.0170823 5.13371 0.000934852 4.83154C0.018952 4.52937 0.120825 4.2382 0.295121 3.9907C0.57996 3.57278 0.961418 3.22974 1.40712 2.9907L6.40779 0.388037C6.8993 0.132458 7.44513 -0.000976563 7.99912 -0.000976562C8.55311 -0.000976563 9.09895 0.132458 9.59046 0.388037L14.5905 2.9927C15.0362 3.23174 15.4176 3.57478 15.7025 3.9927C15.8768 4.2402 15.9786 4.53137 15.9966 4.83354C16.0147 5.13571 15.9481 5.43692 15.8045 5.70337C15.6498 5.99592 15.4178 6.24044 15.1338 6.4103C14.8499 6.58015 14.5247 6.66884 14.1938 6.66671H1.80445C1.47323 6.66877 1.14779 6.57984 0.863647 6.40962C0.579502 6.23939 0.34756 5.9944 0.193121 5.70137ZM15.3325 14.6667C15.3325 14.3131 15.192 13.9739 14.9419 13.7239C14.6919 13.4738 14.3527 13.3334 13.9991 13.3334V8.00004H12.6658V13.3334H10.6658V8.00004H9.33245V13.3334H6.66579V8.00004H5.33245V13.3334H3.33245V8.00004H1.99912V13.3334C1.6455 13.3334 1.30636 13.4738 1.05631 13.7239C0.806264 13.9739 0.665788 14.3131 0.665788 14.6667C0.488977 14.6667 0.319408 14.7369 0.194383 14.862C0.0693591 14.987 -0.000878766 15.1566 -0.000878766 15.3334C-0.000878766 15.5102 0.0693591 15.6798 0.194383 15.8048C0.319408 15.9298 0.488977 16 0.665788 16H15.3325C15.5093 16 15.6788 15.9298 15.8039 15.8048C15.9289 15.6798 15.9991 15.5102 15.9991 15.3334C15.9991 15.1566 15.9289 14.987 15.8039 14.862C15.6788 14.7369 15.5093 14.6667 15.3325 14.6667Z" fill="#29C273"/>
</g>
<defs>
<clipPath id="clip0_2524_45642">
<rect width="16" height="16" fill="white"/>
</clipPath>
</defs>
</svg>
