<svg width="16" height="16" viewBox="0 0 16 16" fill="none" xmlns="http://www.w3.org/2000/svg">
<g clip-path="url(#clip0_2524_45645)">
<path d="M14.6673 6.66667C14.6375 7.93363 14.3223 9.17755 13.7452 10.3058C13.168 11.4341 12.3439 12.4177 11.334 13.1833V15.3333C11.334 15.5101 11.2637 15.6797 11.1387 15.8047C11.0137 15.9298 10.8441 16 10.6673 16C10.4905 16 10.3209 15.9298 10.1959 15.8047C10.0709 15.6797 10.0007 15.5101 10.0007 15.3333V1.33333C9.99467 1.08284 10.0631 0.836205 10.1973 0.624619C10.3315 0.413034 10.5255 0.246007 10.7547 0.144667C11.0179 0.0375768 11.3066 0.00948677 11.5855 0.0638294C11.8645 0.118172 12.1215 0.252594 12.3253 0.450667C13.8716 2.1473 14.7096 4.37153 14.6673 6.66667ZM7.33398 0C7.15717 0 6.9876 0.0702379 6.86258 0.195262C6.73756 0.320286 6.66732 0.489856 6.66732 0.666667V4.66667C6.66561 5.07884 6.5366 5.48042 6.29793 5.81647C6.05926 6.15251 5.72259 6.40661 5.33398 6.544V0.666667C5.33398 0.489856 5.26375 0.320286 5.13872 0.195262C5.0137 0.0702379 4.84413 0 4.66732 0C4.49051 0 4.32094 0.0702379 4.19591 0.195262C4.07089 0.320286 4.00065 0.489856 4.00065 0.666667V6.544C3.61205 6.40661 3.27538 6.15251 3.03671 5.81647C2.79804 5.48042 2.66903 5.07884 2.66732 4.66667V0.666667C2.66732 0.489856 2.59708 0.320286 2.47206 0.195262C2.34703 0.0702379 2.17746 0 2.00065 0C1.82384 0 1.65427 0.0702379 1.52925 0.195262C1.40422 0.320286 1.33398 0.489856 1.33398 0.666667V4.66667C1.33495 5.4348 1.60071 6.17912 2.08646 6.77417C2.57222 7.36921 3.24826 7.7786 4.00065 7.93333V15.3333C4.00065 15.5101 4.07089 15.6797 4.19591 15.8047C4.32094 15.9298 4.49051 16 4.66732 16C4.84413 16 5.0137 15.9298 5.13872 15.8047C5.26375 15.6797 5.33398 15.5101 5.33398 15.3333V7.93333C6.08638 7.7786 6.76242 7.36921 7.24817 6.77417C7.73392 6.17912 7.99968 5.4348 8.00065 4.66667V0.666667C8.00065 0.489856 7.93041 0.320286 7.80539 0.195262C7.68036 0.0702379 7.5108 0 7.33398 0V0Z" fill="#ED795A"/>
</g>
<defs>
<clipPath id="clip0_2524_45645">
<rect width="16" height="16" fill="white"/>
</clipPath>
</defs>
</svg>
