<svg width="16" height="16" viewBox="0 0 16 16" fill="none" xmlns="http://www.w3.org/2000/svg">
<g clip-path="url(#clip0_2524_45615)">
<path d="M16 6C15.9136 6.48407 15.7213 6.94303 15.4367 7.344L9.58133 15.224C9.3957 15.4638 9.15795 15.6583 8.88607 15.7927C8.6142 15.9271 8.31532 15.9979 8.01204 15.9998C7.70876 16.0016 7.40903 15.9345 7.13553 15.8035C6.86202 15.6724 6.6219 15.4809 6.43333 15.2433L0.549333 7.2C0.299387 6.83783 0.122942 6.43012 0.03 6H4.20867L7.37733 14.2393C7.42555 14.3654 7.51089 14.4738 7.62207 14.5503C7.73325 14.6269 7.86504 14.6678 8 14.6678C8.13496 14.6678 8.26675 14.6269 8.37793 14.5503C8.48911 14.4738 8.57445 14.3654 8.62267 14.2393L11.7913 6H16ZM11.8 4.66667H15.9713C15.8699 4.21561 15.6753 3.79074 15.4 3.41933L13.6947 1.11667C13.4477 0.771505 13.1221 0.490168 12.7447 0.295973C12.3673 0.101778 11.9491 0.000317757 11.5247 1.28905e-06H10.058L11.8 4.66667ZM7.40533 1.28905e-06L5.63267 4.66667H10.374L8.63667 1.28905e-06H7.40533ZM4.20667 4.66667L5.97867 1.28905e-06H4.43067C4.00985 -0.000412955 3.59495 0.0990181 3.22004 0.290126C2.84512 0.481233 2.5209 0.758564 2.274 1.09933L0.625333 3.26067C0.30987 3.67402 0.0956964 4.15557 0 4.66667H4.20667ZM10.3627 6H5.63733L8 12.1427L10.3627 6Z" fill="#B38FE5"/>
</g>
<defs>
<clipPath id="clip0_2524_45615">
<rect width="16" height="16" fill="white"/>
</clipPath>
</defs>
</svg>
