<svg width="21" height="21" viewBox="0 0 21 21" fill="none" xmlns="http://www.w3.org/2000/svg">
<g id="bookmark">
<path id="Vector" fill-rule="evenodd" clip-rule="evenodd" d="M5.3045 2.48248C5.77334 2.01364 6.40922 1.75024 7.07227 1.75024H14.5723C15.2353 1.75024 15.8712 2.01364 16.34 2.48248C16.8089 2.95132 17.0723 3.5872 17.0723 4.25024V18.6252C17.0723 18.8714 16.9278 19.0946 16.7033 19.1954C16.4788 19.2962 16.216 19.2559 16.032 19.0924L10.8223 14.4615L5.61249 19.0924C5.42854 19.2559 5.16575 19.2962 4.94123 19.1954C4.71671 19.0946 4.57227 18.8714 4.57227 18.6252V4.25024C4.57227 3.5872 4.83566 2.95132 5.3045 2.48248ZM7.07227 3.00024C6.74075 3.00024 6.4228 3.13194 6.18838 3.36636C5.95396 3.60078 5.82227 3.91872 5.82227 4.25024V17.2335L10.407 13.1581C10.6438 12.9476 11.0007 12.9476 11.2375 13.1581L15.8223 17.2335V4.25024C15.8223 3.91872 15.6906 3.60078 15.4561 3.36636C15.2217 3.13194 14.9038 3.00024 14.5723 3.00024H7.07227Z" fill="#1F1F1F"/>
</g>
</svg>
