<svg width="17" height="17" viewBox="0 0 17 17" fill="none" xmlns="http://www.w3.org/2000/svg">
<g id="fi-sr-star" clip-path="url(#clip0_160_5061)">
<path id="Vector" d="M0.968291 8.76715L3.34162 10.5005L2.44029 13.2918C2.29463 13.7247 2.29279 14.1931 2.43503 14.6272C2.57727 15.0613 2.85599 15.4377 3.22962 15.7005C3.59686 15.9717 4.04189 16.1169 4.49839 16.1147C4.9549 16.1124 5.39845 15.9627 5.76296 15.6878L8.08363 13.9798L10.405 15.6858C10.7715 15.9554 11.2142 16.1019 11.6692 16.1041C12.1243 16.1063 12.5683 15.9642 12.9375 15.6982C13.3066 15.4321 13.582 15.0558 13.7238 14.6235C13.8657 14.1911 13.8668 13.7249 13.727 13.2918L12.8256 10.5005L15.199 8.76715C15.5651 8.49948 15.8372 8.12298 15.9765 7.69141C16.1158 7.25983 16.1152 6.79527 15.9747 6.36407C15.8343 5.93287 15.5611 5.5571 15.1943 5.29041C14.8275 5.02373 14.3858 4.87979 13.9323 4.87915H11.017L10.1323 2.12181C9.99317 1.68778 9.7198 1.30915 9.3516 1.04052C8.98341 0.771889 8.5394 0.627136 8.08363 0.627136C7.62785 0.627136 7.18385 0.771889 6.81565 1.04052C6.44745 1.30915 6.17408 1.68778 6.03496 2.12181L5.15029 4.87915H2.23762C1.78412 4.87979 1.34242 5.02373 0.975611 5.29041C0.608803 5.5571 0.335652 5.93287 0.195172 6.36407C0.0546927 6.79527 0.054071 7.25983 0.193396 7.69141C0.332721 8.12298 0.604865 8.49948 0.970958 8.76715H0.968291Z" fill="#374957"/>
</g>
<defs>
<clipPath id="clip0_160_5061">
<rect width="16" height="16" fill="white" transform="translate(0.0839844 0.500244)"/>
</clipPath>
</defs>
</svg>
