<svg width="11" height="10" viewBox="0 0 11 10" fill="none" xmlns="http://www.w3.org/2000/svg">
<g id="fi-sr-angle-right">
<path id="Vector" d="M3.41357 9.37497C3.41372 9.20926 3.47966 9.0504 3.59691 8.9333L6.79357 5.73663C6.89033 5.6399 6.96708 5.52506 7.01945 5.39866C7.07182 5.27226 7.09877 5.13678 7.09877 4.99997C7.09877 4.86315 7.07182 4.72767 7.01945 4.60127C6.96708 4.47488 6.89033 4.36003 6.79357 4.2633L3.60107 1.06872C3.48723 0.95084 3.42423 0.792964 3.42565 0.629091C3.42708 0.465218 3.49281 0.30846 3.60869 0.19258C3.72457 0.0766997 3.88133 0.0109691 4.0452 0.00954511C4.20907 0.0081211 4.36695 0.0711176 4.48482 0.184966L7.67732 3.37705C8.10659 3.80716 8.34768 4.39001 8.34768 4.99768C8.34768 5.60534 8.10659 6.18819 7.67732 6.6183L4.48066 9.81497C4.39337 9.90231 4.28218 9.96184 4.16109 9.98604C4.04001 10.0102 3.91447 9.99805 3.80032 9.95098C3.68617 9.90391 3.58851 9.82408 3.51968 9.72156C3.45085 9.61905 3.41393 9.49844 3.41357 9.37497Z" fill="#828282"/>
</g>
</svg>
