<svg width="17" height="17" viewBox="0 0 17 17" fill="none" xmlns="http://www.w3.org/2000/svg">
<g id="fi-rr-star" clip-path="url(#clip0_160_5062)">
<path id="Vector" d="M15.9743 6.36315C15.8379 5.92908 15.5655 5.55042 15.1973 5.28317C14.829 5.01591 14.3846 4.87426 13.9296 4.87915H11.017L10.1323 2.12181C9.99317 1.68778 9.7198 1.30915 9.3516 1.04052C8.98341 0.771889 8.5394 0.627136 8.08362 0.627136C7.62785 0.627136 7.18384 0.771889 6.81565 1.04052C6.44745 1.30915 6.17408 1.68778 6.03496 2.12181L5.15029 4.87915H2.23762C1.78412 4.87979 1.34242 5.02373 0.975611 5.29041C0.608803 5.5571 0.335652 5.93287 0.195172 6.36407C0.0546927 6.79527 0.054071 7.25983 0.193396 7.69141C0.332721 8.12298 0.604865 8.49948 0.970958 8.76715L3.34162 10.5005L2.44029 13.2918C2.29463 13.7247 2.29279 14.1931 2.43503 14.6272C2.57727 15.0613 2.85599 15.4377 3.22962 15.7005C3.59686 15.9717 4.04189 16.1169 4.49839 16.1147C4.9549 16.1124 5.39845 15.9627 5.76296 15.6878L8.08362 13.9798L10.405 15.6858C10.7715 15.9554 11.2142 16.1019 11.6692 16.1041C12.1243 16.1063 12.5683 15.9642 12.9375 15.6982C13.3066 15.4321 13.582 15.0558 13.7238 14.6235C13.8657 14.1911 13.8668 13.7249 13.727 13.2918L12.8256 10.5005L15.199 8.76715C15.5692 8.50284 15.8446 8.12634 15.9842 7.69337C16.1239 7.26041 16.1204 6.79398 15.9743 6.36315ZM14.4123 7.69048L11.6496 9.70981C11.5362 9.79259 11.4517 9.9091 11.4084 10.0427C11.365 10.1763 11.365 10.3202 11.4083 10.4538L12.4583 13.7005C12.5114 13.8651 12.511 14.0424 12.457 14.2068C12.403 14.3712 12.2983 14.5143 12.1579 14.6154C12.0175 14.7165 11.8487 14.7705 11.6756 14.7697C11.5026 14.7688 11.3343 14.713 11.195 14.6105L8.47829 12.6105C8.36387 12.5264 8.2256 12.4811 8.08362 12.4811C7.94165 12.4811 7.80338 12.5264 7.68896 12.6105L4.97229 14.6105C4.83301 14.7144 4.66425 14.7713 4.49047 14.7729C4.31669 14.7745 4.14692 14.7206 4.00578 14.6192C3.86464 14.5178 3.75946 14.3741 3.70549 14.2089C3.65152 14.0437 3.65157 13.8656 3.70562 13.7005L4.75896 10.4538C4.80224 10.3202 4.8022 10.1763 4.75887 10.0427C4.71553 9.9091 4.6311 9.79259 4.51762 9.70981L1.75496 7.69048C1.61583 7.58861 1.51245 7.44538 1.45959 7.28124C1.40672 7.11711 1.40708 6.94046 1.46061 6.77654C1.51414 6.61263 1.61811 6.46982 1.75765 6.36851C1.8972 6.26721 2.06519 6.2126 2.23762 6.21248H5.63762C5.77877 6.21247 5.91627 6.16767 6.03032 6.08453C6.14438 6.00138 6.2291 5.88419 6.27229 5.74981L7.30562 2.52914C7.35867 2.36434 7.46263 2.22061 7.60256 2.11864C7.74249 2.01668 7.91116 1.96175 8.08429 1.96175C8.25743 1.96175 8.4261 2.01668 8.56602 2.11864C8.70595 2.22061 8.80992 2.36434 8.86296 2.52914L9.89629 5.74981C9.93948 5.88419 10.0242 6.00138 10.1383 6.08453C10.2523 6.16767 10.3898 6.21247 10.531 6.21248H13.931C14.1034 6.2126 14.2714 6.26721 14.4109 6.36851C14.5505 6.46982 14.6544 6.61263 14.708 6.77654C14.7615 6.94046 14.7619 7.11711 14.709 7.28124C14.6561 7.44538 14.5528 7.58861 14.4136 7.69048H14.4123Z" fill="#374957"/>
</g>
<defs>
<clipPath id="clip0_160_5062">
<rect width="16" height="16" fill="white" transform="translate(0.0839844 0.500244)"/>
</clipPath>
</defs>
</svg>
