<svg width="19" height="18" viewBox="0 0 19 18" fill="none" xmlns="http://www.w3.org/2000/svg">
<g clip-path="url(#clip0_160_12374)">
<path d="M18.6157 8.38599C17.9572 6.94599 15.3749 2.25024 9.7499 2.25024C4.1249 2.25024 1.54265 6.94599 0.884153 8.38599C0.795757 8.57897 0.75 8.78874 0.75 9.00099C0.75 9.21325 0.795757 9.42302 0.884153 9.61599C1.54265 11.0545 4.1249 15.7502 9.7499 15.7502C15.3749 15.7502 17.9572 11.0545 18.6157 9.61449C18.7039 9.42173 18.7495 9.21223 18.7495 9.00024C18.7495 8.78826 18.7039 8.57875 18.6157 8.38599ZM9.7499 14.2502C5.01965 14.2502 2.8124 10.2257 2.2499 9.00849C2.8124 7.77474 5.01965 3.75024 9.7499 3.75024C14.4689 3.75024 16.6769 7.75749 17.2499 9.00024C16.6769 10.243 14.4689 14.2502 9.7499 14.2502Z" fill="#A3A3A3"/>
<path d="M9.75 5.25049C9.00832 5.25049 8.2833 5.47042 7.66661 5.88248C7.04993 6.29453 6.56928 6.8802 6.28545 7.56543C6.00162 8.25065 5.92736 9.00465 6.07206 9.73208C6.21675 10.4595 6.5739 11.1277 7.09835 11.6521C7.6228 12.1766 8.29098 12.5337 9.01841 12.6784C9.74584 12.8231 10.4998 12.7489 11.1851 12.465C11.8703 12.1812 12.456 11.7006 12.868 11.0839C13.2801 10.4672 13.5 9.74217 13.5 9.00049C13.4988 8.00629 13.1033 7.05316 12.4003 6.35015C11.6973 5.64715 10.7442 5.25168 9.75 5.25049ZM9.75 11.2505C9.30499 11.2505 8.86998 11.1185 8.49997 10.8713C8.12996 10.6241 7.84157 10.2727 7.67127 9.86153C7.50098 9.45039 7.45642 8.99799 7.54323 8.56154C7.63005 8.12508 7.84434 7.72417 8.15901 7.4095C8.47368 7.09483 8.87459 6.88054 9.31105 6.79372C9.74751 6.7069 10.1999 6.75146 10.611 6.92176C11.0222 7.09206 11.3736 7.38044 11.6208 7.75046C11.868 8.12047 12 8.55548 12 9.00049C12 9.59723 11.7629 10.1695 11.341 10.5915C10.919 11.0134 10.3467 11.2505 9.75 11.2505Z" fill="#A3A3A3"/>
</g>
<defs>
<clipPath id="clip0_160_12374">
<rect width="18" height="18" fill="white" transform="translate(0.75 0.000244141)"/>
</clipPath>
</defs>
</svg>
