<svg width="19" height="18" viewBox="0 0 19 18" fill="none" xmlns="http://www.w3.org/2000/svg">
<g clip-path="url(#clip0_160_12379)">
<path d="M18.6157 8.38597C17.8911 6.81451 16.8297 5.42161 15.5069 4.30597L17.7809 2.03197L16.7197 0.969971L14.2499 3.43747C12.8829 2.64676 11.329 2.23679 9.7499 2.25022C4.1249 2.25022 1.54265 6.94597 0.884153 8.38597C0.795757 8.57895 0.75 8.78871 0.75 9.00097C0.75 9.21323 0.795757 9.42299 0.884153 9.61597C1.60876 11.1874 2.67007 12.5803 3.9929 13.696L1.71965 15.97L2.78015 17.0305L5.2499 14.563C6.61688 15.3537 8.17077 15.7636 9.7499 15.7502C15.3749 15.7502 17.9572 11.0545 18.6157 9.61447C18.7039 9.42171 18.7495 9.21221 18.7495 9.00022C18.7495 8.78823 18.7039 8.57873 18.6157 8.38597ZM2.2499 9.00847C2.8124 7.77472 5.01965 3.75022 9.7499 3.75022C10.9271 3.74334 12.0889 4.01797 13.1384 4.55122L11.8147 5.87497C11.0946 5.39692 10.2313 5.18272 9.37133 5.2687C8.51132 5.35469 7.70755 5.73557 7.09641 6.34672C6.48526 6.95787 6.10438 7.76164 6.01839 8.62164C5.9324 9.48165 6.14661 10.3449 6.62465 11.065L5.0654 12.6242C3.86568 11.6473 2.90306 10.411 2.2499 9.00847ZM11.9999 9.00022C11.9999 9.59696 11.7629 10.1693 11.3409 10.5912C10.9189 11.0132 10.3466 11.2502 9.7499 11.2502C9.41579 11.2489 9.0863 11.172 8.78615 11.0252L11.7749 8.03647C11.9217 8.33662 11.9986 8.66611 11.9999 9.00022ZM7.4999 9.00022C7.4999 8.40348 7.73696 7.83119 8.15891 7.40923C8.58087 6.98727 9.15317 6.75022 9.7499 6.75022C10.084 6.75151 10.4135 6.82844 10.7137 6.97522L7.7249 9.96397C7.57812 9.66382 7.5012 9.33434 7.4999 9.00022ZM9.7499 14.2502C8.57271 14.2571 7.41092 13.9825 6.3614 13.4492L7.68515 12.1255C8.40521 12.6035 9.26847 12.8177 10.1285 12.7317C10.9885 12.6457 11.7923 12.2649 12.4034 11.6537C13.0146 11.0426 13.3954 10.2388 13.4814 9.3788C13.5674 8.51879 13.3532 7.65552 12.8752 6.93547L14.4337 5.37697C15.6357 6.35483 16.5989 7.59401 17.2499 9.00022C16.6769 10.243 14.4689 14.2502 9.7499 14.2502Z" fill="#A3A3A3"/>
</g>
<defs>
<clipPath id="clip0_160_12379">
<rect width="18" height="18" fill="white" transform="translate(0.75 0.000244141)"/>
</clipPath>
</defs>
</svg>
